<svg width="28" height="30" viewBox="0 0 28 30" fill="none" xmlns="http://www.w3.org/2000/svg">
<g clip-path="url(#clip0_138_325)">
<path d="M27.5 28.7586C26.4064 28.6051 25.816 28.467 25.2256 28.4516C20.5023 28.3442 16.4361 26.4052 12.7036 23.7756C11.5219 22.8868 10.5596 21.7406 9.89019 20.4247C7.66175 16.263 6.85262 11.4918 7.58499 6.83155C8.67854 7.62453 8.71961 8.75515 9.18681 9.6351C9.56684 10.449 9.98839 11.243 10.4498 12.014C10.5891 12.1484 10.7591 12.247 10.9451 12.3013C11.1311 12.3557 11.3276 12.3642 11.5177 12.3261C11.692 12.24 11.8423 12.1122 11.9552 11.9542C12.068 11.7963 12.14 11.6129 12.1646 11.4206C12.1428 10.6041 12.0063 9.79475 11.759 9.01607C10.9221 6.52971 10.0339 4.05871 9.12521 1.59793C8.46805 -0.182426 7.72361 -0.448458 6.19367 0.574736C3.77197 2.16665 1.85571 4.41332 0.669417 7.05154C0.469189 7.49151 0.561609 8.07474 0.5 8.79097C2.97461 8.27937 3.13377 5.68046 5.12065 4.75959C5.05904 5.68558 5.01797 6.46321 4.94609 7.24083C4.51503 11.675 5.24376 16.1448 7.06132 20.2149C8.21652 22.9681 10.3015 25.2321 12.9552 26.615C15.8868 28.1498 18.9056 29.4748 22.2222 29.8534C23.8497 30.0631 25.5799 30.2575 27.5 28.7586Z" fill="#1C199A"/>
</g>
<defs>
<clipPath id="clip0_138_325">
<rect width="27" height="30" fill="white" transform="matrix(1 0 0 -1 0.5 30.0017)"/>
</clipPath>
</defs>
</svg>
