<svg width="97" height="38" viewBox="0 0 97 38" fill="none" xmlns="http://www.w3.org/2000/svg">
<path d="M91.0861 4.52943C93.3227 10.4992 92.0421 16.4019 94.1645 22.1612C94.2143 22.2967 94.6516 22.3527 95.3417 22.6241C95.7047 21.6314 95.9451 20.5965 96.0587 19.5374C95.9552 14.7706 95.9197 9.99748 95.4517 5.22804C95.0074 0.707998 92.7529 -0.567534 88.084 0.625826C83.811 1.71828 79.5775 2.9008 75.3388 4.07295C74.6828 4.38522 74.0679 4.75895 73.5033 5.18864C79.2723 6.91918 83.6566 4.25649 89.1224 4.27868C86.6513 7.70198 84.6798 10.8086 82.2899 13.6678C74.2708 23.2856 64.3727 30.6251 50.9994 33.6431C33.3734 37.6541 15.8523 31.4098 4.53632 17.0858C4.45553 16.9764 4.36889 16.8705 4.27673 16.7685C3.32963 15.7919 2.68673 13.6602 0.898257 14.9185C-0.70077 16.0527 1.12001 17.406 1.9786 18.4886C15.7455 35.6387 37.2221 41.9319 57.4685 34.7137C70.4667 30.0749 79.8972 21.7073 87.0596 11.0739C88.4953 8.94854 89.7503 6.71068 91.0861 4.52943Z" fill="#1C199A"/>
</svg>
