<svg width="68" height="33" viewBox="0 0 68 33" fill="none" xmlns="http://www.w3.org/2000/svg">
<path d="M32.4276 29.4549C33.6043 28.8283 34.7521 28.1247 35.866 27.3473C38.918 24.9392 41.9443 22.4823 44.9448 19.9766C50.4435 15.4101 55.9294 10.8222 61.4025 6.21275C61.983 5.77617 62.4775 5.19065 62.8512 4.4974C59.6318 5.47314 56.4252 6.44888 53.2316 7.42463C52.6328 7.60611 52.0484 7.88713 51.4399 8.01007C50.7156 8.15643 49.9912 8.06276 49.8174 6.96212C49.6725 6.02541 50.2085 5.63902 50.8556 5.39313C52.4058 4.80768 53.9414 4.16369 55.5013 3.60167C58.3166 2.58299 61.1417 1.61115 63.9667 0.621751C64.4811 0.411338 65.0051 0.237361 65.5362 0.100704C67.4292 -0.303253 68.115 0.487099 67.9846 2.8523C67.689 8.02694 66.4503 13.0577 64.3579 17.5821C63.5031 17.6231 63.281 16.8854 63.3486 16.1126C63.4855 14.7187 63.6854 13.335 63.9474 11.9677C64.1937 10.6153 64.5269 9.28049 64.9374 7.41877C64.0488 8.00422 63.5176 8.25596 63.054 8.6365C56.1918 14.2802 49.3586 19.9707 42.4771 25.5793C40.1398 27.482 37.7493 29.2383 35.3251 30.9068C34.0599 31.7791 32.6063 32.6632 31.1914 31.3284C29.7764 29.9935 30.1097 28.044 30.4622 26.3579C31.486 21.446 32.6884 16.5868 33.7846 11.7218C34.2675 9.66688 34.6201 7.58855 35.1126 5.11212C34.1758 5.22335 33.5432 5.11212 33.041 5.38142C29.9165 7.00896 26.6375 8.34377 23.7545 10.4689C18.201 14.5671 12.8552 19.075 7.45619 23.4775C5.46658 25.1051 3.59288 26.9258 1.63225 28.6236C1.15936 29.0327 0.575845 29.2085 0 29.1154C0.163107 28.5912 0.398228 28.1042 0.695397 27.6752C9.13673 19.2038 17.7712 11.0895 27.6468 5.18822C29.5283 4.08678 31.5108 3.25944 33.5528 2.7235C36.006 2.05024 37.1361 3.30894 36.9332 6.31813C36.7658 8.08888 36.4701 9.83832 36.0495 11.5462C35.0161 16.1653 33.8957 20.7611 32.8767 25.3861C32.6597 26.7302 32.5098 28.0889 32.4276 29.4549Z" fill="#1C199A"/>
</svg>
