<svg width="265" height="361" viewBox="0 0 265 361" fill="none" xmlns="http://www.w3.org/2000/svg" xmlns:xlink="http://www.w3.org/1999/xlink">
<g clip-path="url(#clip0_105_56)">
<rect width="271.743" height="93.0622" transform="matrix(0.999916 -0.0129454 0.0129343 0.999916 -78.6758 262.562)" fill="url(#pattern0_105_56)"/>
<g filter="url(#filter0_d_105_56)">
<path d="M220.265 189.135C224.353 179.979 226.789 170.172 227.46 160.166C228.68 141.971 223.621 123.909 213.13 108.997C223.739 98.8462 230.117 85.822 230.117 71.5155C230.117 57.2089 223.523 42.8252 212.621 31.5314C213.298 23.5323 211.719 15.5036 208.065 8.35664C206.722 5.62203 204.745 2.68656 201.703 2.31577C199.31 2.02222 197.071 3.44361 195.094 4.86499C191.45 7.47601 187.929 10.2724 184.547 13.2079C175.663 9.85446 166.247 8.13253 156.752 8.1249C146.196 8.1291 135.75 10.2625 126.037 14.3975C125.271 13.5226 124.44 12.7066 123.551 11.9565C118.684 7.78205 113.34 4.19852 107.631 1.28063C106.424 0.532161 105.036 0.126281 103.616 0.106445C100.435 0.338192 98.736 3.938 97.8713 7.01251C96.1977 12.765 95.2332 18.7005 94.9991 24.6871C94.68 29.0727 94.825 33.4798 95.4315 37.8349C87.8465 47.4458 83.6064 59.2722 83.3558 71.5155C83.3558 85.5902 89.5326 98.5063 99.9405 108.595C95.0792 115.268 91.3249 122.681 88.8223 130.549C79.6469 118.719 68.4544 108.603 55.761 100.669C48.8585 96.3588 36.8137 92.2955 28.8765 90.5496C20.9393 88.8038 11.8903 90.0553 6.0378 95.7253C-1.03463 102.6 -1.48248 114.265 2.53244 123.303C6.54736 132.341 20.1363 139.912 27.8419 146.076C41.2459 156.774 53.7922 168.505 65.3659 181.163C70.4952 186.927 74.6191 193.513 77.5651 200.645C57.4905 218.551 45.2296 242.607 49.2908 268.253C55.236 305.626 80.1748 321.092 114.518 326.793C112.323 327.658 110.304 328.914 108.557 330.501C107.021 331.985 105.998 333.921 105.637 336.027C105.276 338.133 105.595 340.3 106.55 342.212C107.984 344.395 110.046 346.092 112.464 347.078C119.83 350.524 128.354 350.493 136.384 349.272C142.02 348.422 147.872 346.862 151.934 342.861C153.384 341.426 154.492 339.684 155.177 337.762C155.85 339.686 156.954 341.429 158.404 342.861C162.465 346.862 168.318 348.422 173.954 349.272C181.984 350.493 190.508 350.524 197.874 347.078C200.292 346.092 202.354 344.395 203.788 342.212C204.742 340.3 205.062 338.133 204.701 336.027C204.34 333.921 203.317 331.985 201.78 330.501C200.413 329.227 198.849 328.184 197.148 327.411C234.332 322.22 262.004 306.909 264.846 267.805C267.146 235.592 247.952 206.979 220.265 189.135Z" fill="black"/>
</g>
<path d="M132.492 117.231C151.44 122.778 161.4 122.283 176.255 117.231" stroke="white" stroke-width="2" stroke-miterlimit="10" stroke-linecap="round"/>
<path d="M87.9884 136.667C81.941 150.22 81.2948 165.573 86.1817 179.587" stroke="white" stroke-width="2" stroke-miterlimit="10" stroke-linecap="round"/>
<path d="M155.269 222.275V335.661" stroke="white" stroke-width="2" stroke-miterlimit="10" stroke-linecap="round"/>
<path d="M90.7524 201.711C114.888 257.33 118.069 283.688 118.069 326.035" stroke="white" stroke-width="2" stroke-miterlimit="10" stroke-linecap="round"/>
<path d="M219.523 201.711C195.372 257.268 192.284 283.688 192.284 326.035" stroke="white" stroke-width="2" stroke-miterlimit="10" stroke-linecap="round"/>
<path d="M206.027 55.2466C205.959 60.4826 203.85 65.485 200.149 69.1877C196.448 72.8904 191.448 75.0007 186.215 75.0687C171.082 75.6558 165.785 69.4295 164.843 57.7804C163.963 46.8728 176.471 36.506 187.419 36.506C198.368 36.506 206.027 44.2927 206.027 55.2466Z" fill="white"/>
<path d="M105.562 55.2466C105.63 60.4852 107.741 65.4899 111.445 69.193C115.149 72.8962 120.153 75.0047 125.389 75.0687C140.522 75.6558 145.803 69.4295 146.745 57.7804C147.626 46.8728 135.117 36.506 124.185 36.506C113.252 36.506 105.562 44.2927 105.562 55.2466Z" fill="white"/>
<path d="M129.759 65.8452C134.415 65.8452 138.19 60.5121 138.19 53.9334C138.19 47.3546 134.415 42.0215 129.759 42.0215C125.102 42.0215 121.328 47.3546 121.328 53.9334C121.328 60.5121 125.102 65.8452 129.759 65.8452Z" fill="black"/>
<path d="M181.706 65.8452C186.362 65.8452 190.137 60.5121 190.137 53.9334C190.137 47.3546 186.362 42.0215 181.706 42.0215C177.049 42.0215 173.274 47.3546 173.274 53.9334C173.274 60.5121 177.049 65.8452 181.706 65.8452Z" fill="black"/>
<path d="M150.05 74.528C152.646 75.6043 154.816 77.5042 156.227 79.9354C157.289 77.536 159.196 75.6114 161.585 74.528" stroke="white" stroke-miterlimit="10" stroke-linecap="round"/>
</g>
<defs>
<pattern id="pattern0_105_56" patternContentUnits="objectBoundingBox" width="1" height="1">
<use xlink:href="#image0_105_56" transform="matrix(0.000269899 0 0 0.00142279 0.123907 -0.135987)"/>
</pattern>
<filter id="filter0_d_105_56" x="-3.00635" y="-0.893555" width="271.039" height="355.916" filterUnits="userSpaceOnUse" color-interpolation-filters="sRGB">
<feFlood flood-opacity="0" result="BackgroundImageFix"/>
<feColorMatrix in="SourceAlpha" type="matrix" values="0 0 0 0 0 0 0 0 0 0 0 0 0 0 0 0 0 0 127 0" result="hardAlpha"/>
<feOffset dy="2"/>
<feGaussianBlur stdDeviation="1.5"/>
<feComposite in2="hardAlpha" operator="out"/>
<feColorMatrix type="matrix" values="0 0 0 0 0.176471 0 0 0 0 0.164706 0 0 0 0 0.2 0 0 0 0.8 0"/>
<feBlend mode="normal" in2="BackgroundImageFix" result="effect1_dropShadow_105_56"/>
<feBlend mode="normal" in="SourceGraphic" in2="effect1_dropShadow_105_56" result="shape"/>
</filter>
<clipPath id="clip0_105_56">
<rect width="265" height="360" fill="white" transform="translate(0 0.0444336)"/>
</clipPath>
</defs>
</svg>
