<svg width="28" height="26" viewBox="0 0 28 26" fill="none" xmlns="http://www.w3.org/2000/svg">
<path d="M27.4168 7.75L14.0002 0.75L0.583496 7.75L14.0002 14.75C20.481 11.3725 19.8335 11.7633 19.8335 11.5942L13.7202 8.26333C13.584 8.18598 13.4842 8.05771 13.4426 7.90674C13.401 7.75577 13.4211 7.59448 13.4985 7.45833C13.5759 7.32219 13.7041 7.22235 13.8551 7.18078C14.0061 7.13921 14.1674 7.15931 14.3035 7.23667L20.7202 10.7367C21.3035 11.075 20.4052 11.4192 22.1902 10.4917L27.4168 7.75Z" fill="#2D2A33"/>
<path d="M14.0002 16.0667L5.8335 11.8317V15.915C5.8335 18.9717 14.6418 20.6459 19.8335 18.3592V13.0275L14.0002 16.0667ZM22.1668 15.915V11.8317L21.0002 12.415V17.7175C21.3247 17.5325 21.6001 17.2721 21.8031 16.9585C22.0062 16.6448 22.1309 16.287 22.1668 15.915ZM19.8335 13.0275L21.0002 12.415V11.2484C21.0002 11.0325 21.0935 11.05 19.8335 11.7092V13.0275ZM19.8335 21.9117C19.0577 22.3609 19.2502 23.0259 19.2502 25.2484H21.5835V22.915C21.5823 22.7114 21.5278 22.5117 21.4254 22.3357C21.3231 22.1597 21.1765 22.0135 21.0002 21.9117V17.7175C20.6346 17.9713 20.2436 18.1864 19.8335 18.3592V21.9117Z" fill="#2D2A33"/>
</svg>
