<svg width="18" height="10" viewBox="0 0 18 10" fill="none" xmlns="http://www.w3.org/2000/svg">
<path d="M8.42157 9.57911L1.29053 2.44806C1.15755 2.31509 1.05207 2.15722 0.980102 1.98347C0.908135 1.80973 0.871094 1.62351 0.871094 1.43545C0.871094 1.05565 1.02197 0.691407 1.29053 0.422847C1.42351 0.289869 1.58137 0.184385 1.75512 0.112418C1.92886 0.0404512 2.11508 0.00341126 2.30314 0.00341127C2.68294 0.00341129 3.04719 0.154286 3.31575 0.422847L9.43418 6.55554L15.5526 0.422847C15.6852 0.289171 15.8429 0.18307 16.0167 0.110663C16.1905 0.0382562 16.3769 0.00097724 16.5652 0.000977249C16.7535 0.000977257 16.9399 0.0382562 17.1137 0.110663C17.2875 0.18307 17.4452 0.289171 17.5778 0.422847C17.7115 0.555432 17.8176 0.713172 17.89 0.886969C17.9624 1.06077 17.9997 1.24718 17.9997 1.43546C17.9997 1.62373 17.9624 1.81015 17.89 1.98394C17.8176 2.15774 17.7115 2.31548 17.5778 2.44806L10.4468 9.57911C10.3142 9.71278 10.1565 9.81889 9.98267 9.89129C9.80887 9.9637 9.62246 10.001 9.43418 10.001C9.2459 10.001 9.05949 9.9637 8.88569 9.89129C8.7119 9.81889 8.55416 9.71278 8.42157 9.57911Z" fill="#2D2A33"/>
</svg>
