<svg width="23" height="22" viewBox="0 0 23 22" fill="none" xmlns="http://www.w3.org/2000/svg">
<g clip-path="url(#clip0_27_10490)">
<path d="M12.3833 9.48023C14.5152 9.24227 15.7006 10.4134 16.2592 11.6325C16.7674 12.7424 17.635 13.6543 18.7549 14.1347C19.4056 14.4135 19.9846 14.9649 20.1316 16.0233C20.3857 17.864 19.6216 19.718 17.3659 20.9069C16.315 21.4618 14.5922 20.1379 12.8455 20.3359C11.0748 20.5357 9.92393 22.2281 8.69954 21.9715C6.12328 21.4299 4.81391 19.9293 4.9892 17.7015C5.10163 16.2808 5.75765 15.4986 6.4659 15.0706C7.47384 14.4614 8.21935 13.4975 8.55701 12.3669C8.92618 11.1229 9.90268 9.75726 12.3833 9.48023Z" fill="#2D2A33"/>
<path d="M14.4817 7.55798C15.995 7.55798 17.2218 5.86607 17.2218 3.77899C17.2218 1.69191 15.995 0 14.4817 0C12.9685 0 11.7417 1.69191 11.7417 3.77899C11.7417 5.86607 12.9685 7.55798 14.4817 7.55798Z" fill="#2D2A33"/>
<path d="M20.1335 12.0233C21.4405 12.0233 22.5 10.5623 22.5 8.76018C22.5 6.95801 21.4405 5.49707 20.1335 5.49707C18.8266 5.49707 17.7671 6.95801 17.7671 8.76018C17.7671 10.5623 18.8266 12.0233 20.1335 12.0233Z" fill="#2D2A33"/>
<path d="M8.31932 8.64798C9.82904 8.2609 10.6227 6.25938 10.0921 4.17747C9.5614 2.09555 7.90736 0.721617 6.39764 1.1087C4.88793 1.49578 4.09425 3.4973 4.6249 5.57921C5.15556 7.66112 6.80961 9.03506 8.31932 8.64798Z" fill="#2D2A33"/>
<path d="M3.84786 14.4084C5.15814 14.0725 5.847 12.3354 5.38645 10.5286C4.92591 8.72178 3.49038 7.5294 2.18009 7.86535C0.86981 8.20129 0.18096 9.93836 0.641502 11.7452C1.10204 13.552 2.53758 14.7444 3.84786 14.4084Z" fill="#2D2A33"/>
</g>
<defs>
<clipPath id="clip0_27_10490">
<rect width="22" height="22" fill="white" transform="translate(0.5)"/>
</clipPath>
</defs>
</svg>
