<svg width="22" height="22" viewBox="0 0 22 22" fill="none" xmlns="http://www.w3.org/2000/svg">
<g clip-path="url(#clip0_209_626)">
<path d="M11.8833 9.48023C14.0152 9.24227 15.2006 10.4134 15.7592 11.6325C16.2674 12.7424 17.135 13.6543 18.2549 14.1347C18.9056 14.4135 19.4846 14.9649 19.6316 16.0233C19.8857 17.864 19.1216 19.718 16.8659 20.9069C15.815 21.4618 14.0922 20.1379 12.3455 20.3359C10.5748 20.5357 9.42393 22.2281 8.19954 21.9715C5.62328 21.4299 4.31391 19.9293 4.4892 17.7015C4.60163 16.2808 5.25765 15.4986 5.9659 15.0706C6.97384 14.4614 7.71935 13.4975 8.05701 12.3669C8.42618 11.1229 9.40268 9.75726 11.8833 9.48023Z" fill="#E00A0D"/>
<path d="M13.9817 7.55798C15.495 7.55798 16.7218 5.86607 16.7218 3.77899C16.7218 1.69191 15.495 0 13.9817 0C12.4685 0 11.2417 1.69191 11.2417 3.77899C11.2417 5.86607 12.4685 7.55798 13.9817 7.55798Z" fill="#E00A0D"/>
<path d="M19.6335 12.0223C20.9405 12.0223 22 10.5614 22 8.7592C22 6.95704 20.9405 5.49609 19.6335 5.49609C18.3266 5.49609 17.2671 6.95704 17.2671 8.7592C17.2671 10.5614 18.3266 12.0223 19.6335 12.0223Z" fill="#E00A0D"/>
<path d="M7.81932 8.647C9.32904 8.25992 10.1227 6.2584 9.59206 4.17649C9.0614 2.09457 7.40736 0.72064 5.89764 1.10772C4.38793 1.4948 3.59425 3.49632 4.1249 5.57823C4.65556 7.66015 6.30961 9.03408 7.81932 8.647Z" fill="#E00A0D"/>
<path d="M3.34786 14.4075C4.65814 14.0715 5.347 12.3345 4.88645 10.5276C4.42591 8.72081 2.99038 7.52842 1.68009 7.86437C0.36981 8.20032 -0.31904 9.93738 0.141502 11.7442C0.602043 13.551 2.03758 14.7434 3.34786 14.4075Z" fill="#E00A0D"/>
</g>
<defs>
<clipPath id="clip0_209_626">
<rect width="22" height="22" fill="white"/>
</clipPath>
</defs>
</svg>
