<svg width="85" height="79" viewBox="0 0 85 79" fill="none" xmlns="http://www.w3.org/2000/svg">
<g clip-path="url(#clip0_214_762)">
<path d="M10.8683 25.668L11.2934 26.2856C11.2891 26.4104 11.3182 26.534 11.3779 26.6437C11.4375 26.7534 11.5254 26.8452 11.6325 26.9095L11.7879 27.016C23.2157 43.9998 37.949 59.3509 52.176 74.0125C52.1135 74.287 52.1464 74.5746 52.2694 74.8279C52.3923 75.0812 52.598 75.2851 52.8524 75.4059L54.5398 76.2526C54.7334 76.3199 54.9409 76.3375 55.1431 76.3039C55.3453 76.2702 55.5358 76.1864 55.6972 76.0599C55.8585 75.9335 55.9855 75.7686 56.0665 75.5803C56.1476 75.3921 56.18 75.1865 56.161 74.9824C57.2452 70.0998 59.1111 65.4245 61.6865 61.1373C61.7105 61.1163 61.7288 61.0896 61.7397 61.0596C61.7967 61.0765 61.8571 61.0785 61.9151 61.0656C62.0216 61.1008 62.1372 61.0969 62.2411 61.0544C62.345 61.012 62.4303 60.9339 62.4816 60.8341C66.227 58.9896 69.8712 56.9465 73.3987 54.7136C73.5218 54.6391 73.6276 54.5392 73.7089 54.4206C73.7903 54.3019 73.8453 54.1672 73.8703 54.0255C73.9305 54.0114 73.9859 53.9816 74.0308 53.9391C74.0758 53.8967 74.1086 53.843 74.1261 53.7837C74.1435 53.7243 74.145 53.6615 74.1302 53.6014C74.1154 53.5413 74.085 53.4863 74.042 53.4418C72.9569 52.1939 71.761 51.0466 70.4691 50.0142C70.3525 49.9475 70.2166 49.9224 70.0838 49.9432C69.9511 49.9639 69.8293 50.0292 69.7386 50.1284C69.6479 50.2275 69.5935 50.3545 69.5846 50.4886C69.5757 50.6227 69.6126 50.7558 69.6894 50.8661C70.4764 51.6639 71.3313 52.3918 72.2444 53.0415C70.6913 53.0698 69.1769 52.9942 67.6439 52.922C71.4188 47.9589 74.8844 42.7679 78.0208 37.3785C78.7222 37.4025 78.7054 36.3797 78.0649 36.2669C56.0284 31.9275 33.872 28.501 11.9476 23.5697C10.5153 23.2077 9.7961 25.1614 10.8683 25.668ZM65.4346 54.36C66.8117 54.6878 68.223 54.8503 69.6385 54.8438C67.0088 56.3538 64.4645 58.0077 62.0171 59.798C51.1612 50.8512 39.7864 42.5533 27.9522 34.9477C40.0217 41.7364 52.4434 48.1304 64.916 53.7599C64.9234 53.9033 64.9784 54.0402 65.0723 54.1489C65.1662 54.2576 65.2937 54.3319 65.4346 54.36ZM76.717 37.1861C72.7606 42.1449 69.1295 47.3548 65.8466 52.783C50.6562 44.0018 35.0264 35.7188 19.4537 27.6381C38.3165 31.7758 57.4871 35.4882 76.717 37.1861ZM60.8419 60.3463C57.7478 64.0132 55.6719 68.4289 54.8221 73.1511C41.7213 59.441 29.8885 44.6426 17.2252 30.5799C31.9339 40.2542 46.4579 50.0791 60.8308 60.3387L60.8419 60.3463Z" fill="#2D2A33"/>
<path d="M62.1636 37.5166C64.9281 38.1812 67.7278 38.6898 70.5494 39.04C71.0187 39.117 71.1817 38.3316 70.7242 38.2137C67.9795 37.4654 65.1979 36.86 62.3906 36.3999C62.2546 36.3963 62.1217 36.4408 62.0153 36.5255C61.9088 36.6101 61.8356 36.7296 61.8085 36.8629C61.7814 36.9962 61.8022 37.1348 61.8671 37.2543C61.932 37.3738 62.037 37.4667 62.1636 37.5166Z" fill="#2D2A33"/>
<path d="M62.2596 39.95L64.1205 40.0675C64.9744 40.1308 65.8319 40.2129 66.6817 40.306C67.1551 40.3532 67.3368 39.5644 66.8529 39.4611C66.0453 39.2826 65.237 39.1527 64.4323 39.0415C64.3567 39.0001 64.2729 38.976 64.1868 38.9711L62.3112 38.8273C62.172 38.8357 62.0407 38.8952 61.9427 38.9946C61.8448 39.0939 61.787 39.226 61.7806 39.3653C61.7742 39.5047 61.8196 39.6415 61.908 39.7495C61.9964 39.8574 62.1217 39.9288 62.2596 39.95Z" fill="#2D2A33"/>
<path d="M40.7 56.4063C41.3293 57.418 42.0725 58.3543 42.9149 59.1968C43.7716 60.2081 44.609 61.2715 45.5564 62.1981C45.6105 62.2612 45.6875 62.3002 45.7704 62.3065C45.8532 62.3128 45.9352 62.286 45.9983 62.2319C46.0613 62.1778 46.1003 62.1008 46.1066 62.0179C46.1129 61.9351 46.086 61.8531 46.0319 61.7901C45.2922 60.6795 44.4167 59.6717 43.5904 58.6159C42.9183 57.6318 42.1387 56.7254 41.2661 55.9136C41.195 55.8672 41.1107 55.8454 41.0261 55.8513C40.9414 55.8571 40.861 55.8905 40.7969 55.9462C40.7329 56.0019 40.6888 56.0769 40.6713 56.1599C40.6538 56.243 40.6639 56.3295 40.7 56.4063Z" fill="#2D2A33"/>
<path d="M41.2925 54.7564C42.6903 56.6853 44.1956 58.534 45.8013 60.2937C45.8641 60.3444 45.9425 60.3718 46.0232 60.3713C46.1039 60.3708 46.182 60.3424 46.2442 60.291C46.3063 60.2395 46.3487 60.1681 46.3643 60.0889C46.3798 60.0097 46.3675 59.9276 46.3294 59.8564C45.0271 57.8686 43.6161 55.954 42.1031 54.1213C42.0188 54.0138 41.8953 53.9442 41.7597 53.9277C41.6242 53.9113 41.4876 53.9493 41.3801 54.0336C41.2726 54.1178 41.203 54.2413 41.1866 54.3768C41.1701 54.5124 41.2082 54.6489 41.2925 54.7564Z" fill="#2D2A33"/>
</g>
<defs>
<clipPath id="clip0_214_762">
<rect width="70.2475" height="47.6117" fill="white" transform="translate(58.0815 78.9883) rotate(-145.571)"/>
</clipPath>
</defs>
</svg>
