<svg width="55" height="55" viewBox="0 0 55 55" fill="none" xmlns="http://www.w3.org/2000/svg">
<path d="M27.5 55C42.6878 55 55 42.6878 55 27.5C55 12.3122 42.6878 0 27.5 0C12.3122 0 0 12.3122 0 27.5C0 42.6878 12.3122 55 27.5 55Z" fill="white"/>
<path d="M11.7942 26.8417C11.7942 26.8417 25.55 21.1986 30.316 19.2137C32.1509 18.4174 38.3941 15.8671 38.3941 15.8671C38.3941 15.8671 41.256 14.7131 41.0252 17.4596C40.9444 18.6136 40.3097 22.468 39.675 26.6917C38.7172 32.6579 37.6786 39.178 37.6786 39.178C37.6786 39.178 37.5286 41.0129 36.1668 41.3245C34.8051 41.6361 32.5894 40.1705 32.1971 39.8935C31.8047 39.6166 26.2308 36.0853 24.119 34.3312C23.9086 34.1894 23.7376 33.9965 23.622 33.7706C23.5064 33.5447 23.45 33.2931 23.458 33.0395C23.4661 32.7858 23.5384 32.5384 23.6681 32.3203C23.7978 32.1022 23.9808 31.9205 24.1998 31.7924C27.0617 29.1612 30.4776 25.9069 32.5433 23.8297C33.5011 22.8834 34.4589 20.6562 30.4776 23.3566C24.8345 27.2571 19.2606 30.9153 19.2606 30.9153C18.6886 31.1774 18.069 31.3198 17.4399 31.3337C16.8108 31.3475 16.1855 31.2327 15.6024 30.9961C13.2252 30.2806 10.444 29.3228 10.444 29.3228C10.444 29.3228 8.52836 28.1688 11.7942 26.8532V26.8417Z" fill="#2D2A33"/>
</svg>
