<svg width="55" height="55" viewBox="0 0 55 55" fill="none" xmlns="http://www.w3.org/2000/svg">
<path d="M27.5 55C42.6878 55 55 42.6878 55 27.5C55 12.3122 42.6878 0 27.5 0C12.3122 0 0 12.3122 0 27.5C0 42.6878 12.3122 55 27.5 55Z" fill="white"/>
<path d="M40.852 24.0049C40.852 22.4501 40.2343 20.959 39.1349 19.8596C38.0355 18.7602 36.5444 18.1426 34.9896 18.1426H19.9875C18.4347 18.1456 16.9466 18.7646 15.8497 19.8637C14.7528 20.9628 14.1367 22.4521 14.1367 24.0049V31.0444C14.1367 32.5972 14.7528 34.0865 15.8497 35.1856C16.9466 36.2847 18.4347 36.9037 19.9875 36.9067H34.9896C36.5444 36.9067 38.0355 36.2891 39.1349 35.1897C40.2343 34.0903 40.852 32.5992 40.852 31.0444V24.0049ZM32.0469 28.0209L25.3191 31.3444C25.0536 31.4829 24.165 31.3444 24.165 30.9982V24.1203C24.165 23.8203 25.0652 23.6356 25.3191 23.7857L31.7469 27.2477C32.0354 27.4785 32.3123 27.8709 32.0469 28.0209Z" fill="#2D2A33"/>
</svg>
