<svg width="26" height="25" viewBox="0 0 26 25" fill="none" xmlns="http://www.w3.org/2000/svg">
<path fill-rule="evenodd" clip-rule="evenodd" d="M18.8908 25.0016C17.0877 24.9352 11.9778 24.229 6.62628 18.8787C1.27599 13.5272 0.571048 8.41854 0.503433 6.61424C0.403264 3.86459 2.50932 1.19382 4.94219 0.15081C5.23515 0.0243048 5.55598 -0.0238596 5.87317 0.0110432C6.19037 0.0459459 6.49305 0.162716 6.75149 0.349896C8.75488 1.80986 10.1372 4.0186 11.3242 5.75528C11.5854 6.13684 11.6971 6.60115 11.638 7.05973C11.5788 7.51832 11.3531 7.93913 11.0037 8.24199L8.5608 10.0563C8.44278 10.1415 8.3597 10.2667 8.327 10.4086C8.2943 10.5504 8.3142 10.6993 8.383 10.8276C8.93644 11.8331 9.9206 13.3306 11.0475 14.4575C12.1744 15.5844 13.7433 16.6337 14.8189 17.2497C14.9537 17.3254 15.1125 17.3466 15.2625 17.3088C15.4124 17.2711 15.5423 17.1774 15.6252 17.0469L17.2154 14.6265C17.5078 14.2382 17.9391 13.978 18.4189 13.9005C18.8988 13.823 19.3901 13.9342 19.7898 14.2108C21.5515 15.4304 23.6075 16.7889 25.1125 18.7159C25.3149 18.9763 25.4436 19.2862 25.4853 19.6133C25.5269 19.9404 25.4799 20.2726 25.3492 20.5753C24.3012 23.0207 21.6492 25.103 18.8908 25.0016Z" fill="#2D2A33"/>
</svg>
