<svg width="199" height="125" viewBox="0 0 199 125" fill="none" xmlns="http://www.w3.org/2000/svg">
<g clip-path="url(#clip0_102_497)">
<path d="M172.151 4.13685C160.086 0.675098 132.073 4.55222 126.387 18.9185C111.825 0.12118 85.6149 -3.92907 64.3969 5.07149C64.0535 5.19028 63.7688 5.43584 63.6011 5.75775C63.4335 6.07966 63.3957 6.45348 63.4955 6.80236C63.2361 7.11735 63.0788 7.50376 63.0448 7.91015C62.6068 14.6065 62.8041 21.3291 63.6342 27.9883C57.7749 17.603 49.7662 7.49468 39.7813 5.14068C-1.16392 -4.58684 -1.37194 89.5383 1.64435 110.897C1.66384 111.132 1.73645 111.36 1.85675 111.562C1.97705 111.765 2.14191 111.938 2.33885 112.068C2.53579 112.198 2.7597 112.282 2.99372 112.313C3.22774 112.344 3.46576 112.321 3.68986 112.247C6.77549 119.517 16.3097 121.802 23.3477 118.098C33.7487 112.663 36.2103 100.097 34.2688 89.5037C34.6432 88.1593 35.4157 86.9592 36.485 86.0609C37.5543 85.1625 38.8706 84.6077 40.2612 84.4692C41.6517 84.3307 43.0518 84.6151 44.2777 85.2849C45.5037 85.9547 46.4983 86.9787 47.1313 88.2228C51.0837 94.8347 46.8539 101.793 45.7445 108.509C45.6552 108.917 45.7058 109.344 45.888 109.721C46.0703 110.097 46.3738 110.402 46.7499 110.586C46.3983 113.102 46.7962 115.667 47.894 117.959C49.9396 121.213 55.9028 123.152 59.4391 123.879C63.7651 124.784 68.2487 124.6 72.4855 123.343C76.7224 122.086 80.5792 119.796 83.7081 116.678C83.7081 116.678 83.708 116.471 83.9507 116.367C84.1497 116.639 84.3964 116.874 84.6788 117.059C99.8643 127.237 128.294 122.425 140.879 107.712C151.522 116.298 168.303 114.636 179.016 107.055C192.884 97.1195 194.548 81.8532 195.172 65.9984C195.148 65.6081 195.019 65.2314 194.799 64.9079C194.579 64.5844 194.275 64.326 193.921 64.1596C193.567 63.9933 193.174 63.9251 192.784 63.9624C192.394 63.9996 192.021 64.1409 191.705 64.3713C191.853 63.9809 191.841 63.548 191.673 63.166C191.504 62.784 191.192 62.4834 190.803 62.3289C183.809 60.6151 176.609 59.881 169.412 60.148C169.12 60.1192 168.826 60.1513 168.547 60.2422C168.268 60.3332 168.012 60.481 167.793 60.6763C167.575 60.8716 167.399 61.1101 167.278 61.3767C167.157 61.6434 167.093 61.9323 167.089 62.2251C166.762 62.3924 166.5 62.6631 166.343 62.995C166.186 63.3269 166.144 63.7013 166.223 64.0598C166.549 66.3008 166.056 68.5842 164.833 70.4916C163.611 72.399 161.741 73.8026 159.566 74.4451C153.776 75.7259 150.517 70.1178 149.546 65.4445C149.552 65.3292 149.552 65.2136 149.546 65.0983C148.957 59.8224 149.062 54.4922 149.858 49.2435C150.282 45.7215 151.728 42.4002 154.019 39.689C160.502 33.2155 169.62 39.689 168.337 47.8934C168.303 48.1344 168.303 48.3792 168.337 48.6203C167.974 48.8391 167.696 49.1747 167.549 49.5719C167.401 49.9692 167.393 50.4046 167.526 50.8069C167.659 51.2092 167.925 51.5546 168.28 51.7862C168.636 52.0179 169.059 52.1222 169.482 52.0821C177.456 52.5321 188.203 52.0821 195.137 47.651C195.383 47.4711 195.589 47.2434 195.744 46.9816C195.899 46.7199 195.999 46.4294 196.039 46.1278C196.554 46.11 197.047 45.9137 197.432 45.5726C197.818 45.2315 198.073 44.7669 198.154 44.2586C199.415 35.5615 197.475 26.7027 192.694 19.3249C187.912 11.9471 180.614 6.55092 172.151 4.13685ZM59.9939 118.582C56.5269 117.855 52.8172 116.644 51.8117 112.974C51.3569 110.786 51.0901 108.562 51.0143 106.328C55.14 97.2926 55.1747 83.861 44.4964 80.0531C41.7604 79.1856 38.7927 79.425 36.2317 80.7198C33.6707 82.0146 31.7209 84.2612 30.8018 86.9766C30.2264 87.0779 29.7091 87.389 29.3504 87.8495C28.9917 88.31 28.817 88.8872 28.8602 89.469C29.4843 97.0849 29.727 105.255 23.7637 111.036C22.5359 112.277 21.0505 113.235 19.4121 113.842C17.7737 114.448 16.0221 114.689 14.2804 114.547C12.5388 114.405 10.8495 113.884 9.33124 113.02C7.81301 112.156 6.50278 110.971 5.49271 109.547C6.81017 91.4768 6.77549 73.6835 10.0345 55.7516C11.3669 47.1014 13.3841 38.5702 16.0671 30.2384C18.7944 16.9453 28.5135 11.8565 45.2244 14.9721C47.6849 17.2825 49.893 19.8471 51.8117 22.6226C71.8163 48.4127 75.6993 82.3725 78.4729 113.805C75.9666 115.964 72.9961 117.518 69.7916 118.347C66.5871 119.175 63.2346 119.256 59.9939 118.582ZM136.268 103.731C124.827 116.159 102.152 119.275 87.3831 112.905C86.9782 112.715 86.5297 112.638 86.0844 112.68C85.6392 112.723 85.2136 112.884 84.8522 113.147C82.98 89.9883 80.3798 66.4138 71.643 44.7086C70.7762 42.5623 69.7361 40.1391 68.592 37.5774C69.461 27.7638 69.1117 17.8805 67.5519 8.1525C84.2628 4.34457 101.598 4.69074 115.466 16.0453C124.307 23.3496 131.795 35.3964 125.035 46.6817C120.736 53.8129 112.172 57.0671 105.377 61.3596C105.031 61.5758 104.741 61.8701 104.53 62.2189C104.319 62.5677 104.194 62.9611 104.163 63.3674C103.756 63.583 103.432 63.9277 103.242 64.3472C103.052 64.7668 103.007 65.2375 103.115 65.6852C103.222 66.133 103.475 66.5325 103.834 66.821C104.193 67.1095 104.638 67.2707 105.099 67.2792C114.287 67.6946 123.752 68.7678 131.345 74.4451C140.428 81.2301 144.762 94.3501 136.164 103.731H136.268ZM172.532 47.8934C174.37 36.9888 162.339 27.746 152.493 34.8079C143.548 41.1776 143.202 55.5785 145.802 66.2407C144.693 73.7527 152.736 80.5031 159.947 79.3261C163.142 78.7424 165.981 76.9349 167.86 74.2896C169.738 71.6444 170.507 68.3707 170.002 65.1675C176.902 66.127 183.903 66.127 190.803 65.1675C191.012 65.1675 191.081 64.9944 191.22 64.8906C191.107 65.0519 191.013 65.2263 190.942 65.4098C186.955 77.3183 190.11 89.3306 180.16 99.2312C169.169 110.17 156.411 108.716 142.959 105.22C143.746 104.125 144.442 102.967 145.039 101.758C155.44 79.7415 133.494 65.7907 114.114 63.4021C130.096 54.6784 139.839 39.1698 128.398 21.861C136.51 11.7873 155.752 6.66388 167.124 8.84478C175.068 10.2394 182.17 14.6356 186.954 21.1204C191.738 27.6053 193.836 35.6807 192.814 43.67C192.798 43.7964 192.798 43.9245 192.814 44.0509C189.347 44.5701 186.227 45.7817 182.899 46.474C179.437 47.1353 175.942 47.6091 172.428 47.8934H172.532Z" fill="white"/>
<path d="M44.3576 47.928C42.4898 47.5083 40.5553 47.4791 38.6757 47.8426C36.7962 48.206 35.0123 48.954 33.4366 50.0396C32.5475 50.7324 31.8643 51.654 31.4603 52.7053C30.4521 54.9095 30.1608 57.3736 30.6271 59.7516C31.0935 62.1297 32.2942 64.302 34.0606 65.9637C35.2747 66.9727 36.703 67.6922 38.2371 68.0679C39.7711 68.4435 41.3708 68.4653 42.9146 68.1317C44.4583 67.798 45.9057 67.1177 47.1469 66.1423C48.3881 65.1668 49.3906 63.9219 50.0781 62.502C50.8608 61.2062 51.3344 59.748 51.4624 58.2403C51.5904 56.7325 51.3694 55.2156 50.8164 53.8068C50.2634 52.398 49.3933 51.135 48.2733 50.1156C47.1534 49.0962 45.8136 48.3478 44.3576 47.928ZM45.7097 60.2865C45.3408 61.1612 44.7656 61.9337 44.0331 62.5384C43.3005 63.1431 42.4323 63.5619 41.5025 63.7591C40.5728 63.9564 39.6091 63.9262 38.6936 63.6711C37.7781 63.4161 36.9379 62.9437 36.2448 62.2943C34.8079 60.7505 34.0037 58.7245 33.9913 56.6171C35.1701 55.3708 35.7248 53.9169 37.4583 53.1553C38.8124 52.4923 40.3276 52.2281 41.8267 52.3937C42.7387 52.449 43.6194 52.7463 44.3777 53.2551C45.1361 53.764 45.7446 54.4658 46.1404 55.2881C46.5363 56.1103 46.7051 57.0231 46.6293 57.9322C46.5536 58.8414 46.2361 59.7139 45.7097 60.4596V60.2865Z" fill="white"/>
<path d="M96.6746 85.2456C96.3414 85.1931 96.0002 85.2331 95.6884 85.3613C95.3765 85.4895 95.1059 85.701 94.9064 85.9726C94.5927 86.2271 94.3509 86.559 94.205 86.9354C94.059 87.3118 94.014 87.7197 94.0744 88.1188C93.4437 92.1298 93.9729 96.2372 95.5998 99.9581C95.7404 100.374 96.0209 100.73 96.3937 100.963C96.7665 101.196 97.2087 101.294 97.6454 101.239C97.708 101.406 97.8155 101.553 97.9562 101.663C98.0969 101.772 98.2653 101.841 98.4428 101.862C105.689 103.177 116.956 101.862 119.245 93.4846C122.4 83.1686 103.505 83.4455 96.6746 85.2456ZM114.356 94.0385C111.375 98.9542 104.267 98.9888 99.2055 99.2657C99.2224 99.1742 99.2224 99.0803 99.2055 98.9888C98.6544 95.8349 98.4105 92.6351 98.4774 89.4343C101.276 88.6782 104.187 88.4204 107.076 88.6727C109.988 88.9843 116.991 89.7459 114.356 94.0385Z" fill="white"/>
<path d="M90.5724 26.6036C90.3791 26.5037 90.1635 26.4545 89.946 26.4608C89.7284 26.467 89.516 26.5284 89.3288 26.6392C89.1415 26.75 88.9856 26.9065 88.8756 27.0941C88.7657 27.2817 88.7053 27.4941 88.7003 27.7114C88.7003 27.9537 88.7003 28.196 88.7003 28.4383C88.5137 28.7464 88.415 29.0996 88.415 29.4596C88.415 29.8196 88.5137 30.1727 88.7003 30.4807L89.0123 35.708C88.9786 38.1496 89.2819 40.5842 89.9137 42.9431C90.0911 43.3067 90.386 43.6001 90.7508 43.776C91.1156 43.9518 91.5291 43.9999 91.9246 43.9124C97.9918 47.7549 107.699 41.3506 107.179 34.254C106.868 32.4864 106.132 30.8205 105.035 29.3986C103.939 27.9768 102.513 26.8413 100.881 26.0894C99.2489 25.3375 97.4587 24.9916 95.6634 25.0812C93.8682 25.1707 92.1214 25.6931 90.5724 26.6036ZM99.1359 40.1737C98.2333 40.6771 97.2293 40.9724 96.1975 41.0383C95.1657 41.1042 94.1322 40.9389 93.1727 40.5545C93.0503 37.359 92.6208 34.1827 91.8899 31.0693L92.1326 30.8961C95.4262 28.0229 102.36 29.7191 102.811 34.5656C102.806 35.7548 102.456 36.917 101.804 37.9121C101.152 38.9072 100.225 39.6927 99.1359 40.1737Z" fill="white"/>
<path d="M174.578 34.704C173.467 32.2555 171.689 30.1682 169.447 28.6806C167.35 26.9201 165.016 25.4634 162.513 24.3534C161.264 23.8341 160.155 25.5649 161.438 26.2227C163.674 27.4019 165.739 28.8812 167.574 30.6192C169.239 32.3154 170.313 34.7386 172.081 36.1925C172.329 36.3852 172.63 36.4985 172.944 36.5177C173.257 36.5369 173.569 36.4612 173.839 36.3003C174.109 36.1394 174.324 35.901 174.456 35.6161C174.587 35.3313 174.63 35.0134 174.578 34.704Z" fill="white"/>
<path d="M167.297 21.3763C166.188 21.3763 165.252 22.761 166.465 23.3149C168.569 24.148 170.437 25.4828 171.905 27.2026C173.374 28.9223 174.399 30.9748 174.89 33.1809C175.445 35.3272 178.6 34.3925 178.357 32.2462C177.747 29.5684 176.381 27.1213 174.421 25.1948C172.46 23.2683 169.988 21.9431 167.297 21.3763Z" fill="white"/>
<path d="M124.098 94.7309C123.107 96.6864 121.767 98.4458 120.146 99.9235C118.275 101.342 115.977 102.087 113.628 102.035C113.306 102.035 112.998 102.163 112.77 102.39C112.542 102.617 112.415 102.925 112.415 103.247C112.415 103.568 112.542 103.876 112.77 104.104C112.998 104.331 113.306 104.458 113.628 104.458C119.002 104.943 126.248 101.412 126.941 95.4925C127.149 93.8655 124.861 93.6231 124.098 94.7309Z" fill="white"/>
<path d="M129.126 97.0155C126.352 99.3822 123.841 102.04 121.637 104.943C121.474 105.171 121.398 105.45 121.423 105.73C121.447 106.009 121.571 106.271 121.772 106.467C121.973 106.663 122.237 106.782 122.518 106.801C122.798 106.819 123.076 106.738 123.301 106.57C126.22 104.397 128.904 101.926 131.31 99.1965C132.246 97.9156 130.408 96.1155 129.126 97.0155Z" fill="white"/>
<path d="M33.0899 40.5891C31.439 40.5674 29.8047 40.9208 28.3109 41.6228C26.817 42.3248 25.5026 43.3568 24.4671 44.6409C23.4316 45.9249 22.7023 47.4272 22.3341 49.0343C21.966 50.6413 21.9688 52.3109 22.3422 53.9167C22.6543 54.9207 24.3531 54.7823 24.2491 53.6745C24.138 52.4501 24.2843 51.216 24.6786 50.0513C25.0729 48.8867 25.7064 47.8171 26.5387 46.9112C27.371 46.0052 28.3837 45.2827 29.5118 44.7901C30.6399 44.2976 31.8586 44.0458 33.0899 44.0508C33.5496 44.0508 33.9906 43.8684 34.3157 43.5438C34.6408 43.2192 34.8234 42.779 34.8234 42.32C34.8234 41.8609 34.6408 41.4206 34.3157 41.096C33.9906 40.7714 33.5496 40.5891 33.0899 40.5891Z" fill="white"/>
<path d="M26.4677 33.4925C24.8383 34.3925 23.3474 35.535 21.8219 36.5735C20.3703 37.4595 18.9803 38.4426 17.6616 39.516C17.5071 39.6752 17.4098 39.8809 17.3848 40.1012C17.3598 40.3214 17.4085 40.5437 17.5233 40.7334C17.6381 40.9232 17.8125 41.0697 18.0194 41.15C18.2263 41.2303 18.454 41.24 18.667 41.1776C20.2339 40.5392 21.7519 39.7872 23.2088 38.9275H23.5901C23.8592 39.1756 24.2119 39.3135 24.5782 39.3135C24.9444 39.3135 25.2973 39.1756 25.5663 38.9275L28.4439 36.2965C28.8163 36.0348 29.0694 35.6362 29.1474 35.1883C29.2254 34.7403 29.122 34.2797 28.8599 33.9079C28.5979 33.536 28.1986 33.2834 27.75 33.2055C27.3014 33.1276 26.8401 33.2308 26.4677 33.4925Z" fill="white"/>
</g>
<defs>
<clipPath id="clip0_102_497">
<rect width="198" height="124" fill="white" transform="translate(0.5 0.501953)"/>
</clipPath>
</defs>
</svg>
