<svg width="191" height="139" viewBox="0 0 191 139" fill="none" xmlns="http://www.w3.org/2000/svg">
<g clip-path="url(#clip0_102_511)">
<path d="M51.8375 90.0434C51.7154 88.8892 51.7523 87.7238 51.9471 86.5797C52.139 84.3806 52.4405 81.1918 52.8653 77.2471C53.7013 69.3851 54.8799 58.4993 56.6889 46.5414C58.1664 36.307 60.244 26.1687 62.9108 16.1794C63.966 12.3584 64.9254 9.3071 65.6517 7.20416C65.9749 6.08834 66.4352 5.01717 67.0222 4.01538C67.2962 4.11159 65.9395 8.81226 64.1442 16.4955C62.3489 24.1788 60.2658 34.8859 58.4705 46.8163C56.6752 58.7467 55.291 69.5775 54.1262 77.412C53.5506 81.3292 53.0435 84.5042 52.6461 86.6759C52.5246 87.829 52.2528 88.9612 51.8375 90.0434Z" fill="#2D2A33"/>
<path d="M173.808 103.843C173.428 104.047 173.015 104.182 172.588 104.242C171.397 104.443 170.192 104.553 168.984 104.572C164.568 104.561 160.157 104.291 155.773 103.761L146.714 102.73C143.452 102.345 140.026 102.015 136.353 101.85L112.412 100.214L106.162 99.7472L100.077 99.1836C96.0895 98.7988 92.2248 98.4139 88.5657 97.8916C84.9066 97.3693 81.4256 96.7096 78.2187 95.9261C75.0118 95.1427 72.0791 94.2905 69.4067 93.562C65.2124 92.3297 60.9139 91.4877 56.5655 91.0468C53.482 90.7856 51.7689 91.0468 51.7552 90.8681C51.7415 90.6894 52.1664 90.7031 52.9749 90.552C54.1735 90.3852 55.3831 90.3117 56.5929 90.332C61.0239 90.516 65.4217 91.1843 69.7082 92.325L78.5613 94.4692C81.7271 95.1702 85.1532 95.7749 88.785 96.2285C92.4167 96.6821 96.2539 97.0532 100.242 97.4105L106.327 97.9604L112.603 98.4139L136.463 100.173C140.15 100.393 143.685 100.792 146.92 101.245L155.951 102.482C161.433 103.238 165.928 103.733 169.025 103.857C170.56 103.857 171.766 103.857 172.575 103.857C173.383 103.857 173.781 103.774 173.808 103.843Z" fill="#2D2A33"/>
<path d="M174.233 104.736C174.528 104.084 174.886 103.463 175.302 102.881C176.236 101.076 176.967 99.1717 177.481 97.2043C178.287 94.0855 178.828 90.9037 179.098 87.693C179.468 83.927 179.591 79.6249 179.783 74.828C179.783 72.4364 180.153 69.8662 180.482 67.3096C180.811 64.7531 181.099 62.0317 181.387 59.2415C181.976 53.6612 182.497 47.6685 183.072 41.3734C183.374 38.2305 183.684 35.0234 184.004 31.7521C184.43 28.4534 184.581 25.1249 184.456 21.801C184.39 20.1614 184.067 18.5424 183.497 17.0041C182.905 15.5189 181.878 14.2489 180.551 13.3618C179.867 12.9051 179.142 12.5139 178.385 12.1934C177.582 11.8891 176.763 11.6276 175.932 11.41C174.214 10.9663 172.47 10.6312 170.711 10.4067C167.161 9.8981 163.557 9.60946 160.035 9.19712L149.647 8.02881C142.795 7.2866 136.244 6.55812 129.994 6.04957C117.441 5.0737 106.107 4.05661 96.6102 3.23193C94.2256 3.01201 92.0054 2.84709 89.7579 2.59968C87.5103 2.35228 85.6465 1.93993 83.7416 1.6513C80.5768 1.0758 77.3646 0.80426 74.1484 0.840365C72.1399 0.776724 70.1572 1.3073 68.4473 2.366C67.9017 2.80159 67.4136 3.30502 66.9946 3.86417C66.9946 3.86417 66.9946 3.68548 67.1728 3.34187C67.4378 2.85859 67.7911 2.42966 68.2143 2.07738C69.9312 0.83502 71.9902 0.15785 74.1073 0.139372C77.3731 -0.0294965 80.6477 0.140922 83.8786 0.647919C85.7561 0.895323 87.7707 1.21145 89.8812 1.45885C91.9917 1.70625 94.2667 1.775 96.6239 1.95368L130.049 4.38648C136.353 4.85379 142.945 5.54102 149.77 6.26949L160.172 7.39656C163.68 7.80891 167.243 8.08381 170.903 8.6061C172.751 8.84106 174.582 9.19455 176.384 9.66443C177.285 9.90061 178.173 10.1851 179.043 10.5166C179.925 10.884 180.766 11.3447 181.551 11.8911C183.162 12.985 184.412 14.5353 185.142 16.3444C185.773 18.0649 186.133 19.8732 186.211 21.7048C186.328 25.1308 186.159 28.5608 185.704 31.9583C185.375 35.2387 185.046 38.4458 184.717 41.5796C184.1 47.8609 183.511 53.8536 182.867 59.4477C182.538 62.1966 182.209 64.9456 181.853 67.5296C181.459 69.9839 181.19 72.4565 181.044 74.938C180.77 79.7074 180.564 84.0507 180.085 87.8442C179.737 91.1052 179.086 94.3264 178.139 97.4655C177.544 99.4585 176.687 101.363 175.59 103.128C175.205 103.719 174.75 104.259 174.233 104.736Z" fill="#2D2A33"/>
<path d="M1.19895 116.681C1.01986 115.885 0.905277 115.076 0.856332 114.262C0.655552 113.297 0.536342 112.318 0.5 111.334C0.532742 110.626 0.704537 109.931 1.00556 109.289C1.30658 108.648 1.7309 108.072 2.25418 107.595C3.51725 106.563 4.96332 105.78 6.51632 105.286C8.09235 104.681 9.8054 104.173 11.6007 103.664C13.396 103.156 15.3009 102.661 17.1647 102.07C18.0007 101.795 19.0286 101.314 20.0016 100.943C20.9746 100.572 22.0025 100.201 23.0303 99.8708C27.1417 98.4964 31.1297 97.5205 34.7203 96.5584C38.3109 95.5962 41.5726 94.7303 44.1627 93.8094C49.4801 92.0776 52.454 90.2908 52.6048 90.5245C52.7555 90.7581 49.8638 92.9435 44.6013 95.0052C41.9563 96.0636 38.7357 97.0944 35.1588 98.139C31.582 99.1836 27.635 100.214 23.5922 101.548C15.8354 105.094 7.35228 105.52 3.11758 108.489C2.22795 109.198 1.65208 110.23 1.51417 111.361C1.4599 112.277 1.4599 113.195 1.51417 114.11C1.6101 115.828 1.29488 116.708 1.19895 116.681Z" fill="#2D2A33"/>
<path d="M131.872 130.15C131.721 129.972 133.763 128.02 137.738 126.027C139.697 124.982 142.109 123.91 144.713 122.673C147.521 121.342 150.208 119.769 152.744 117.973C158.226 114.152 163.009 110.331 166.873 108.104C170.738 105.877 173.397 105.039 173.479 105.259C173.561 105.479 171.136 106.633 167.559 109.19C163.982 111.746 159.336 115.554 153.772 119.457C151.155 121.317 148.353 122.901 145.412 124.185L138.286 127.182C134.27 128.831 132.036 130.357 131.872 130.15Z" fill="#2D2A33"/>
<path d="M131.653 129.697C129.976 129.74 128.298 129.643 126.637 129.408C123.416 129.133 118.757 128.748 113.001 128.322C107.245 127.896 100.365 127.415 92.7455 126.783C85.1257 126.151 76.7249 125.408 67.9814 123.8C50.604 120.584 35.0082 117.23 23.6197 115.292C17.9323 114.289 13.3139 113.574 10.1207 113.079C8.44948 112.922 6.79447 112.623 5.17334 112.186C6.85247 112.081 8.53792 112.15 10.2029 112.392C13.4235 112.653 18.0831 113.189 23.8253 114.028C35.296 115.636 50.974 118.811 68.2965 122.013C76.9304 123.553 85.3039 124.35 92.8962 125.12L113.11 127.044C118.866 127.635 123.512 128.212 126.719 128.707C128.394 128.862 130.047 129.194 131.653 129.697Z" fill="#2D2A33"/>
<path d="M131.31 138.342C130.928 138.603 130.483 138.755 130.022 138.782C128.744 138.978 127.449 139.043 126.157 138.974C122.813 138.864 118.03 138.15 112.165 137.325C100.42 136.116 83.9883 135.222 65.9942 132.748C57.5311 131.595 49.1362 129.985 40.8463 127.924C33.2129 126.206 26.2373 124.694 20.5225 123.292C17.672 122.742 14.9721 122.522 12.6287 122.151C10.603 121.881 8.60703 121.421 6.66717 120.776C5.42342 120.377 4.25246 119.779 3.19992 119.003C2.50098 118.44 2.22689 118.055 2.2543 118.028C3.69114 118.929 5.24531 119.628 6.87273 120.103C8.80214 120.599 10.7682 120.94 12.752 121.12C15.0955 121.381 17.7542 121.519 20.7555 122L41.2027 126.261C48.8635 128.102 57.2644 129.642 66.2409 130.893C84.1527 133.353 100.502 134.439 112.357 135.992C118.222 136.981 122.923 137.875 126.212 138.191C127.462 138.341 128.722 138.396 129.981 138.356C130.83 138.397 131.283 138.246 131.31 138.342Z" fill="#2D2A33"/>
<path d="M176.192 106.839C176.192 106.839 176.192 107.059 176.124 107.43C175.993 107.984 175.786 108.516 175.507 109.011C174.493 110.822 173.177 112.444 171.615 113.808C169.358 115.803 166.987 117.667 164.516 119.388C163.146 120.378 161.775 121.409 160.405 122.563C159.034 123.718 157.444 124.9 155.868 126.068C150.495 130.075 144.738 133.537 138.683 136.404C133.982 138.562 130.762 139.043 130.721 138.81C130.68 138.576 133.667 137.655 138.121 135.25C143.919 132.09 149.492 128.53 154.8 124.598C156.348 123.457 157.856 122.316 159.281 121.189C160.706 120.062 162.2 118.976 163.598 118.014C166.339 116.117 168.874 114.426 170.82 112.832C172.361 111.64 173.743 110.254 174.932 108.709C175.249 108.267 175.541 107.808 175.809 107.334C176.055 106.977 176.124 106.812 176.192 106.839Z" fill="#2D2A33"/>
<path d="M65.8023 86.0849C65.5236 86.1464 65.2377 86.1695 64.9527 86.1536C64.5316 86.1666 64.1128 86.0858 63.7265 85.9171C63.3403 85.7484 62.9961 85.4958 62.7188 85.1777C61.9748 84.0629 61.6628 82.7137 61.8418 81.3842C61.9742 79.6826 62.2493 77.9952 62.664 76.3399C63.1163 74.5119 63.4178 72.5326 63.7467 70.3197C64.0756 68.1068 64.4456 65.7977 64.8293 63.3512L67.3784 47.3798C68.2418 41.717 68.8311 36.2879 69.5848 31.3673C69.9548 28.907 70.366 26.5566 70.8045 24.3987C71.2431 22.2408 71.3664 20.1654 71.7913 18.3236C72.5724 14.6263 73.9566 11.6849 75.7108 10.3379C76.3741 9.83335 77.1691 9.53255 77.9994 9.47203C78.2807 9.42461 78.5679 9.42461 78.8491 9.47203C77.7934 9.56079 76.783 9.9414 75.93 10.5716C74.3677 11.9461 73.1069 14.7637 72.4217 18.4198C72.0379 20.2478 71.8598 22.2546 71.5446 24.495C71.2294 26.7353 70.7634 28.9895 70.4071 31.436C69.7082 36.3566 69.1326 41.7858 68.2692 47.4761C67.4058 53.1664 66.4602 58.4718 65.6516 63.4336C65.2405 65.8802 64.8567 68.2031 64.4867 70.3885L63.9385 73.5497C63.7604 74.5806 63.5 75.529 63.2807 76.4498C62.8361 78.0663 62.5244 79.7167 62.3488 81.3842C62.1429 82.601 62.3709 83.8516 62.9929 84.9166C63.233 85.2147 63.5326 85.4592 63.8725 85.6344C64.2123 85.8095 64.5849 85.9115 64.9664 85.9337C65.2504 85.9478 65.5313 85.9986 65.8023 86.0849Z" fill="#2D2A33"/>
<path d="M164.681 96.9708C164.681 96.8745 165.311 97.0807 166.435 96.9708C167.115 96.9365 167.773 96.718 168.34 96.3385C169.077 95.772 169.642 95.0104 169.97 94.1394C170.792 91.616 171.186 88.9725 171.135 86.3186C171.135 84.7517 171.135 83.0611 171.286 81.2468C171.437 79.4325 171.423 77.577 171.492 75.5977C171.629 71.6255 171.738 67.2685 172.095 62.5815C172.451 57.8946 173.246 52.9603 173.808 47.7373C174.532 42.3486 174.684 36.8981 174.26 31.4773C174.038 28.7199 173.25 26.0384 171.944 23.6016C171.272 22.4313 170.332 21.4375 169.203 20.7015C168.019 19.9883 166.687 19.5558 165.311 19.437C159.459 18.5848 153.552 19.1896 147.783 18.9834C142.253 18.6604 136.77 17.7716 131.42 16.3307C126.655 15.0687 121.817 14.1047 116.934 13.4443C112.343 12.922 107.998 12.7846 104.038 12.5234C100.457 12.3308 96.8891 11.95 93.3483 11.3826C90.2373 10.874 87.5787 10.3517 85.3996 10.0081C81.0279 9.3621 78.5474 9.44459 78.5474 9.2934C79.1279 9.13812 79.7288 9.0732 80.3289 9.10095C82.0401 9.05771 83.7523 9.12661 85.4545 9.30715C87.6746 9.51332 90.3607 9.92566 93.4716 10.338C96.5825 10.7503 100.132 11.0389 104.079 11.2039C108.026 11.3688 112.384 11.4513 117.057 11.9049C122.014 12.4963 126.926 13.4146 131.762 14.6538C137.014 16.0229 142.391 16.8564 147.81 17.1416C153.429 17.334 159.391 16.7018 165.544 17.5952C167.175 17.7437 168.75 18.2656 170.149 19.1208C171.513 20.0079 172.645 21.2098 173.451 22.6258C174.896 25.3093 175.756 28.2703 175.973 31.3124C176.378 36.8603 176.19 42.4358 175.411 47.9434C174.794 53.1939 173.904 58.1008 173.534 62.719C173.164 67.3372 172.931 71.6943 172.711 75.6665C172.602 77.6595 172.478 79.5562 172.382 81.343C172.287 83.1298 172.191 84.7929 172.095 86.3736C172.072 89.1351 171.547 91.8693 170.546 94.4417C170.134 95.407 169.448 96.2292 168.573 96.8058C167.909 97.194 167.147 97.3802 166.38 97.3419C165.914 97.3375 165.451 97.2586 165.009 97.1082C164.818 97.0669 164.667 96.9982 164.681 96.9708Z" fill="#2D2A33"/>
<path d="M161.981 96.311C161.981 96.4072 160.706 95.9261 158.363 95.6925C156.019 95.4588 152.621 95.775 148.372 95.8024C144.124 95.8299 139.067 95.7337 133.475 95.2939C127.884 94.8541 121.772 94.1668 115.358 93.4521L105.97 92.435C102.942 92.0639 100.036 91.5691 97.2816 91.0605C91.7997 90.0709 86.8113 89.205 82.604 88.8201C79.2613 88.5364 75.9357 88.0776 72.6408 87.4457C71.7476 87.2753 70.8645 87.0551 69.9958 86.7859C69.6802 86.7194 69.3758 86.6083 69.0913 86.456C69.0913 86.3873 70.3795 86.7309 72.7093 87.102C75.0391 87.4731 78.4378 87.803 82.6588 88.1466C86.8798 88.4903 91.9094 89.2599 97.4186 90.1946C100.16 90.6482 103.065 91.1155 106.08 91.4729L115.454 92.4625C121.881 93.1772 127.98 93.9194 133.544 94.3867C139.108 94.8541 144.137 95.0877 148.372 95.074C151.717 94.9451 155.066 95.0093 158.404 95.2664C159.334 95.3863 160.251 95.5887 161.145 95.8712C161.438 95.9875 161.719 96.135 161.981 96.311Z" fill="#2D2A33"/>
<path d="M177.686 106.056C178.082 104.851 178.539 103.667 179.056 102.51C180.139 99.2447 181.004 95.9111 181.647 92.5312C184.051 81.4043 185.845 70.1534 187.019 58.8292C187.731 52.1905 188.485 45.868 188.787 40.1227C189.088 34.3774 189.061 29.2232 189.061 24.7561C189.307 22.8457 189.33 20.9129 189.129 18.9971C189.067 18.6407 188.947 18.297 188.773 17.98L188.143 17.0179C187.785 16.461 187.391 15.9283 186.964 15.4235C186.089 14.5431 185.145 13.7342 184.141 13.0045C184.141 13.0045 184.497 13.0044 185.1 13.2793C185.977 13.6978 186.778 14.2598 187.471 14.9424C187.968 15.428 188.426 15.9519 188.842 16.5093L189.554 17.4577C189.819 17.8551 190.009 18.2975 190.116 18.7634C190.442 20.7621 190.515 22.794 190.335 24.8111C190.5 29.0857 190.705 34.4324 190.445 40.2052C190.185 45.9779 189.527 52.383 188.814 59.0354C187.674 70.4305 185.705 81.7268 182.921 92.8336C182.161 96.2378 181.101 99.5679 179.755 102.785C179.289 104.002 178.585 105.114 177.686 106.056Z" fill="#2D2A33"/>
<path d="M121.237 124.323C120.901 124.365 120.56 124.365 120.223 124.323C119.565 124.323 118.579 124.323 117.318 124.24C114.796 124.13 111.151 123.759 106.669 123.374C102.188 122.989 96.8159 122.495 90.9092 121.56C87.949 121.093 84.8518 120.474 81.7134 119.663C78.5751 118.852 75.286 118.289 71.8873 117.753C68.4885 117.217 65.1858 116.667 61.9789 116.076C58.772 115.485 55.7296 115.018 52.7694 114.701C49.8092 114.385 46.9861 114.124 44.3411 113.767C41.6961 113.409 39.2704 112.915 37.0503 112.598C33.5026 112.207 29.989 111.55 26.5389 110.633C25.5959 110.345 24.679 109.977 23.798 109.533C23.4872 109.389 23.1968 109.204 22.9346 108.984C24.1336 109.487 25.3598 109.923 26.6074 110.289C30.071 111.075 33.5824 111.63 37.1188 111.952C39.38 112.255 41.7784 112.75 44.4096 113.025C47.0409 113.299 49.8914 113.561 52.8242 113.863C55.757 114.165 58.9227 114.591 62.1159 115.237C65.3091 115.883 68.6119 116.323 72.0106 116.887C75.4093 117.45 78.7258 118.028 81.9053 118.825C84.9089 119.623 87.9506 120.27 91.0189 120.763C96.8707 121.739 102.215 122.275 106.697 122.769L117.318 123.91L120.21 124.171C120.557 124.185 120.901 124.236 121.237 124.323Z" fill="#2D2A33"/>
<path d="M57.3878 96.4209C57.3878 96.5721 55.3595 96.8058 52.3034 98.0428C49.2473 99.2798 45.2455 101.575 40.5174 103.444C36.5727 105.265 32.5007 106.795 28.3341 108.021C27.0522 108.362 25.7466 108.606 24.4283 108.75C23.9476 108.834 23.4562 108.834 22.9756 108.75C22.9756 108.599 25.0039 108.393 28.1559 107.375C31.308 106.358 35.5016 104.626 40.1611 102.579C44.8207 100.531 48.8635 98.4551 52.0841 97.4105C53.333 96.9634 54.6229 96.6411 55.9351 96.4484C56.4131 96.3462 56.9062 96.3369 57.3878 96.4209Z" fill="#2D2A33"/>
<path d="M120.031 124.721C120.158 124.544 120.305 124.383 120.469 124.24C120.757 123.938 121.21 123.512 121.84 122.976C123.611 121.43 125.52 120.05 127.541 118.852C128.977 118.004 130.459 117.238 131.981 116.557C133.653 115.815 135.462 115.182 137.354 114.262L143.356 111.513L146.59 109.987L148.139 109.272C148.139 109.272 148.317 109.19 148.262 109.19H147.933L146.248 108.915C145.124 108.695 144 108.599 142.822 108.461L135.613 107.705L120.182 106.235C111.411 105.369 103.065 104.324 95.5135 102.895C87.9623 101.465 81.2607 100.146 75.5733 99.2386C69.8859 98.3314 65.2675 97.5617 62.0607 97.1219L58.3878 96.6271C57.9526 96.5939 57.5213 96.5203 57.0996 96.4072C57.5555 96.3667 58.0141 96.3667 58.4701 96.4072C59.3197 96.4072 60.5668 96.5721 62.1703 96.7371C65.3908 97.0669 70.0367 97.658 75.7378 98.5651C81.4389 99.4723 88.2227 100.682 95.7328 102.029C103.243 103.376 111.561 104.42 120.319 105.286L135.736 106.798L142.959 107.582C144.124 107.719 145.302 107.829 146.426 108.063L148.084 108.338C148.597 108.412 149.114 108.453 149.633 108.461L151.894 108.393L143.671 112.172L137.628 114.921C135.723 115.773 133.873 116.447 132.228 117.134C130.709 117.78 129.227 118.51 127.788 119.32C125.763 120.453 123.833 121.749 122.018 123.196C120.716 124.171 120.072 124.762 120.031 124.721Z" fill="#2D2A33"/>
<path d="M73.2713 98.895C71.5266 99.5869 69.7361 100.156 67.9128 100.599C63.5964 101.922 59.3671 103.515 55.2498 105.369C50.508 107.65 46.2733 110.014 43.0116 111.279C41.7357 111.82 40.415 112.247 39.0647 112.557C38.575 112.72 38.0574 112.781 37.5435 112.736C37.5435 112.598 39.6266 112.186 42.7512 110.688C45.8759 109.19 50.0557 106.867 54.8797 104.544C59.0299 102.665 63.3299 101.139 67.7346 99.9808C69.5413 99.4422 71.3953 99.0786 73.2713 98.895Z" fill="#2D2A33"/>
<path d="M89.5933 101.08C89.5933 101.245 87.6609 101.534 84.6185 102.455C80.6658 103.666 76.8124 105.183 73.093 106.991C68.7075 109.066 64.7744 111.114 61.8553 112.379C60.3191 113.181 58.7019 113.817 57.0312 114.275C58.4861 113.341 60.0067 112.514 61.5812 111.801C64.418 110.344 68.2964 108.255 72.7093 106.166C76.4673 104.326 80.4026 102.875 84.4541 101.836C85.685 101.529 86.9349 101.304 88.1954 101.163C88.6539 101.06 89.126 101.032 89.5933 101.08Z" fill="#2D2A33"/>
<path d="M103.64 103.664C102.161 104.285 100.646 104.817 99.1043 105.259C95.4795 106.555 91.9489 108.103 88.5381 109.891C84.5226 111.966 80.932 114.014 78.2596 115.306C76.8589 116.111 75.3686 116.748 73.8193 117.203C75.1241 116.277 76.4987 115.455 77.9307 114.743C80.5209 113.286 84.043 111.169 88.0995 109.093C91.5462 107.274 95.1576 105.788 98.885 104.654C100.421 104.119 102.019 103.786 103.64 103.664Z" fill="#2D2A33"/>
<path d="M117.633 105.671C116.22 106.513 114.739 107.235 113.206 107.829L102.393 112.667C98.1859 114.591 94.4172 116.378 91.6762 117.684C90.2401 118.481 88.7357 119.148 87.1812 119.677C88.4969 118.689 89.9061 117.833 91.3885 117.12C94.0609 115.663 97.8022 113.767 102.023 111.842C106.244 109.918 110.123 108.324 112.987 107.238C114.476 106.553 116.033 106.028 117.633 105.671Z" fill="#2D2A33"/>
<path d="M132.009 107.375C130.734 108.139 129.4 108.801 128.021 109.355C125.541 110.509 122.156 112.172 118.428 114.138C114.7 116.103 111.411 117.904 108.972 119.168C107.672 119.933 106.293 120.555 104.86 121.024C106.028 120.1 107.28 119.29 108.602 118.605C110.959 117.23 114.234 115.292 117.948 113.327C121.103 111.632 124.347 110.109 127.665 108.764C129.05 108.121 130.509 107.655 132.009 107.375Z" fill="#2D2A33"/>
<path d="M129.131 117.56C128.804 117.606 128.472 117.606 128.144 117.56L125.307 117.258C122.854 116.969 119.305 116.571 114.919 116.131C106.135 115.21 93.9513 114.413 80.5757 112.488C73.8878 111.43 67.6112 110.152 61.8553 109.217C56.0994 108.283 50.8916 107.554 46.5062 107.128C42.1207 106.702 38.5438 106.564 36.0907 106.537C34.8573 106.537 33.898 106.537 33.2401 106.537C32.9125 106.578 32.581 106.578 32.2534 106.537C32.5769 106.46 32.9077 106.419 33.2401 106.413C33.8843 106.413 34.8435 106.29 36.077 106.276C39.5747 106.201 43.074 106.306 46.561 106.592C50.9738 106.922 56.1542 107.582 61.9786 108.489C67.803 109.396 74.0797 110.647 80.7127 111.691C94.0198 113.602 106.217 114.44 114.974 115.595C119.36 116.103 122.895 116.612 125.348 116.969L128.089 117.45C128.439 117.452 128.788 117.489 129.131 117.56Z" fill="#2D2A33"/>
<path d="M139.697 113.987C139.369 114.023 139.038 114.023 138.71 113.987L135.97 113.684C133.558 113.409 130.077 112.873 125.787 112.31C117.208 111.045 105.367 109.245 92.2794 107.183C79.1916 105.121 67.4057 103.06 58.8129 101.933C54.5234 101.342 51.0424 100.915 48.6304 100.627L45.8895 100.283C45.5624 100.274 45.2387 100.214 44.9302 100.105C45.2535 100.068 45.5799 100.068 45.9032 100.105C46.5473 100.105 47.4792 100.173 48.6441 100.269C51.0561 100.448 54.5645 100.778 58.8677 101.3C67.4879 102.29 79.3286 104.242 92.4027 106.29C105.477 108.338 117.29 110.248 125.856 111.678L135.983 113.382L138.724 113.849C139.053 113.851 139.381 113.897 139.697 113.987Z" fill="#2D2A33"/>
<path d="M130.954 138.919C130.83 138.919 130.858 138.315 130.871 137.421C130.885 136.528 130.871 135.277 130.871 133.875C130.867 133.205 130.899 132.535 130.967 131.868C130.967 131.566 131.05 131.264 131.104 130.989L131.2 130.604L131.31 130.164C131.322 130.075 131.355 129.991 131.406 129.917C131.406 129.917 131.406 129.766 131.557 129.766C131.702 129.738 131.85 129.738 131.995 129.766C132.206 129.817 132.392 129.944 132.516 130.123C132.667 130.357 132.722 130.411 132.722 130.48C132.722 130.549 132.489 130.48 132.283 130.384C132.202 130.329 132.106 130.3 132.009 130.302C131.99 130.303 131.971 130.308 131.954 130.318C131.938 130.327 131.924 130.34 131.913 130.356C131.902 130.372 131.895 130.391 131.893 130.41C131.891 130.429 131.893 130.448 131.899 130.467C131.904 130.553 131.904 130.641 131.899 130.728V131.113V131.951C131.899 132.542 131.899 133.188 131.899 133.889C131.943 135.098 131.87 136.309 131.68 137.504C131.324 138.342 131.063 138.919 130.954 138.919Z" fill="#2D2A33"/>
<path d="M136.079 138.164C135.819 138.164 136.079 135.277 136.915 131.923C137.294 129.864 137.863 127.844 138.615 125.89C138.875 125.89 138.615 128.776 137.792 132.13C137.403 134.188 136.83 136.208 136.079 138.164Z" fill="#2D2A33"/>
<path d="M141.589 134.714C141.342 134.645 141.835 132.391 142.959 129.848C143.524 128.257 144.333 126.763 145.357 125.422C145.604 125.518 144.919 127.69 143.781 130.219C142.644 132.748 141.794 134.796 141.589 134.714Z" fill="#2D2A33"/>
<path d="M146.467 131.745C146.234 131.649 146.631 130.164 147.289 128.419C147.947 126.673 148.509 125.271 148.756 125.326C149.002 125.381 148.756 126.948 148.139 128.735C147.522 130.521 146.7 131.841 146.467 131.745Z" fill="#2D2A33"/>
<path d="M151.469 127.924C151.236 127.924 151.373 126.549 151.867 125.065C152.36 123.58 153.1 122.467 153.319 122.577C153.539 122.687 153.224 123.951 152.73 125.326C152.237 126.7 151.716 128.02 151.469 127.924Z" fill="#2D2A33"/>
<path d="M156.869 123.361C156.636 123.292 156.773 122.192 157.006 120.845C157.239 119.498 157.568 118.412 157.828 118.454C158.089 118.495 158.13 119.622 157.897 121.01C157.664 122.398 157.088 123.457 156.869 123.361Z" fill="#2D2A33"/>
<path d="M160.679 119.966C160.432 119.966 160.418 118.454 160.843 116.722C161.268 114.99 161.857 113.657 162.09 113.712C162.323 113.767 162.09 115.224 161.72 116.928C161.35 118.632 160.98 119.993 160.679 119.966Z" fill="#2D2A33"/>
<path d="M165.393 116.131C165.16 116.048 165.27 115.141 165.475 114.028C165.681 112.915 165.982 112.007 166.243 112.049C166.503 112.09 166.572 113.038 166.366 114.193C166.161 115.347 165.626 116.227 165.393 116.131Z" fill="#2D2A33"/>
<path d="M168.997 114.399C168.751 114.399 168.696 113.217 168.888 111.856C169.08 110.496 169.422 109.41 169.669 109.437C169.916 109.465 169.971 110.605 169.779 111.98C169.587 113.354 169.203 114.426 168.997 114.399Z" fill="#2D2A33"/>
<path d="M172.424 111.787C172.218 111.65 172.766 110.413 173.26 108.791C173.753 107.169 174.096 105.85 174.356 105.877C174.616 105.905 174.644 107.362 174.109 109.066C173.575 110.77 172.629 111.925 172.424 111.787Z" fill="#2D2A33"/>
<path d="M70.4208 87.0059C70.1341 86.9842 69.8523 86.9193 69.5848 86.8134C68.7876 86.5452 68.1058 86.0117 67.6525 85.3015C66.4191 83.3635 66.652 80.051 67.351 76.3674C67.6936 74.4982 68.1732 72.4777 68.5981 70.306C69.0229 68.1344 69.2833 65.7978 69.6259 63.31C70.2974 58.3619 70.9964 52.9053 71.8187 47.1875C72.6409 41.4697 73.3536 36.0405 74.0388 31.0924C74.724 26.1444 74.6555 21.5811 75.7656 17.8838C76.1924 16.1801 77.0463 14.6141 78.2461 13.3343C78.7555 12.825 79.3375 12.3942 79.9729 12.0561C80.5307 11.8241 81.1087 11.6447 81.6996 11.52L83.0701 11.3826L84.0979 11.4925C84.3869 11.4889 84.6744 11.5354 84.9476 11.63C84.6608 11.6644 84.371 11.6644 84.0843 11.63H83.0701L81.6996 11.8499C79.6165 12.111 77.1634 14.3652 76.3138 18.035C75.4641 21.7048 75.2585 26.1444 74.8062 31.1474C74.354 36.1505 73.4358 41.5659 72.6409 47.2837C71.8461 53.0015 71.0786 58.4444 70.3934 63.3924C70.0234 65.8665 69.7493 68.2444 69.2696 70.4298C68.7899 72.6152 68.324 74.6219 67.8991 76.4637C67.1317 80.106 66.8302 83.336 67.8991 85.0953C68.3026 85.7664 68.9001 86.2985 69.6122 86.621C69.8985 86.7104 70.1707 86.84 70.4208 87.0059Z" fill="#2D2A33"/>
<path d="M8.22948 120.392C8.22948 120.488 7.68131 120.392 6.99608 119.979C6.15036 119.367 5.4679 118.555 5.0089 117.615C4.2429 116.382 3.87002 114.943 3.93995 113.492C4.21404 113.396 4.80332 115.21 5.80375 117.189C6.22123 118.03 6.76169 118.804 7.4072 119.484C7.90056 119.993 8.2843 120.268 8.22948 120.392Z" fill="#2D2A33"/>
<path d="M10.5181 120.488C10.3536 120.625 9.28465 119.746 8.46238 118.206C8.09512 117.54 7.8886 116.796 7.85938 116.035C7.85938 115.457 8.01013 115.114 8.11976 115.114C8.2294 115.114 8.48981 116.406 9.25727 117.794C10.0247 119.182 10.751 120.337 10.5181 120.488Z" fill="#2D2A33"/>
<path d="M12.6969 119.952C12.4913 120.089 11.8609 119.498 11.5594 118.509C11.2579 117.519 11.436 116.667 11.6827 116.653C11.9294 116.639 12.1487 117.382 12.4228 118.234C12.6969 119.086 12.9709 119.814 12.6969 119.952Z" fill="#2D2A33"/>
<path d="M14.931 120.474C14.7254 120.612 14.1225 119.993 13.8895 118.99C13.6565 117.986 13.8895 117.203 14.1224 117.203C14.3554 117.203 14.5747 117.945 14.7665 118.784C14.9584 119.622 15.1503 120.337 14.931 120.474Z" fill="#2D2A33"/>
<path d="M36.762 126.439C36.529 126.591 35.6383 125.23 35.1723 123.415C34.776 122.345 34.6169 121.2 34.7063 120.062C34.9804 119.938 35.5971 121.436 36.0768 123.168C36.463 124.219 36.6938 125.321 36.762 126.439Z" fill="#2D2A33"/>
<path d="M32.7333 125.257C32.5277 125.408 31.5273 124.281 31.1572 122.508C30.7872 120.735 31.1573 119.32 31.4314 119.375C31.7054 119.43 31.678 120.749 32.0481 122.316C32.4181 123.883 32.9389 125.175 32.7333 125.257Z" fill="#2D2A33"/>
<path d="M95.4043 134.562C94.4952 133.511 93.872 132.242 93.5953 130.879C93.2905 129.926 93.1924 128.918 93.3075 127.924C93.4034 127.154 93.6501 126.728 93.7598 126.755C93.8694 126.783 93.7597 128.556 94.4587 130.631C95.1576 132.707 95.6784 134.466 95.4043 134.562Z" fill="#2D2A33"/>
<path d="M91.2514 132.721C91.0184 132.831 90.525 131.896 90.3606 130.741C90.1961 129.587 90.1276 128.693 90.3606 128.597C90.5936 128.501 91.0869 129.422 91.2514 130.59C91.4158 131.759 91.4843 132.624 91.2514 132.721Z" fill="#2D2A33"/>
<path d="M98.9399 134.796C98.6932 134.865 98.2957 133.944 98.049 132.721C97.8024 131.497 97.8161 130.508 98.049 130.467C98.282 130.425 98.6932 131.36 98.9262 132.542C99.1591 133.724 99.1729 134.796 98.9399 134.796Z" fill="#2D2A33"/>
<path d="M117.907 138.727C117.674 138.809 117.044 137.682 116.715 136.143C116.386 134.604 116.509 133.325 116.715 133.312C116.92 133.298 117.249 134.494 117.564 135.964C117.88 137.435 118.14 138.645 117.907 138.727Z" fill="#2D2A33"/>
<path d="M78.8491 11.0939C78.8491 11.3276 77.6979 11.9598 76.2315 12.9357C74.7651 13.9116 73.2713 14.3102 73.1891 14.104C73.1069 13.8978 74.2855 13.1556 75.7519 12.166C77.2182 11.1764 78.7532 10.8602 78.8491 11.0939Z" fill="#2D2A33"/>
<path d="M76.9849 15.4923C77.0945 15.7122 76.1489 16.4406 74.984 17.3478C73.8191 18.2549 72.7091 18.8734 72.5583 18.7222C72.4076 18.571 73.2298 17.6227 74.4358 16.688C75.6418 15.7534 76.8752 15.2174 76.9849 15.4923Z" fill="#2D2A33"/>
<path d="M75.3267 19.8905C75.4637 20.0966 74.6415 20.8114 73.504 21.4711C72.3665 22.1308 71.3387 22.4882 71.229 22.2683C71.1194 22.0484 71.9417 21.3337 73.0655 20.6877C74.1892 20.0417 75.1896 19.6843 75.3267 19.8905Z" fill="#2D2A33"/>
<path d="M74.7379 24.2201C74.8475 24.4537 74.0937 25.0173 73.1618 25.5945C72.2299 26.1718 71.4624 26.6392 71.2843 26.4605C71.1061 26.2818 71.6543 25.4571 72.6547 24.8248C73.6552 24.1926 74.6419 24.0002 74.7379 24.2201Z" fill="#2D2A33"/>
<path d="M73.8745 28.962C73.9841 29.1682 73.2989 29.8692 72.3258 30.6801C71.3528 31.491 70.2428 31.8484 70.1605 31.601C70.0783 31.3536 70.8183 30.7763 71.764 29.9654C72.7096 29.1545 73.7511 28.7146 73.8745 28.962Z" fill="#2D2A33"/>
<path d="M74.3129 33.4153C74.4636 33.6214 73.4769 34.611 72.1202 35.6556C70.7634 36.7002 69.5437 37.36 69.3792 37.1538C69.2148 36.9476 70.2015 35.958 71.5583 34.9272C72.915 33.8963 74.1621 33.2228 74.3129 33.4153Z" fill="#2D2A33"/>
<path d="M73.9975 37.2088C74.1208 37.415 73.3671 38.1297 72.3803 38.9407C71.3936 39.7516 70.4069 40.3151 70.2561 40.054C70.1054 39.7928 70.7906 39.0506 71.8185 38.2259C72.8463 37.4012 73.8741 36.9477 73.9975 37.2088Z" fill="#2D2A33"/>
<path d="M72.2707 43.655C72.3529 43.8887 71.3936 44.4797 70.2424 45.2631C69.0913 46.0466 68.0634 46.6376 67.8989 46.4177C67.7345 46.1978 68.5294 45.3319 69.7491 44.5072C70.9688 43.6825 72.1885 43.4076 72.2707 43.655Z" fill="#2D2A33"/>
<path d="M72.6136 47.2836C72.6136 47.5173 71.4899 48.0396 70.1605 48.9193C68.8312 49.7989 67.7485 50.5549 67.5703 50.3625C67.3922 50.1701 68.2419 49.098 69.6808 48.1496C71.1198 47.2012 72.5588 47.0362 72.6136 47.2836Z" fill="#2D2A33"/>
<path d="M71.6541 51.146C71.7501 51.3796 70.6948 52.0531 69.4751 53.0015C68.2554 53.9499 67.1727 54.6921 67.0083 54.4997C66.8438 54.3072 67.6387 53.2764 68.9269 52.273C70.2151 51.2697 71.5719 50.9536 71.6541 51.146Z" fill="#2D2A33"/>
<path d="M70.8592 55.448C70.9826 55.6541 69.9273 56.5888 68.598 57.6884C67.2686 58.7879 66.0763 59.5852 65.8571 59.3927C65.6378 59.2003 66.6108 58.1007 67.9813 56.9736C69.3518 55.8466 70.7222 55.2281 70.8592 55.448Z" fill="#2D2A33"/>
<path d="M69.6805 60.9597C69.8312 61.1658 69.009 62.0043 67.8441 62.829C66.6792 63.6536 65.6239 64.2034 65.4869 63.956C65.3498 63.7086 66.1858 62.9114 67.3233 62.0867C68.4608 61.2621 69.5297 60.7672 69.6805 60.9597Z" fill="#2D2A33"/>
<path d="M69.5711 64.6982C69.6533 64.9318 68.7351 65.4953 67.7621 66.4025C66.7891 67.3096 65.9805 68.1068 65.7749 67.9557C65.5693 67.8045 66.0764 66.7324 67.1454 65.729C68.2143 64.7257 69.5162 64.492 69.5711 64.6982Z" fill="#2D2A33"/>
<path d="M68.7486 69.2477C68.8583 69.4813 68.0222 70.0724 67.0081 70.7596C65.994 71.4468 65.2265 72.0379 65.0347 71.8867C64.8428 71.7355 65.4047 70.7596 66.501 70.0174C67.5974 69.2752 68.6527 69.0278 68.7486 69.2477Z" fill="#2D2A33"/>
<path d="M67.9676 73.3436C68.0909 73.5773 67.6387 74.0308 67.0768 74.4706C66.5149 74.9105 66.0489 75.2816 65.8433 75.1579C65.6378 75.0342 65.8434 74.3057 66.5149 73.7834C67.1864 73.2611 67.8579 73.1374 67.9676 73.3436Z" fill="#2D2A33"/>
<path d="M66.6107 78.6215C66.6107 78.8827 66.1584 79.1026 65.6788 79.2538C65.1991 79.405 64.8291 79.5562 64.6235 79.405C64.418 79.2538 64.6235 78.6078 65.4047 78.3879C66.1859 78.1679 66.5833 78.4429 66.6107 78.6215Z" fill="#2D2A33"/>
<path d="M65.7884 83.1435C65.9392 83.3222 65.7884 83.7346 65.3225 83.9132C64.8565 84.0919 64.4042 83.8307 64.4727 83.5833C64.5143 83.4616 64.5846 83.3518 64.6777 83.2632C64.7708 83.1747 64.8838 83.11 65.0072 83.0748C65.2813 82.9648 65.6239 82.9374 65.7884 83.1435Z" fill="#2D2A33"/>
<path d="M190.322 19.4094C190.322 19.6568 189.458 19.9592 188.403 20.3166C187.348 20.6739 186.498 20.9626 186.361 20.7564C186.224 20.5503 186.964 19.8355 188.129 19.4507C189.294 19.0658 190.294 19.162 190.322 19.4094Z" fill="#2D2A33"/>
<path d="M188.02 25.4022C188.143 25.6221 187.663 26.1169 186.978 26.598C186.293 27.079 185.608 27.3539 185.471 27.1477C185.333 26.9416 185.745 26.3643 186.457 25.8557C187.17 25.3472 187.91 25.1685 188.02 25.4022Z" fill="#2D2A33"/>
<path d="M188.513 30.9275C188.582 31.1749 187.965 31.5186 187.143 31.7934C186.32 32.0683 185.772 32.2333 185.594 32.0134C185.416 31.7935 185.991 31.2437 186.841 30.9413C187.691 30.6389 188.458 30.6939 188.513 30.9275Z" fill="#2D2A33"/>
<path d="M189.404 36.7415C189.5 36.9477 188.65 37.6899 187.334 38.3084C186.019 38.9269 184.73 38.8719 184.73 38.6107C184.73 38.3496 185.758 38.0747 186.964 37.4837C188.17 36.8927 189.28 36.4941 189.404 36.7415Z" fill="#2D2A33"/>
<path d="M188.472 41.8683C188.609 42.0744 187.896 42.8304 186.868 43.5588C185.841 44.2873 184.895 44.7134 184.758 44.521C184.621 44.3285 185.32 43.5588 186.348 42.8304C187.375 42.1019 188.39 41.6758 188.472 41.8683Z" fill="#2D2A33"/>
<path d="M188.047 48.1084C188.184 48.3008 187.348 49.2492 186.087 50.1976C184.826 51.146 183.497 51.5033 183.415 51.2559C183.333 51.0085 184.347 50.3625 185.553 49.4553C186.759 48.5482 187.883 47.9022 188.047 48.1084Z" fill="#2D2A33"/>
<path d="M187.389 54.3347C187.526 54.5409 186.608 55.3793 185.416 56.3415C184.223 57.3036 183.1 57.9221 182.949 57.7159C182.798 57.5098 183.648 56.6026 184.854 55.6267C186.06 54.6508 187.266 54.1148 187.389 54.3347Z" fill="#2D2A33"/>
<path d="M185.224 60.9734C185.347 61.1933 184.689 61.8256 183.744 62.3479C182.798 62.8702 181.921 63.2 181.798 62.9801C181.674 62.7602 182.332 62.1417 183.278 61.6056C184.223 61.0696 185.1 60.7535 185.224 60.9734Z" fill="#2D2A33"/>
<path d="M186.265 64.066C186.443 64.2447 185.676 65.2205 184.401 65.9627C183.127 66.705 182.017 67.0348 181.907 66.8286C181.798 66.6225 182.729 65.894 183.935 65.193C185.141 64.492 186.087 63.8873 186.265 64.066Z" fill="#2D2A33"/>
<path d="M185.649 69.66C185.745 69.8937 185.032 70.471 184.073 71.1582C183.113 71.8455 182.086 72.1341 181.99 71.8867C181.894 71.6393 182.606 71.0895 183.566 70.4023C184.525 69.715 185.649 69.4264 185.649 69.66Z" fill="#2D2A33"/>
<path d="M185.402 74.883C185.553 75.0754 184.895 75.8451 183.922 76.5736C182.949 77.302 182.044 77.7556 181.894 77.5494C181.743 77.3433 182.401 76.5873 183.374 75.8588C184.347 75.1304 185.251 74.6768 185.402 74.883Z" fill="#2D2A33"/>
<path d="M183.141 80.6695C183.292 80.8619 182.702 81.5767 181.77 82.3051C180.838 83.0336 179.948 83.3772 179.824 83.1573C179.701 82.9374 180.345 82.3189 181.195 81.6041C182.044 80.8894 182.99 80.4633 183.141 80.6695Z" fill="#2D2A33"/>
<path d="M182.908 85.3152C183.004 85.5489 182.305 86.0987 181.4 86.7722C180.496 87.4457 179.564 87.803 179.44 87.5694C179.317 87.3357 179.961 86.7172 180.879 86.0299C181.798 85.3427 182.908 85.0266 182.908 85.3152Z" fill="#2D2A33"/>
<path d="M182.634 90.4833C182.634 90.7169 181.894 91.088 180.948 91.6103C180.002 92.1326 179.18 92.49 179.029 92.2975C178.879 92.1051 179.495 91.3492 180.523 90.8131C181.551 90.2771 182.606 90.2221 182.634 90.4833Z" fill="#2D2A33"/>
<path d="M181.537 95.5825C181.756 95.6925 181.537 96.4072 180.866 96.8471C180.194 97.2869 179.495 97.2044 179.495 96.9845C179.495 96.7646 179.906 96.3934 180.427 96.0773C180.948 95.7612 181.29 95.4451 181.537 95.5825Z" fill="#2D2A33"/>
<path d="M179.797 100.434C179.92 100.668 179.002 101.341 177.878 102.07C176.754 102.798 175.809 103.444 175.644 103.225C175.48 103.005 176.179 102.097 177.385 101.314C178.591 100.531 179.687 100.173 179.797 100.434Z" fill="#2D2A33"/>
<path d="M175.713 107.197C175.809 107.417 175.452 107.829 174.904 108.214C174.356 108.599 173.794 108.791 173.643 108.585C173.493 108.379 173.808 107.884 174.384 107.472C174.959 107.059 175.617 106.963 175.713 107.197Z" fill="#2D2A33"/>
<path d="M57.3738 125.931C57.1819 126.082 56.25 124.886 56.0993 123.182C55.9485 121.477 56.2774 120.172 56.4967 120.172C56.716 120.172 56.853 121.546 57.0038 123.086C57.1545 124.625 57.5931 125.793 57.3738 125.931Z" fill="#2D2A33"/>
<path d="M75.3404 127.992C74.5155 128.288 73.6345 128.391 72.7639 128.295C70.6763 128.259 68.5972 128.02 66.5558 127.58C63.6656 127.083 60.8359 126.282 58.1138 125.189C58.1138 124.9 62.0333 125.683 66.7339 126.687C69.0911 127.168 71.229 127.498 72.7913 127.663C73.6514 127.666 74.5077 127.777 75.3404 127.992Z" fill="#2D2A33"/>
<path d="M75.2586 128.611C75.0119 128.611 74.7652 127.731 74.7926 126.618C74.82 125.505 75.1353 124.598 75.3819 124.639C75.6286 124.68 75.7108 125.56 75.6971 126.632C75.6834 127.704 75.5053 128.611 75.2586 128.611Z" fill="#2D2A33"/>
<path d="M117.578 6.97051C117.331 6.97051 117.208 6.25579 117.359 5.43111C117.509 4.60643 117.948 4.05664 118.181 4.05664C118.414 4.05664 118.373 4.78509 118.181 5.54105C117.989 6.29701 117.825 7.05298 117.578 6.97051Z" fill="#2D2A33"/>
<path d="M133.804 9.48579C133.804 9.71945 130.131 10.1456 125.581 9.59577C123.637 9.38448 121.722 8.96517 119.867 8.345C118.496 7.85019 117.646 7.35537 117.701 7.25916C118.5 7.31539 119.288 7.47715 120.045 7.74023C121.899 8.15697 123.775 8.47356 125.664 8.68861C130.145 9.22466 133.79 9.22464 133.804 9.48579Z" fill="#2D2A33"/>
<path d="M134.243 9.33462C134.037 9.47207 133.421 8.8398 133.284 7.8227C133.147 6.80559 133.612 6.00841 133.845 6.11837C134.078 6.22833 134.037 6.88806 134.174 7.699C134.311 8.50994 134.462 9.19717 134.243 9.33462Z" fill="#2D2A33"/>
<path d="M166.024 25.2922C165.754 25.5252 165.46 25.728 165.147 25.8969L162.557 27.4501C160.295 28.8246 156.993 30.6801 152.963 32.948C144.741 37.5387 133.393 43.7788 120.675 50.3762C117.496 52.0256 114.371 53.6062 111.343 55.1182C108.314 56.6301 105.34 57.9771 102.627 59.4203C97.1447 62.3204 92.4441 65.3442 88.2642 67.5296C86.4014 68.55 84.4844 69.4677 82.522 70.2785C80.7815 70.9795 79.274 71.5018 78.0543 71.9692C76.8345 72.4365 75.9026 72.8488 75.3133 73.1375C75.0063 73.3129 74.6797 73.4513 74.3403 73.5498C74.6155 73.3255 74.9142 73.1319 75.2311 72.9725C76.1173 72.4612 77.0325 72.0022 77.972 71.598L82.3849 69.7562C84.0843 69.0278 85.9755 68.0519 88.0175 66.9248C92.1289 64.6845 96.8021 61.6056 102.284 58.678C105.025 57.1936 108.012 55.9291 111.014 54.321L120.319 49.5653C133.023 42.9816 144.453 36.824 152.717 32.3844L162.502 27.1065L165.243 25.732C165.487 25.5579 165.749 25.4105 166.024 25.2922Z" fill="#2D2A33"/>
<path d="M170.423 49.6752C169.48 50.2651 168.506 50.802 167.504 51.2833C165.626 52.3004 162.913 53.7849 159.596 55.7091C152.963 59.5164 144.028 65.2067 133.722 70.8283C128.882 73.4678 123.841 75.7198 118.647 77.5632C113.864 79.2538 109.479 80.5458 105.82 81.6866C102.161 82.8274 99.214 83.7483 97.1858 84.4355C96.1524 84.8321 95.095 85.1626 94.02 85.4251C94.2584 85.2645 94.5163 85.1351 94.7875 85.0403C95.2945 84.8066 96.0757 84.4905 97.0761 84.1056C99.0633 83.3222 101.996 82.2776 105.628 81.0818C112.891 78.6628 123.101 75.7214 133.311 70.0861C143.521 64.4508 152.566 58.9392 159.35 55.2693C162.707 53.4138 165.476 52.0118 167.422 51.1459C168.381 50.6786 169.162 50.3625 169.669 50.1425C169.897 49.9521 170.151 49.7948 170.423 49.6752Z" fill="#2D2A33"/>
<path d="M122.786 22.4608C122.309 22.9262 121.775 23.3281 121.196 23.6566C120.127 24.3438 118.565 25.3334 116.578 26.4055C112.617 28.6734 106.984 31.4223 100.749 34.4874C97.638 36.013 94.76 37.6349 92.0054 38.8994C89.2508 40.1639 86.784 41.2497 84.742 42.2256C82.7 43.2015 81.0966 44.0949 80.0002 44.7272C79.4613 45.1099 78.8822 45.4326 78.2734 45.6893C78.7245 45.2027 79.2411 44.7817 79.8083 44.4385C81.2987 43.4267 82.8503 42.5086 84.4542 41.6896C86.4825 40.6175 88.9356 39.4767 91.6354 38.171C94.3352 36.8652 97.2131 35.2433 100.338 33.7039C106.573 30.6251 112.261 27.9724 116.276 25.8695C118.291 24.8249 119.894 23.9314 121.018 23.3267C121.574 22.9738 122.167 22.6835 122.786 22.4608Z" fill="#2D2A33"/>
<path d="M112.096 16.3581C110.692 17.3248 109.217 18.184 107.683 18.9284L96.9254 24.9348C92.7318 27.2851 88.8808 29.3331 86.0302 30.7075C84.5302 31.524 82.9562 32.196 81.3296 32.7143C82.7302 31.7414 84.2058 30.8819 85.7425 30.144L96.4868 24.1376C100.694 21.7872 104.545 19.7256 107.382 18.3511C108.881 17.5253 110.46 16.8574 112.096 16.3581Z" fill="#2D2A33"/>
</g>
<defs>
<clipPath id="clip0_102_511">
<rect width="190" height="139" fill="white" transform="translate(0.5 0.00195312)"/>
</clipPath>
</defs>
</svg>
