<svg width="247" height="90" viewBox="0 0 247 90" fill="none" xmlns="http://www.w3.org/2000/svg">
<path d="M0.549316 2.33691C0.476074 2.16113 0.439453 1.96338 0.439453 1.74365C0.439453 1.50928 0.563965 1.24561 0.812988 0.952637C1.07666 0.64502 1.46484 0.491211 1.97754 0.491211H6.78955C7.36084 0.491211 7.88818 0.688965 8.37158 1.08447C8.85498 1.47998 9.19922 1.97803 9.4043 2.57861L15.2051 19.981L20.5664 2.57861C20.9912 1.18701 21.8628 0.491211 23.1812 0.491211H27.2241C28.5425 0.491211 29.4141 1.18701 29.8389 2.57861L35.2002 19.981L41.001 2.57861C41.2061 1.97803 41.5503 1.47998 42.0337 1.08447C42.5171 0.688965 43.0444 0.491211 43.6157 0.491211H48.4277C48.9258 0.491211 49.2993 0.64502 49.5483 0.952637C49.812 1.24561 49.9438 1.50928 49.9438 1.74365C49.9438 1.96338 49.9146 2.16113 49.856 2.33691L40.0562 29.7588C39.5142 31.2529 38.4595 32 36.8921 32H33.7061C32.0801 32 31.0327 31.2529 30.564 29.7588L25.2026 12.8398L19.8413 29.7588C19.3579 31.2529 18.3105 32 16.6992 32H13.4912C11.9385 32 10.8911 31.2529 10.3491 29.7588L0.549316 2.33691ZM53.5474 29.9785V2.57861C53.5474 2.00732 53.7524 1.5166 54.1626 1.10645C54.5728 0.696289 55.0635 0.491211 55.6348 0.491211H59.7217C60.3223 0.491211 60.8203 0.696289 61.2158 1.10645C61.626 1.5166 61.8311 2.00732 61.8311 2.57861V29.9346C61.8311 30.5059 61.6187 30.9966 61.1938 31.4067C60.7837 31.8022 60.293 32 59.7217 32H55.6348C55.0635 32 54.5728 31.8096 54.1626 31.4287C53.7524 31.0332 53.5474 30.5498 53.5474 29.9785ZM68.1372 29.9785V2.62256C68.1372 2.02197 68.3423 1.5166 68.7524 1.10645C69.1626 0.696289 69.6533 0.491211 70.2246 0.491211H74.3555C74.9268 0.491211 75.4102 0.696289 75.8057 1.10645C76.2158 1.5166 76.4209 2.02197 76.4209 2.62256V25.7817H95.5591C96.1304 25.7817 96.6138 25.9868 97.0093 26.397C97.4194 26.8071 97.6245 27.2979 97.6245 27.8691V29.9346C97.6245 30.5059 97.4194 30.9966 97.0093 31.4067C96.6138 31.8022 96.1304 32 95.5591 32H70.2246C69.6533 32 69.1626 31.8096 68.7524 31.4287C68.3423 31.0332 68.1372 30.5498 68.1372 29.9785ZM101.228 29.9346V2.57861C101.228 2.00732 101.433 1.5166 101.843 1.10645C102.253 0.696289 102.759 0.491211 103.359 0.491211H107.446C108.018 0.491211 108.501 0.696289 108.896 1.10645C109.307 1.5166 109.512 2.00732 109.512 2.57861V12.4663H124.629V2.57861C124.629 2.00732 124.834 1.5166 125.244 1.10645C125.654 0.696289 126.145 0.491211 126.716 0.491211H130.803C131.404 0.491211 131.902 0.696289 132.297 1.10645C132.708 1.5166 132.913 2.00732 132.913 2.57861V29.9346C132.913 30.5059 132.7 30.9966 132.275 31.4067C131.865 31.8022 131.375 32 130.803 32H126.716C126.145 32 125.654 31.8096 125.244 31.4287C124.834 31.0332 124.629 30.5498 124.629 29.9785V18.6846H109.512V29.9785C109.512 30.5498 109.307 31.0332 108.896 31.4287C108.501 31.8096 108.018 32 107.446 32H103.359C102.788 32 102.29 31.8022 101.865 31.4067C101.44 30.9966 101.228 30.5059 101.228 29.9346ZM139.241 29.8906V2.53467C139.241 1.96338 139.446 1.47998 139.856 1.08447C140.266 0.688965 140.757 0.491211 141.328 0.491211H166.663C167.234 0.491211 167.717 0.696289 168.113 1.10645C168.523 1.5166 168.728 2.00732 168.728 2.57861V4.64404C168.728 5.21533 168.523 5.70605 168.113 6.11621C167.717 6.51172 167.234 6.70947 166.663 6.70947H147.524V13.1035H164.004C164.575 13.1035 165.059 13.3086 165.454 13.7188C165.864 14.1143 166.069 14.5977 166.069 15.1689V17.2344C166.069 17.8057 165.864 18.2964 165.454 18.7065C165.059 19.1021 164.575 19.2998 164.004 19.2998H147.524V25.7817H166.619C167.175 25.7817 167.651 25.9795 168.047 26.375C168.442 26.7705 168.64 27.2539 168.64 27.8252V29.9346C168.64 30.5059 168.435 30.9966 168.025 31.4067C167.615 31.8022 167.124 32 166.553 32H141.328C140.757 32 140.266 31.8022 139.856 31.4067C139.446 30.9966 139.241 30.4912 139.241 29.8906ZM172.771 29.9785V2.62256C172.771 2.02197 172.976 1.5166 173.386 1.10645C173.796 0.696289 174.287 0.491211 174.858 0.491211H178.989C179.561 0.491211 180.044 0.696289 180.439 1.10645C180.85 1.5166 181.055 2.02197 181.055 2.62256V25.7817H200.193C200.764 25.7817 201.248 25.9868 201.643 26.397C202.053 26.8071 202.258 27.2979 202.258 27.8691V29.9346C202.258 30.5059 202.053 30.9966 201.643 31.4067C201.248 31.8022 200.764 32 200.193 32H174.858C174.287 32 173.796 31.8096 173.386 31.4287C172.976 31.0332 172.771 30.5498 172.771 29.9785ZM205.862 29.8906V2.62256C205.862 2.02197 206.06 1.5166 206.455 1.10645C206.851 0.696289 207.334 0.491211 207.905 0.491211H216.848C217.419 0.491211 217.961 0.696289 218.474 1.10645C218.987 1.5166 219.331 2.00732 219.507 2.57861L225.989 21.3433L232.471 2.57861C232.646 2.00732 232.991 1.5166 233.503 1.10645C234.016 0.696289 234.558 0.491211 235.129 0.491211H244.072C244.644 0.491211 245.12 0.696289 245.5 1.10645C245.896 1.5166 246.094 2.02197 246.094 2.62256V29.8906C246.094 30.4912 245.889 30.9966 245.479 31.4067C245.083 31.8022 244.6 32 244.028 32H240.073C239.502 32 239.011 31.8022 238.601 31.4067C238.206 30.9966 238.008 30.4912 238.008 29.8906V8.42334L230.251 30.0225C230.046 30.5645 229.688 31.0332 229.175 31.4287C228.662 31.8096 228.12 32 227.549 32H224.407C223.835 32 223.293 31.8096 222.781 31.4287C222.283 31.0332 221.924 30.5645 221.704 30.0225L213.97 8.42334V29.8906C213.97 30.4912 213.765 30.9966 213.354 31.4067C212.959 31.8022 212.476 32 211.904 32H207.949C207.378 32 206.887 31.8022 206.477 31.4067C206.067 30.9966 205.862 30.4912 205.862 29.8906ZM1.34033 80.936C1.34033 80.0718 1.59668 79.4565 2.10938 79.0903C2.62207 78.7095 3.12012 78.519 3.60352 78.519H6.21826C7.53662 78.519 8.54004 79.2368 9.22852 80.6724C9.91699 82.1079 11.4624 82.8257 13.8647 82.8257L21.5552 82.9795C24.1333 82.9795 25.4224 82.1372 25.4224 80.4526C25.4224 79.1782 23.8477 78.1748 20.6982 77.4424C19.292 77.1055 17.7393 76.7759 16.04 76.4536C14.3408 76.1167 12.6489 75.6992 10.9644 75.2012C9.29443 74.7031 7.75635 74.1172 6.3501 73.4434C4.94385 72.7695 3.80127 71.8467 2.92236 70.6748C2.05811 69.4883 1.62598 68.0967 1.62598 66.5C1.62598 63.5557 2.67334 61.2925 4.76807 59.7104C6.86279 58.1138 10.4663 57.3154 15.5786 57.3154L21.1597 57.4473C24.1626 57.4473 26.8652 58.2236 29.2676 59.7764C31.6846 61.3145 32.8931 63.2407 32.8931 65.5552C32.8931 66.4194 32.6367 67.042 32.124 67.4229C31.6113 67.8037 31.1206 67.9941 30.6519 67.9941H28.0371C26.7188 67.9941 25.7153 67.2764 25.0269 65.8408C24.3384 64.3906 22.793 63.6655 20.3906 63.6655L13.7769 63.5337C11.1987 63.5337 9.90967 64.376 9.90967 66.0605C9.90967 66.9834 10.7227 67.7378 12.3486 68.3237C13.9893 68.9097 15.9668 69.4297 18.2812 69.8838C20.6104 70.3232 22.9468 70.8579 25.2905 71.4878C27.6343 72.1177 29.6191 73.1577 31.2451 74.6079C32.8857 76.0435 33.7061 77.8379 33.7061 79.9912C33.7061 82.9355 32.6514 85.2061 30.542 86.8027C28.4473 88.3848 24.8511 89.1758 19.7534 89.1758L13.0957 89.0439C10.0928 89.0439 7.38281 88.2749 4.96582 86.7368C2.54883 85.1841 1.34033 83.2505 1.34033 80.936ZM40.4736 85.2866C37.7637 82.6938 36.4087 78.6875 36.4087 73.2676C36.4087 67.833 37.7637 63.8193 40.4736 61.2266C43.1982 58.6191 47.2778 57.3154 52.7124 57.3154H57.6123C60.9375 57.3154 63.8745 58.1797 66.4233 59.9082C68.9868 61.6367 70.2686 64.0024 70.2686 67.0054C70.2686 67.8696 70.0122 68.4922 69.4995 68.873C68.9868 69.2393 68.4888 69.4224 68.0054 69.4224H65.3906C64.043 69.4224 62.9956 68.6167 62.2485 67.0054C61.1646 64.6909 59.3628 63.5337 56.8433 63.5337H52.9321C49.7241 63.5337 47.5488 64.2222 46.4062 65.5991C45.2637 66.9761 44.6924 69.5249 44.6924 73.2456C44.6924 76.9663 45.2637 79.5225 46.4062 80.9141C47.5488 82.291 49.7241 82.9795 52.9321 82.9795H57.3047C59.8242 82.9795 61.6187 81.8223 62.688 79.5078C63.4351 77.8818 64.4897 77.0688 65.8521 77.0688H68.4668C69.1553 77.0688 69.6973 77.3252 70.0928 77.8379C70.5029 78.3506 70.708 78.9072 70.708 79.5078C70.708 82.5107 69.4336 84.8765 66.8848 86.605C64.3359 88.3188 61.3989 89.1758 58.0737 89.1758H52.7124C47.2778 89.1758 43.1982 87.8794 40.4736 85.2866ZM74.9927 86.9346V59.5786C74.9927 59.0073 75.1978 58.5166 75.6079 58.1064C76.0181 57.6963 76.5234 57.4912 77.124 57.4912H81.2109C81.7822 57.4912 82.2656 57.6963 82.6611 58.1064C83.0713 58.5166 83.2764 59.0073 83.2764 59.5786V69.4663H98.3936V59.5786C98.3936 59.0073 98.5986 58.5166 99.0088 58.1064C99.4189 57.6963 99.9097 57.4912 100.481 57.4912H104.568C105.168 57.4912 105.667 57.6963 106.062 58.1064C106.472 58.5166 106.677 59.0073 106.677 59.5786V86.9346C106.677 87.5059 106.465 87.9966 106.04 88.4067C105.63 88.8022 105.139 89 104.568 89H100.481C99.9097 89 99.4189 88.8096 99.0088 88.4287C98.5986 88.0332 98.3936 87.5498 98.3936 86.9785V75.6846H83.2764V86.9785C83.2764 87.5498 83.0713 88.0332 82.6611 88.4287C82.2656 88.8096 81.7822 89 81.2109 89H77.124C76.5527 89 76.0547 88.8022 75.6299 88.4067C75.2051 87.9966 74.9927 87.5059 74.9927 86.9346ZM112.566 76.5415V59.5786C112.566 59.0073 112.764 58.5166 113.159 58.1064C113.569 57.6963 114.075 57.4912 114.675 57.4912H118.784C119.341 57.4912 119.824 57.6963 120.234 58.1064C120.645 58.5166 120.85 59.0073 120.85 59.5786V76.5854C120.85 78.7388 121.318 80.3428 122.256 81.3975C123.208 82.4521 124.673 82.9795 126.65 82.9795H130.166C132.144 82.9795 133.601 82.4521 134.539 81.3975C135.491 80.3428 135.967 78.7388 135.967 76.5854V59.5786C135.967 59.0073 136.165 58.5166 136.56 58.1064C136.97 57.6963 137.461 57.4912 138.032 57.4912H142.119C142.72 57.4912 143.225 57.6963 143.635 58.1064C144.045 58.5166 144.25 59.0073 144.25 59.5786V76.5415C144.25 80.5552 143.071 83.668 140.713 85.8799C138.354 88.0771 134.912 89.1758 130.386 89.1758H126.431C121.89 89.1758 118.44 88.0771 116.082 85.8799C113.738 83.668 112.566 80.5552 112.566 76.5415ZM150.095 86.9785V59.6226C150.095 59.022 150.3 58.5166 150.71 58.1064C151.121 57.6963 151.611 57.4912 152.183 57.4912H156.313C156.885 57.4912 157.368 57.6963 157.764 58.1064C158.174 58.5166 158.379 59.022 158.379 59.6226V82.7817H177.517C178.088 82.7817 178.572 82.9868 178.967 83.397C179.377 83.8071 179.583 84.2979 179.583 84.8691V86.9346C179.583 87.5059 179.377 87.9966 178.967 88.4067C178.572 88.8022 178.088 89 177.517 89H152.183C151.611 89 151.121 88.8096 150.71 88.4287C150.3 88.0332 150.095 87.5498 150.095 86.9785ZM183.186 86.8906V59.5347C183.186 58.9634 183.391 58.48 183.801 58.0845C184.211 57.689 184.702 57.4912 185.273 57.4912H210.608C211.179 57.4912 211.663 57.6963 212.058 58.1064C212.468 58.5166 212.673 59.0073 212.673 59.5786V61.644C212.673 62.2153 212.468 62.7061 212.058 63.1162C211.663 63.5117 211.179 63.7095 210.608 63.7095H191.47V70.1035H207.949C208.521 70.1035 209.004 70.3086 209.399 70.7188C209.81 71.1143 210.015 71.5977 210.015 72.1689V74.2344C210.015 74.8057 209.81 75.2964 209.399 75.7065C209.004 76.1021 208.521 76.2998 207.949 76.2998H191.47V82.7817H210.564C211.121 82.7817 211.597 82.9795 211.992 83.375C212.388 83.7705 212.585 84.2539 212.585 84.8252V86.9346C212.585 87.5059 212.38 87.9966 211.97 88.4067C211.56 88.8022 211.069 89 210.498 89H185.273C184.702 89 184.211 88.8022 183.801 88.4067C183.391 87.9966 183.186 87.4912 183.186 86.8906Z" fill="#B2E01E"/>
</svg>
