<svg width="226" height="56" viewBox="0 0 226 56" fill="none" xmlns="http://www.w3.org/2000/svg">
<g clip-path="url(#clip0_110_254)">
<path d="M76.6704 39.8091V5.44702H89.4872C91.8198 5.44702 93.878 5.88048 95.6617 6.74741C97.486 7.57068 98.8799 8.80558 99.9184 10.4334C100.935 12.0363 101.446 13.9853 101.453 16.2805C101.453 18.5632 100.923 20.5153 99.8622 22.1369C98.8496 23.7415 97.3939 25.0185 95.6711 25.8136C93.8748 26.6742 91.8104 27.1108 89.4778 27.1233H82.9478V39.7904H76.6704V39.8091ZM82.9385 21.613H89.5995C90.6179 21.633 91.6269 21.4152 92.5464 20.9769C93.3546 20.5386 94.0251 19.8844 94.4829 19.0871C94.9436 18.241 95.1788 17.2906 95.1659 16.3273C95.1788 15.364 94.9436 14.4135 94.4829 13.5674C94.0305 12.7778 93.3574 12.1373 92.5464 11.7244C91.6359 11.256 90.6232 11.0213 89.5995 11.0415H82.9478V21.6411L82.9385 21.613ZM105.532 39.8091V5.44702H111.809V39.781H105.532V39.8091ZM150.97 5.44702V39.781H144.637V16.4489L134.047 30.5848H133.308L122.671 16.0185V39.8091H116.393V5.44702H122.38L133.803 20.9581L144.974 5.44702H150.989H150.97ZM154.834 39.8091V34.0556H156.817C158.1 34.1148 159.355 33.6641 160.307 32.802C160.757 32.3619 161.109 31.8322 161.342 31.2472C161.574 30.6621 161.68 30.0348 161.654 29.406V5.45638H167.96V29.144C167.972 31.2583 167.504 33.1232 166.556 34.7385C165.675 36.3442 164.328 37.6455 162.693 38.4713C160.872 39.4061 158.845 39.8662 156.799 39.8091H154.806H154.834ZM188.962 5.44702C184.411 5.44702 180.045 7.25519 176.827 10.4738C173.608 13.6923 171.8 18.0576 171.8 22.6094C171.8 27.1611 173.608 31.5264 176.827 34.745C180.045 37.9635 184.411 39.7717 188.962 39.7717C193.514 39.7717 197.879 37.9635 201.098 34.745C204.316 31.5264 206.125 27.1611 206.125 22.6094C206.125 18.0576 204.316 13.6923 201.098 10.4738C197.879 7.25519 193.514 5.44702 188.962 5.44702ZM188.962 34.0556C186.013 33.9362 183.224 32.6805 181.179 30.5514C179.134 28.4222 177.993 25.5847 177.993 22.6327C177.993 19.6808 179.134 16.8433 181.179 14.7141C183.224 12.585 186.013 11.3293 188.962 11.2099C191.912 11.3293 194.701 12.585 196.746 14.7141C198.79 16.8433 199.932 19.6808 199.932 22.6327C199.932 25.5847 198.79 28.4222 196.746 30.5514C194.701 32.6805 191.912 33.9362 188.962 34.0556Z" fill="#2D2A33"/>
<path d="M182.264 22.7766C182.264 24.5544 182.97 26.2594 184.227 27.5164C185.484 28.7735 187.189 29.4797 188.967 29.4797C190.745 29.4797 192.45 28.7735 193.707 27.5164C194.964 26.2594 195.67 24.5544 195.67 22.7766H182.236H182.264ZM40.2783 0.19289C37.4848 0.189195 34.7179 0.736707 32.1363 1.80405C29.5547 2.87139 27.2091 4.43759 25.2337 6.41293C23.2584 8.38827 21.6922 10.7339 20.6248 13.3155C19.5575 15.8972 19.01 18.664 19.0137 21.4575V56.83L32.186 41.1411C35.4174 42.4734 38.9275 42.9882 42.4054 42.64C45.8833 42.2917 49.2216 41.0912 52.1247 39.1447C55.0278 37.1982 57.4061 34.5658 59.0489 31.4806C60.6917 28.3955 61.5484 24.9528 61.543 21.4575C61.5467 18.664 60.9992 15.8972 59.9318 13.3155C58.8645 10.7339 57.2983 8.38827 55.3229 6.41293C53.3476 4.43759 51.0019 2.87139 48.4203 1.80405C45.8387 0.736707 43.0719 0.189195 40.2783 0.19289ZM40.2783 31.4864C38.9601 31.4858 37.6549 31.2256 36.4372 30.7205C35.2195 30.2155 34.1133 29.4756 33.1816 28.543C31.2999 26.6596 30.2435 24.1058 30.2448 21.4435C30.246 18.7812 31.3048 16.2284 33.1882 14.3468C35.0716 12.4651 37.6254 11.4087 40.2877 11.4099C42.95 11.4112 45.5028 12.4699 47.3844 14.3534C49.2661 16.2368 50.3225 18.7905 50.3213 21.4529C50.32 24.1152 49.2612 26.6679 47.3778 28.5496C45.4944 30.4313 42.9406 31.4877 40.2783 31.4864Z" fill="#2D2A33"/>
</g>
<defs>
<clipPath id="clip0_110_254">
<rect width="224.825" height="55" fill="white" transform="translate(0.302246 0.0449219)"/>
</clipPath>
</defs>
</svg>
