<svg width="127" height="56" viewBox="0 0 127 56" fill="none" xmlns="http://www.w3.org/2000/svg">
<g clip-path="url(#clip0_110_252)">
<path d="M7.82803 54.116H17.0988V14.6537H7.82803V54.116ZM12.4443 9.47925C15.3478 9.47925 17.621 7.24426 17.621 4.45333C17.621 1.6219 15.3478 -0.61084 12.4443 -0.61084C9.57911 -0.61084 7.30811 1.6219 7.30811 4.45333C7.30811 7.24426 9.57911 9.47925 12.4443 9.47925ZM47.961 -0.498304C32.2891 -0.498304 22.4601 10.186 22.4601 27.2736C22.4601 44.3613 32.2891 55.0096 47.961 55.0096C63.5992 55.0096 73.4282 44.3635 73.4282 27.2736C73.4282 10.186 63.5992 -0.500554 47.9633 -0.500554M47.9633 7.68765C57.5335 7.68765 63.6375 15.2839 63.6375 27.2691C63.6375 39.2206 57.5335 46.8168 47.9655 46.8168C38.3594 46.8168 32.2914 39.2228 32.2914 27.2714C32.2914 15.2839 38.3594 7.6899 47.9655 7.6899M77.34 39.0023C77.7496 48.9055 85.8658 55.0118 98.2269 55.0118C111.218 55.0118 119.409 48.6084 119.409 38.4081C119.409 30.4022 114.795 25.8984 103.885 23.4046L97.7047 21.9889C91.1146 20.4269 88.3979 18.3427 88.3979 14.7662C88.3979 10.3008 92.4943 7.32078 98.56 7.32078C104.705 7.32078 108.911 10.3368 109.357 15.3627H118.517C118.292 5.90731 110.473 -0.496051 98.6366 -0.496051C86.9462 -0.496051 78.6432 5.94333 78.6432 15.4752C78.6432 23.1435 83.3337 27.9083 93.237 30.1793L100.199 31.8179C106.973 33.4182 109.728 35.6532 109.728 39.5244C109.728 43.9922 105.224 47.1927 98.7468 47.1927C92.1949 47.1927 87.2455 43.9539 86.6468 39.0045L77.34 39.0023Z" fill="#2D2A33"/>
</g>
<defs>
<clipPath id="clip0_110_252">
<rect width="126.042" height="55" fill="white" transform="translate(0.260742 0.0449219)"/>
</clipPath>
</defs>
</svg>
