<svg width="62" height="79" viewBox="0 0 62 79" fill="none" xmlns="http://www.w3.org/2000/svg">
<g clip-path="url(#clip0_138_390)">
<path fill-rule="evenodd" clip-rule="evenodd" d="M31.2193 10.7744C31.2193 16.7244 27.6414 21.5514 23.2122 21.5514C18.7831 21.5514 15.2052 16.7244 15.2052 10.7744C15.2052 4.8245 18.7831 0.00170898 23.2122 0.00170898C27.6414 0.00170898 31.2193 4.84545 31.2193 10.7744ZM14.3412 33.8702C15.8765 32.5717 17.3436 31.1955 18.7367 29.7472C22.4326 26.0389 25.6101 22.8419 30.7262 23.7553C36.8622 24.8531 38.5057 28.7457 40.537 33.5518C41.1607 35.0267 41.8223 36.5854 42.6441 38.1609C43.387 39.5275 44.2441 40.8296 45.2064 42.0535C46.4243 43.6876 47.6001 45.2715 48.4809 47.7227C50.3899 52.9896 49.1256 59.3167 43.6471 61.7427C39.0114 63.8042 35.3872 62.057 31.6028 60.2343C29.2681 59.1072 26.866 57.9465 24.1183 57.6322C21.7815 57.4294 19.4298 57.4701 17.1016 57.7537C12.4659 58.1728 8.44973 58.5205 5.08254 54.2425C2.03986 50.375 2.83635 44.4544 5.87061 40.7923C7.65745 38.3746 9.96265 36.8619 11.9476 35.5588C12.7735 35.0363 13.5724 34.4727 14.3412 33.8702ZM38.3625 24.4886C42.5135 26.2862 47.874 23.1771 50.3393 17.5456C52.8047 11.9141 51.4351 5.89298 47.284 4.09543C43.133 2.29788 37.7683 5.41111 35.3029 11.0426C32.8376 16.6741 34.1988 22.6952 38.354 24.4886H38.3625ZM59.5685 35.6175C56.2899 39.8788 50.9631 41.2993 47.6633 38.7852C44.3635 36.2711 44.3383 30.7947 47.6085 26.5292C50.8788 22.2637 56.2056 20.8432 59.5096 23.3447C62.8135 25.8462 62.8346 31.352 59.5601 35.6175H59.5685ZM9.38951 32.3827C13.3888 31.5908 15.7825 26.7219 14.7374 21.4885C13.6923 16.2551 9.60022 12.6893 5.6009 13.4938C1.60158 14.2983 -0.80054 19.1756 0.240379 24.3881C1.2813 29.6005 5.38176 33.1789 9.38108 32.3827H9.38951Z" fill="black"/>
<path fill-rule="evenodd" clip-rule="evenodd" d="M10.5187 78.8508V74.5518C10.5187 73.3283 9.86124 72.7501 8.75711 72.7501C8.35194 72.7539 7.95364 72.8545 7.59574 73.0433C7.23783 73.2322 6.93082 73.5038 6.70056 73.8353C6.58894 73.4929 6.36308 73.1987 6.06037 73.0014C5.75765 72.804 5.39624 72.7153 5.03594 72.7501C4.66221 72.7556 4.29408 72.8412 3.95664 73.001C3.6192 73.1608 3.32036 73.3911 3.08052 73.6761V72.8967H1.50439V78.8508H3.08052V74.8451C3.21872 74.641 3.4024 74.4713 3.61728 74.3492C3.83216 74.2271 4.07246 74.1559 4.31951 74.1412C4.96429 74.1412 5.21293 74.5392 5.21293 75.0923V78.8634H6.79749V74.82C6.93635 74.6175 7.12046 74.4497 7.33541 74.3298C7.55035 74.2098 7.79031 74.141 8.03648 74.1286C8.68126 74.1286 8.9299 74.5267 8.9299 75.0798V78.8508H10.5187ZM14.8425 79.0017C14.2223 78.9959 13.6178 78.8079 13.1049 78.4613C12.5919 78.1147 12.1936 77.625 11.9599 77.0538C11.7262 76.4827 11.6676 75.8555 11.7916 75.2513C11.9155 74.6472 12.2164 74.0929 12.6564 73.6584C13.0964 73.2238 13.6558 72.9284 14.2643 72.8092C14.8727 72.69 15.5031 72.7524 16.076 72.9885C16.6489 73.2247 17.1387 73.624 17.4839 74.1363C17.829 74.6485 18.0141 75.2509 18.0158 75.8675C18.0332 76.2859 17.9629 76.7033 17.8094 77.0932C17.6559 77.4831 17.4225 77.8371 17.1242 78.1326C16.8258 78.4281 16.4689 78.6587 16.0761 78.8097C15.6833 78.9608 15.2632 79.029 14.8425 79.0101V79.0017ZM14.8425 77.6064C15.8244 77.6064 16.3807 76.8061 16.3807 75.8675C16.3807 74.9289 15.8244 74.1412 14.8425 74.1412C13.8606 74.1412 13.3043 74.9457 13.3043 75.8675C13.3043 76.7893 13.8648 77.6064 14.8425 77.6064ZM24.8008 78.8634V74.6733C24.8008 73.5169 24.1686 72.7752 22.8538 72.7752C22.4559 72.7679 22.0613 72.8469 21.6974 73.0069C21.3334 73.1668 21.009 73.4038 20.7466 73.7012V72.9219H19.2042V78.876H20.7804V74.8703C20.9351 74.6542 21.1391 74.4778 21.3757 74.3554C21.6124 74.233 21.8748 74.1682 22.1416 74.1663C22.8116 74.1663 23.2457 74.4512 23.2457 75.2767V78.876L24.8008 78.8634ZM29.1372 79.0143C28.5171 79.0085 27.9125 78.8204 27.3996 78.4739C26.8867 78.1273 26.4883 77.6376 26.2546 77.0664C26.0209 76.4952 25.9624 75.8681 26.0863 75.2639C26.2102 74.6597 26.5111 74.1055 26.9511 73.671C27.3911 73.2364 27.9505 72.9409 28.559 72.8217C29.1675 72.7025 29.7978 72.7649 30.3707 73.0011C30.9436 73.2372 31.4334 73.6365 31.7786 74.1488C32.1238 74.6611 32.3089 75.2635 32.3105 75.8801C32.3261 76.2974 32.2545 76.7134 32.1002 77.1019C31.9459 77.4903 31.7123 77.8427 31.4141 78.1368C31.1159 78.4309 30.7596 78.6604 30.3677 78.8107C29.9758 78.961 29.5568 79.0289 29.1372 79.0101V79.0143ZM29.1372 77.619C30.1191 77.619 30.6754 76.8186 30.6754 75.8801C30.6754 74.9415 30.1191 74.1538 29.1372 74.1538C28.1553 74.1538 27.6327 74.9457 27.6327 75.8675C27.6327 76.7893 28.1595 77.6064 29.1372 77.6064V77.619ZM35.0372 76.9527C35.1978 77.1566 35.4023 77.3223 35.6356 77.4375C35.8689 77.5528 36.1252 77.6148 36.3857 77.619C37.3044 77.619 37.9113 76.9276 37.9113 75.8926C37.9113 74.8577 37.3044 74.1538 36.3857 74.1538C36.1229 74.1597 35.8649 74.225 35.6312 74.3448C35.3976 74.4646 35.1944 74.6357 35.0372 74.8451V76.9527ZM35.0372 78.8634H33.461V70.6299H35.0372V73.6635C35.2522 73.379 35.531 73.1483 35.8514 72.9897C36.1719 72.8312 36.5251 72.7491 36.883 72.7501C38.4086 72.7501 39.5338 73.9317 39.5338 75.8801C39.5338 77.8285 38.4128 79.0101 36.9041 79.0101C36.5464 79.0097 36.1936 78.9271 35.8734 78.7686C35.5531 78.6102 35.2741 78.3802 35.0582 78.0966L35.0372 78.8634ZM45.8973 78.8634H44.3211V78.2475C44.0782 78.5022 43.7834 78.7024 43.4563 78.8347C43.1292 78.9669 42.7775 79.0282 42.4247 79.0143C42.1563 79.0261 41.8883 78.9839 41.6367 78.8902C41.3851 78.7964 41.1552 78.6531 40.9607 78.4687C40.7663 78.2844 40.6113 78.0629 40.5051 77.8175C40.3989 77.5721 40.3438 77.3079 40.3429 77.0407C40.3429 75.6454 41.4681 75.1175 42.4247 75.1175C42.7744 75.0979 43.1243 75.1524 43.4512 75.2774C43.7782 75.4024 44.0747 75.5949 44.3211 75.8424V75.0295C44.3211 74.4261 43.7986 74.0322 43.0063 74.0322C42.3538 74.0337 41.7272 74.286 41.2574 74.7362L40.6969 73.6886C41.425 73.0691 42.3557 72.7354 43.3139 72.7501C44.6751 72.7501 45.931 73.2906 45.931 75.0043L45.8973 78.8634ZM43.0569 77.9542C43.2933 77.9673 43.5296 77.9274 43.7485 77.8374C43.9673 77.7475 44.163 77.6098 44.3211 77.4346V76.6929C44.1628 76.5182 43.967 76.3812 43.7481 76.292C43.5292 76.2027 43.293 76.1636 43.0569 76.1776C42.4374 76.1776 41.9275 76.496 41.9275 77.0784C41.9275 77.6609 42.4542 77.9416 43.0737 77.9416L43.0569 77.9542ZM53.0741 78.8634V74.6733C53.0741 73.5169 52.442 72.7752 51.1272 72.7752C50.7293 72.7679 50.3347 72.8469 49.9707 73.0069C49.6068 73.1668 49.2824 73.4038 49.02 73.7012V72.9219H47.4439V78.876H49.02V74.8703C49.1759 74.6554 49.3802 74.4799 49.6166 74.3576C49.853 74.2354 50.1148 74.1699 50.3812 74.1663C51.0513 74.1663 51.4854 74.4512 51.4854 75.2767V78.876L53.0741 78.8634ZM60.487 78.8634L58.0427 75.6119L60.4111 72.9093H58.4768L56.2095 75.5616V70.6299H54.6334V78.8508H56.2095V77.334L56.9302 76.5714L58.5147 78.8634H60.487Z" fill="black"/>
</g>
<defs>
<clipPath id="clip0_138_390">
<rect width="62" height="79" fill="white" transform="translate(0 0.00170898)"/>
</clipPath>
</defs>
</svg>
