<svg width="28" height="30" viewBox="0 0 28 30" fill="none" xmlns="http://www.w3.org/2000/svg">
<g clip-path="url(#clip0_27_10516)">
<path d="M0.500004 1.24338C1.59356 1.39686 2.18397 1.535 2.77439 1.55035C7.49772 1.65778 11.5639 3.59673 15.2964 6.22633C16.4781 7.11519 17.4404 8.26133 18.1098 9.57728C20.3382 13.739 21.1474 18.5101 20.415 23.1704C19.3215 22.3774 19.2804 21.2468 18.8132 20.3669C18.4332 19.5529 18.0116 18.7589 17.5502 17.9879C17.4109 17.8536 17.2409 17.755 17.0549 17.7006C16.8689 17.6462 16.6724 17.6378 16.4823 17.6759C16.308 17.762 16.1577 17.8897 16.0448 18.0477C15.932 18.2057 15.86 18.389 15.8354 18.5814C15.8572 19.3978 15.9937 20.2072 16.241 20.9859C17.0779 23.4722 17.9661 25.9432 18.8748 28.404C19.532 30.1844 20.2764 30.4504 21.8063 29.4272C24.228 27.8353 26.1443 25.5886 27.3306 22.9504C27.5308 22.5104 27.4384 21.9272 27.5 21.211C25.0254 21.7226 24.8662 24.3215 22.8793 25.2424C22.941 24.3164 22.982 23.5387 23.0539 22.7611C23.485 18.327 22.7562 13.8572 20.9387 9.78704C19.7835 7.03385 17.6985 4.76984 15.0448 3.38697C12.1132 1.85219 9.09441 0.52715 5.77781 0.148569C4.15032 -0.0611853 2.42014 -0.255592 0.500004 1.24338Z" fill="#1C199A"/>
</g>
<defs>
<clipPath id="clip0_27_10516">
<rect width="27" height="30" fill="white" transform="matrix(-1 0 0 1 27.5 0)"/>
</clipPath>
</defs>
</svg>
