<svg width="102" height="77" viewBox="0 0 102 77" fill="none" xmlns="http://www.w3.org/2000/svg">
<g clip-path="url(#clip0_159_1388)">
<path d="M79.4598 69.9298C84.6724 66.2598 86.9421 60.6625 91.9418 57.102C92.0594 57.0182 92.4522 57.2184 93.1752 57.3832C92.9154 58.4078 92.5305 59.3981 92.0273 60.3369C89.2546 64.2158 86.5347 68.1382 83.4594 71.8137C80.5444 75.2967 77.9632 75.0793 74.7796 71.4617C71.8661 68.1505 69.036 64.7873 66.1957 61.4297C65.8299 60.802 65.5328 60.1467 65.3086 59.4735C71.0491 61.2962 73.1694 65.967 77.6965 69.0299C77.5853 64.8094 77.7081 61.1321 77.346 57.4232C76.1442 44.9586 72.1062 33.3168 62.7617 23.2851C50.4643 10.0361 32.4725 5.31651 15.0511 10.7686C14.9227 10.8134 14.7915 10.852 14.6578 10.8843C13.325 11.157 11.5923 12.5553 10.8245 10.5078C10.1431 8.66956 12.4099 8.5782 13.7293 8.16806C34.7682 1.76342 56.0547 8.67226 68.7084 26.0476C76.8295 37.2065 79.9018 49.434 79.8233 62.2544C79.8111 64.8193 79.5861 67.3751 79.4598 69.9298Z" fill="#1C199A"/>
</g>
<defs>
<clipPath id="clip0_159_1388">
<rect width="91" height="57" fill="white" transform="translate(88.7974 76.5781) rotate(-167.153)"/>
</clipPath>
</defs>
</svg>
