<svg width="365" height="230" viewBox="0 0 365 230" fill="none" xmlns="http://www.w3.org/2000/svg">
<g clip-path="url(#clip0_209_536)">
<path d="M161.227 277.992C175.811 264.793 184.687 247.349 184.687 228.205C184.687 210.605 177.16 194.432 164.609 181.702C165.768 174.771 166.09 167.726 165.567 160.719C165.412 156.915 164.632 153.163 163.26 149.611C161.861 146.036 159.234 143.075 155.851 141.261C154.558 140.571 153.083 140.297 151.628 140.479C150.33 140.804 149.116 141.404 148.07 142.239C142.694 146.541 137.122 150.413 132.039 155.107C130.464 156.327 129.034 157.725 127.777 159.272C105.94 152.125 82.4258 151.92 60.4674 158.685C59.9138 157.688 59.2154 156.779 58.3951 155.987L52.5302 149.807C46.6652 143.745 40.0574 137.252 31.6705 136.959C30.7056 136.874 29.735 137.042 28.8554 137.448C27.7367 138.246 26.9067 139.385 26.4898 140.694C22.4044 149.142 19.5725 158.141 18.0834 167.407C17.3527 172.668 17.498 178.014 18.5135 183.227C18.5135 183.638 18.6895 184.185 18.8263 184.811C7.97673 196.673 1.89157 212.127 1.73977 228.205C1.73977 247.349 10.6349 264.793 25.1995 277.992C12.7552 291.263 4.4625 307.884 1.34264 325.81C-1.77721 343.735 0.411982 362.182 7.64066 378.878C14.8693 395.574 26.8219 409.792 42.0264 419.779C57.2309 429.766 75.0236 435.088 93.2133 435.088C111.403 435.088 129.196 429.766 144.4 419.779C159.605 409.792 171.557 395.574 178.786 378.878C186.015 362.182 188.204 343.735 185.084 325.81C181.964 307.884 173.671 291.263 161.227 277.992Z" fill="black"/>
<path d="M37.8092 241.408C41.3398 243.953 45.3403 245.771 49.5788 246.758C53.8172 247.745 58.2094 247.881 62.5006 247.157C69.91 245.866 77.3194 241.29 79.6263 233.879C82.0895 226.057 77.8863 217.12 71.4544 212.173C65.1683 207.32 57.6802 204.271 49.7932 203.353C43.5968 202.599 37.3111 203.496 31.5728 205.954C15.4247 213.62 27.7997 234.211 37.8092 241.408Z" fill="white"/>
<path d="M56.8117 232.02C63.182 232.02 68.3461 224.053 68.3461 214.225C68.3461 204.397 63.182 196.43 56.8117 196.43C50.4415 196.43 45.2773 204.397 45.2773 214.225C45.2773 224.053 50.4415 232.02 56.8117 232.02Z" fill="black"/>
<path d="M147.875 241.404C144.341 243.951 140.337 245.77 136.096 246.757C131.854 247.744 127.458 247.879 123.164 247.154C115.774 245.863 108.345 241.287 106.038 233.876C103.594 226.053 107.798 217.117 114.229 212.169C120.493 207.33 127.953 204.282 135.812 203.35C142.009 202.595 148.295 203.492 154.033 205.951C170.259 213.616 157.865 234.208 147.875 241.404Z" fill="white"/>
<path d="M128.872 232.02C135.243 232.02 140.407 224.053 140.407 214.225C140.407 204.397 135.243 196.43 128.872 196.43C122.502 196.43 117.338 204.397 117.338 214.225C117.338 224.053 122.502 232.02 128.872 232.02Z" fill="black"/>
</g>
<path d="M325.845 49.1563C324.718 40.7212 323.401 31.4116 318.789 21.9221C318.191 20.6879 316.835 17.018 315.142 16.6093C314.023 16.0208 311.641 18.1296 309.695 20.6552C306.002 25.4612 304.746 28.4527 300.463 34.8199C290.802 31.3848 280.683 29.6431 270.5 29.6624C263.362 29.6559 256.246 30.5059 249.286 32.1962C245.713 26.5309 241.352 21.4789 236.354 17.2141C235.319 16.3559 232.646 13.5932 230.991 14.0019C229.742 14.0019 228.401 16.9444 227.62 20.1076C226.003 26.6954 226.195 29.9812 224.333 39.3971C224.126 40.4433 223.835 41.7347 223.429 43.1896C201.434 57.1746 187 80.6817 187 107.319C187 135.068 202.66 159.417 226.21 173.149C226.21 173.852 226.164 174.514 226.095 175.062C225.765 177.744 225.237 180.395 224.517 182.99C223.054 188.098 220.526 192.978 216.664 196.378C213.148 199.468 208.758 201.16 204.468 202.786C211.909 204.352 219.566 204.352 227.007 202.786C230.299 202.201 233.47 201.006 236.377 199.255C238.635 197.743 240.646 195.847 242.329 193.64C244.969 190.305 247.003 186.474 248.328 182.344C249.723 182.647 251.216 182.941 252.871 183.243C258.682 184.401 264.581 184.984 270.492 184.984C316.628 184.984 354 150.214 354 107.336C354.069 84.1636 343.128 63.3865 325.845 49.1563Z" fill="#E00A0D" stroke="#2D2A33" stroke-width="3" stroke-miterlimit="10"/>
<path d="M271.234 126.225C269.33 126.225 267.744 125.681 266.474 124.593C265.205 123.414 264.344 121.782 263.89 119.697C263.074 114.892 262.485 110.676 262.122 107.049C261.85 103.332 261.714 99.3423 261.714 95.0809C261.714 90.9103 261.805 87.2836 261.986 84.2009C262.258 81.1183 262.485 78.2169 262.666 75.4969C262.938 72.7769 263.074 69.9663 263.074 67.0649C262.984 65.0703 263.392 63.3929 264.298 62.0329C265.205 60.5823 266.746 59.8569 268.922 59.8569C271.461 59.8569 273.546 60.7636 275.178 62.5769C276.81 64.3903 277.626 67.2009 277.626 71.0089C277.626 73.2756 277.536 75.4969 277.354 77.6729C277.173 79.7583 276.946 82.1609 276.674 84.8809C276.493 87.5103 276.402 90.8196 276.402 94.8089C276.402 97.8009 276.448 100.385 276.538 102.561C276.72 104.737 276.856 106.686 276.946 108.409C277.128 110.041 277.264 111.628 277.354 113.169C277.445 114.62 277.49 116.161 277.49 117.793C277.49 120.785 276.856 122.961 275.586 124.321C274.408 125.59 272.957 126.225 271.234 126.225ZM272.458 158.457C268.65 158.457 265.568 157.55 263.21 155.737C260.853 153.924 259.674 151.294 259.674 147.849C259.674 144.948 260.536 142.726 262.258 141.185C263.981 139.553 266.112 138.737 268.65 138.737C273.093 138.737 276.312 139.961 278.306 142.409C280.301 144.766 281.298 147.486 281.298 150.569C281.298 152.745 280.573 154.604 279.122 156.145C277.672 157.686 275.45 158.457 272.458 158.457Z" fill="white"/>
<defs>
<clipPath id="clip0_209_536">
<rect width="186.505" height="298.082" fill="white" transform="translate(0 136.961)"/>
</clipPath>
</defs>
</svg>
