<svg width="148" height="167" viewBox="0 0 148 167" fill="none" xmlns="http://www.w3.org/2000/svg">
<g clip-path="url(#clip0_110_194)">
<path d="M127.577 111.259C139.072 100.897 146.068 87.2035 146.068 72.1745C146.068 58.3584 140.135 45.6628 130.243 35.6691C131.156 30.2285 131.41 24.6981 130.998 19.1972C130.875 16.211 130.261 13.2653 129.18 10.4776C128.077 7.67051 126.006 5.34659 123.34 3.92261C122.32 3.38038 121.158 3.16586 120.011 3.30856C118.988 3.56371 118.032 4.03488 117.207 4.69018C112.969 8.06747 108.578 11.107 104.572 14.7913C103.33 15.7495 102.203 16.8467 101.213 18.0612C84.0008 12.4509 65.4673 12.29 48.16 17.6006C47.7237 16.8179 47.1732 16.104 46.5267 15.4821L41.904 10.6311C37.2814 5.87223 32.0732 0.775593 25.4629 0.545324C24.7023 0.478209 23.9373 0.610518 23.244 0.929106C22.3623 1.55538 21.7081 2.4495 21.3795 3.47742C18.1595 10.1093 15.9274 17.1736 14.7537 24.4473C14.1778 28.5773 14.2923 32.7738 15.0927 36.8665C15.0927 37.1889 15.2314 37.6187 15.3393 38.11C6.78782 47.4221 1.99161 59.5538 1.87196 72.1745C1.87196 87.2035 8.88297 100.897 20.3625 111.259C10.5541 121.677 4.01797 134.725 1.55895 148.796C-0.90006 162.868 0.825424 177.349 6.52294 190.456C12.2205 203.563 21.6412 214.724 33.6252 222.564C45.6091 230.404 59.6329 234.581 73.9698 234.581C88.3066 234.581 102.33 230.404 114.314 222.564C126.298 214.724 135.719 203.563 141.417 190.456C147.114 177.349 148.84 162.868 146.381 148.796C143.922 134.725 137.385 121.677 127.577 111.259Z" fill="black"/>
<path d="M30.3007 82.5362C33.0834 84.534 36.2365 85.9617 39.5772 86.7364C42.9179 87.5112 46.3797 87.6176 49.762 87.0495C55.6019 86.0363 61.4419 82.4441 63.2601 76.6259C65.2016 70.4854 61.8887 63.4699 56.8192 59.586C51.8646 55.7769 45.9626 53.3835 39.7463 52.6625C34.8623 52.0707 29.9081 52.775 25.3853 54.7043C12.6576 60.722 22.4114 76.8869 30.3007 82.5362Z" fill="white"/>
<path d="M45.2782 75.1677C50.2991 75.1677 54.3694 68.9132 54.3694 61.198C54.3694 53.4827 50.2991 47.2283 45.2782 47.2283C40.2573 47.2283 36.187 53.4827 36.187 61.198C36.187 68.9132 40.2573 75.1677 45.2782 75.1677Z" fill="black"/>
<path d="M117.052 82.5363C114.267 84.5354 111.112 85.9637 107.768 86.7384C104.425 87.5132 100.96 87.619 97.5756 87.0496C91.751 86.0364 85.8957 82.4442 84.0775 76.6261C82.1514 70.4855 85.4642 63.47 90.5337 59.5861C95.4709 55.7872 101.35 53.3944 107.545 52.6627C112.429 52.0701 117.383 52.7744 121.906 54.7044C134.695 60.7221 124.926 76.887 117.052 82.5363Z" fill="white"/>
<path d="M102.075 75.1677C107.096 75.1677 111.166 68.9132 111.166 61.198C111.166 53.4827 107.096 47.2283 102.075 47.2283C97.0541 47.2283 92.9839 53.4827 92.9839 61.198C92.9839 68.9132 97.0541 75.1677 102.075 75.1677Z" fill="black"/>
<path d="M69.4854 85.4683C71.3672 86.2469 72.9381 87.623 73.9539 89.3828C74.7303 87.6477 76.1169 86.2554 77.8523 85.4683" stroke="white" stroke-width="2" stroke-miterlimit="10" stroke-linecap="round"/>
</g>
<defs>
<clipPath id="clip0_110_194">
<rect width="147" height="234" fill="white" transform="translate(0.5 0.544922)"/>
</clipPath>
</defs>
</svg>
