<svg width="244" height="310" viewBox="0 0 244 310" fill="none" xmlns="http://www.w3.org/2000/svg">
<g clip-path="url(#clip0_64_534)">
<path d="M241.711 188.455C238.447 184.876 232.776 182.834 228.126 181.461C213.488 177.342 198.499 174.591 183.352 173.243C183.754 171.687 183.958 170.086 183.957 168.479C183.957 154.616 169.49 139.139 151.444 132.8V102.401C152.882 98.6677 153.819 94.7602 154.229 90.7807C171.229 82.9037 182.76 67.6287 182.76 50.0851C182.686 40.3178 179.164 30.8906 172.817 23.4672C173.405 16.6336 171.664 9.802 167.877 4.08355C166.818 2.50815 165.356 0.92016 163.517 0.743716C162.045 0.770854 160.616 1.24562 159.421 2.10484C156.397 3.85668 152.566 5.40689 149.629 7.48642C135.119 2.26449 119.211 2.45692 104.83 8.02834C101.376 5.35999 97.6454 3.0699 93.7028 1.19741C92.1499 0.25782 90.3216 -0.120301 88.5234 0.126173C86.0031 0.768935 84.6169 3.56682 83.8356 6.10006C82.2283 11.4915 81.5508 17.1173 81.832 22.7363C81.832 23.2404 81.832 24.0596 81.832 24.9544C76.2169 32.1328 73.141 40.9712 73.0863 50.0851C73.0966 54.8193 73.9501 59.5137 75.6066 63.9486C69.1027 66.3886 62.7851 69.2993 56.704 72.6574C46.4145 78.2553 36.889 85.1557 28.3626 93.1879C25.6918 95.5267 23.1667 98.0268 20.8015 100.674C-0.697107 124.62 -5.53611 155.914 8.59047 173.596C18.9239 190.61 38.9102 198.576 62.3243 203.844C68.0659 205.138 73.8705 206.135 79.7148 206.831C95.9963 209.906 99.8776 210.145 109.43 212.237C121.716 214.909 137.771 217.556 148.495 224.311C160.404 231.873 166.541 241.338 168.305 255.315C169.477 264.667 165.936 275.568 157.203 279.135C152.553 281.038 147.311 280.534 142.308 280.005L122.145 277.862C114.937 277.093 106.531 276.753 101.743 282.172C96.5004 288.083 99.0207 298.065 105.082 303.119C111.144 308.173 119.473 309.42 127.35 309.71C145.08 310.429 165.306 310.53 179.71 300.182C194.114 289.835 204.094 267.225 197.68 250.677C189.3 229.025 171.947 217.632 153.007 207.826C146.542 204.461 138.981 202.13 131.495 199.722C167.007 200.201 198.776 198.702 235.132 199.168C239.669 199.231 242.164 197.441 242.794 196.093C243.426 194.864 243.66 193.47 243.466 192.102C243.272 190.734 242.659 189.46 241.711 188.455Z" fill="black"/>
<path d="M129.466 121.23L129.882 129.246" stroke="white" stroke-miterlimit="10" stroke-linecap="round"/>
<path d="M95.1519 139.857C102.587 133.253 112.656 130.695 122.535 129.573C137.658 127.846 151.52 133.593 151.343 133.354" stroke="white" stroke-miterlimit="10" stroke-linecap="round"/>
<path d="M85.0705 75.1653C84.9749 75.1624 84.8808 75.141 84.7933 75.1023C81.4412 73.4261 76.9548 68.8638 74.5983 64.7173C74.5467 64.5936 74.5211 64.4607 74.5228 64.3267L75.5939 63.9233L75.6948 64.0872C77.9505 68.0572 82.1972 72.3927 85.3603 73.9681C85.5063 74.046 85.6168 74.1773 85.6684 74.3346C85.72 74.4919 85.7089 74.6631 85.6375 74.8125C85.5855 74.9185 85.5048 75.0078 85.4046 75.0702C85.3043 75.1326 85.1886 75.1656 85.0705 75.1653Z" fill="white"/>
<path d="M124.879 54.937C126.414 55.5786 127.694 56.7081 128.521 58.1508C129.161 56.7254 130.3 55.5827 131.722 54.937" stroke="white" stroke-miterlimit="10" stroke-linecap="round"/>
<path d="M140.518 33.537C144.559 30.87 149.213 29.278 154.04 28.9117C156.513 28.5439 159.038 28.7597 161.412 29.5418C162.591 29.9533 163.646 30.657 164.479 31.5871C165.312 32.5172 165.896 33.6434 166.176 34.8604C166.297 35.8337 166.268 36.8201 166.088 37.7843C165.4 42.6247 163.1 47.0917 159.56 50.4631C155.981 53.7399 153.158 55.0506 147.613 54.9246C145.613 54.7869 143.637 54.406 141.728 53.7903C139.647 53.1487 137.704 52.1275 135.994 50.7782C129.643 45.384 135.15 37.2676 140.518 33.537Z" fill="white"/>
<path d="M148.054 49.7572C152.634 49.7572 156.346 44.8199 156.346 38.7294C156.346 32.639 152.634 27.7017 148.054 27.7017C143.475 27.7017 139.762 32.639 139.762 38.7294C139.762 44.8199 143.475 49.7572 148.054 49.7572Z" fill="#2D2A33"/>
<path d="M115.05 34.558C111.009 31.8905 106.356 30.2945 101.529 29.92C99.059 29.5555 96.5381 29.7756 94.1691 30.5628C92.9888 30.9679 91.9317 31.668 91.098 32.5967C90.2643 33.5253 89.6816 34.6516 89.4056 35.8687C89.2795 36.8414 89.3051 37.8278 89.4812 38.7927C90.1763 43.637 92.4797 48.107 96.0215 51.4841C99.6004 54.7609 102.411 56.0716 107.968 55.9455C109.968 55.8007 111.943 55.4199 113.853 54.8113C115.935 54.1659 117.879 53.1403 119.587 51.7865C125.875 46.4302 120.356 38.2885 115.05 34.558Z" fill="white"/>
<path d="M107.464 50.7655C112.043 50.7655 115.756 45.8282 115.756 39.7377C115.756 33.6473 112.043 28.71 107.464 28.71C102.884 28.71 99.1719 33.6473 99.1719 39.7377C99.1719 45.8282 102.884 50.7655 107.464 50.7655Z" fill="#2D2A33"/>
</g>
<defs>
<clipPath id="clip0_64_534">
<rect width="243" height="310" fill="white" transform="translate(0.5)"/>
</clipPath>
</defs>
</svg>
