<svg width="525" height="237" viewBox="0 0 525 237" fill="none" xmlns="http://www.w3.org/2000/svg">
<g clip-path="url(#clip0_199_481)">
<path d="M271.127 0C230.649 0 193.453 8.80438 164.154 23.4994C159.645 23.2672 156.215 23.1194 152.193 23.1194C102.781 23.1194 58.7686 43.304 35.9259 71.6806C33.003 70.2237 29.8106 69.3829 26.5475 69.2104C19.4024 68.2604 12.1625 68.2604 5.01739 69.2104C4.58795 69.2597 4.17155 69.3886 3.78955 69.5904C2.34998 70.4561 2.90043 72.6519 3.62022 74.1932C5.73724 78.4159 7.66367 82.6386 9.8442 86.7346C11.7072 90.2817 13.676 93.7443 15.8777 97.1014C17.2795 99.4879 18.8059 101.8 20.4505 104.027C19.7588 107.66 19.4045 111.35 19.392 115.048C19.392 132.868 17.8254 159.386 26.1876 178.389C18.7569 182.611 11.6225 187.531 4.38231 192.049C2.51767 192.917 1.01879 194.412 0.148271 196.272C-0.00673781 196.607 -0.0762375 196.975 -0.0540759 197.343C-0.0319142 197.712 0.0812158 198.069 0.275287 198.383C0.585147 198.686 0.958435 198.917 1.36836 199.06C1.77829 199.202 2.21469 199.252 2.64634 199.207C13.2314 199.629 20.6199 200.347 32.4328 200.283C35.185 200.283 37.6195 200.284 43.1238 200.115C64.8867 200.685 84.5327 201.149 97.7641 201.149C126.407 201.149 131.975 200.03 152.172 200.03C161.717 200.043 171.249 199.337 180.688 197.919C209.566 208.835 240.223 214.318 271.106 214.092C365.631 214.092 442.267 166.206 442.267 107.13C442.267 48.0545 365.652 0 271.127 0Z" fill="#2D2A33"/>
<path d="M190.638 227.245C214.666 234.825 231.03 240.315 253.026 234.677C256.866 233.11 260.298 230.691 263.061 227.604C266.215 223.508 264.119 217.47 260.944 213.331C254.593 204.886 244.664 199.756 235.159 194.92C213.501 183.92 191.611 172.836 168.007 167.156C159.285 165.045 149.102 164.031 142.221 169.774C139.261 172.601 136.875 175.97 135.193 179.698C132.229 185.335 105.173 197.771 112.456 199.734C123.909 202.796 143.703 210.967 150.414 213.078C169.129 218.927 177.449 223.086 190.638 227.245Z" fill="#2D2A33"/>
<path d="M260.373 214.324C254.022 205.879 244.707 199.756 235.201 194.921C213.544 183.92 191.654 172.836 168.049 167.156" fill="#2D2A33"/>
<path d="M260.373 214.324C254.022 205.879 244.707 199.756 235.201 194.921C213.544 183.92 191.654 172.836 168.049 167.156" stroke="white" stroke-miterlimit="10" stroke-linecap="round"/>
<path d="M186.382 90.072C198.598 89.0163 198.598 89.0162 211.787 88.1083C220.863 87.7659 229.904 86.7853 238.842 85.1736C248.729 82.9356 259.398 81.2465 264.86 69.8874C266.035 67.4884 266.254 64.7347 265.474 62.1809C264.598 59.6943 263.044 57.5007 260.986 55.8468C254.417 50.7986 246.608 47.6046 238.376 46.5991C219.175 44.4877 185.282 46.0501 167.139 52.6375" stroke="white" stroke-miterlimit="10" stroke-linecap="round"/>
<path d="M502.2 220.301C507.746 219.815 513.462 219.034 518.183 216.078C522.904 213.122 524.534 207.632 524.958 202.037C525.254 197.814 523.815 192.304 512.256 185.379C508.999 183.438 505.542 181.853 501.946 180.649C485.876 175.261 469.277 171.595 452.429 169.712C440.658 168.403 427.892 168.213 417.985 174.674C415.142 176.381 412.833 178.845 411.316 181.789C410.179 184.54 409.611 187.492 409.644 190.467C409.496 195.429 409.263 204.085 413.497 207.675C417.731 211.264 426.453 212.129 431.618 213.481C446.511 217.465 461.78 219.885 477.177 220.702C485.518 221.117 493.877 220.983 502.2 220.301Z" fill="#2D2A33"/>
<path d="M502.2 185.695C507.788 185.573 513.268 184.126 518.183 181.472C522.883 178.516 524.534 173.027 524.958 167.453C525.254 163.23 523.815 157.698 512.256 150.773C508.995 148.84 505.539 147.255 501.946 146.043C485.875 140.662 469.276 137.003 452.429 135.128C440.658 133.819 427.892 133.608 417.985 140.068C415.141 141.784 412.832 144.255 411.316 147.205C410.175 149.955 409.606 152.907 409.644 155.882C409.496 160.844 409.263 169.501 413.497 173.069C417.731 176.637 426.453 177.524 431.618 178.896C446.511 182.873 461.78 185.286 477.177 186.096C485.517 186.522 493.877 186.388 502.2 185.695Z" fill="#2D2A33"/>
<path d="M452.429 135.128C440.658 133.819 427.892 133.608 417.985 140.068C415.141 141.784 412.832 144.255 411.316 147.205C410.175 149.955 409.606 152.907 409.644 155.882C409.496 160.844 409.263 169.501 413.497 173.069C417.731 176.637 426.453 177.524 431.618 178.896C446.511 182.873 461.78 185.286 477.177 186.096C485.518 186.518 502.962 185.674 511.049 183.309" fill="#2D2A33"/>
<path d="M452.429 135.128C440.658 133.819 427.892 133.608 417.985 140.068C415.141 141.784 412.832 144.255 411.316 147.205C410.175 149.955 409.606 152.907 409.644 155.882C409.496 160.844 409.263 169.501 413.497 173.069C417.731 176.637 426.453 177.524 431.618 178.896C446.511 182.873 461.78 185.286 477.177 186.096C485.518 186.518 502.962 185.674 511.049 183.309" stroke="white" stroke-miterlimit="10" stroke-linecap="round"/>
<path d="M379.158 26.0977C391.834 31.761 403.062 40.2106 412 50.814C420.938 61.4175 427.355 73.9 430.771 87.3271C433.524 98.4962 433.968 110.911 428.252 120.94C422.536 130.969 412.184 136.649 401.493 140.217C390.802 143.785 379.561 145.432 368.954 149.19C358.348 152.948 347.975 159.303 342.936 169.353C340.014 175.567 338.858 182.461 339.591 189.285C340.602 201.577 346.2 213.044 355.278 221.42C360.159 225.833 365.935 229.145 372.215 231.132C384.557 235.038 398.212 233.391 410.321 228.556C422.43 223.721 432.91 215.888 442.648 207.442C454.228 197.308 465.046 185.801 471.503 171.845C477.325 159.303 479.357 145.347 480.183 131.56C481.326 112.326 480.183 92.6266 473.281 74.5534C466.93 57.6625 458.462 41.6163 445.167 29.6238C436.067 21.9427 425.615 16.0146 414.343 12.1417C401.853 8.25677 393.173 5.08972 380.09 4.35075C371.453 3.86514 359.661 3.33736 350.6 3.75963C346.916 3.94966 324.391 6.061 326.783 12.0573C328.625 16.7234 354.051 17.6945 358.263 18.9613C365.373 20.8954 372.352 23.279 379.158 26.0977Z" fill="#2D2A33"/>
<path d="M358.2 18.918C365.332 20.8632 372.333 23.2609 379.159 26.0965C391.835 31.7598 403.062 40.2094 412 50.8128C420.938 61.4163 427.355 73.8988 430.772 87.3259C433.524 98.495 433.968 110.91 428.252 120.939C422.536 130.968 412.184 136.647 401.493 140.216C390.802 143.784 379.561 145.431 368.955 149.189C358.348 152.947 347.975 159.302 342.936 169.352C340.015 175.566 338.858 182.46 339.591 189.284C340.602 201.576 346.2 213.043 355.279 221.418C360.159 225.831 365.935 229.144 372.215 231.131C384.557 235.037 398.212 233.39 410.321 228.555C422.431 223.72 432.91 215.887 442.648 207.441C454.228 197.307 466.422 186.328 471.503 171.844C476.288 158.204 477.854 153.855 478.637 140.173" fill="#2D2A33"/>
<path d="M358.2 18.918C365.332 20.8632 372.333 23.2609 379.159 26.0965C391.835 31.7598 403.062 40.2094 412 50.8128C420.938 61.4163 427.355 73.8988 430.772 87.3259C433.524 98.495 433.968 110.91 428.252 120.939C422.536 130.968 412.184 136.647 401.493 140.216C390.802 143.784 379.561 145.431 368.955 149.189C358.348 152.947 347.975 159.302 342.936 169.352C340.015 175.566 338.858 182.46 339.591 189.284C340.602 201.576 346.2 213.043 355.279 221.418C360.159 225.831 365.935 229.144 372.215 231.131C384.557 235.037 398.212 233.39 410.321 228.555C422.431 223.72 432.91 215.887 442.648 207.441C454.228 197.307 466.422 186.328 471.503 171.844C476.288 158.204 477.854 153.855 478.637 140.173" stroke="white" stroke-miterlimit="10" stroke-linecap="round"/>
<path d="M70.6876 77.1492C76.504 76.8384 82.2127 78.8018 86.6006 82.6222C90.9886 86.4425 93.71 91.8186 94.1866 97.6082C95.986 114.351 89.4656 120.664 76.6152 122.586C64.5482 124.38 52.1001 111.311 51.211 99.1708C50.9136 96.4242 51.1932 93.6458 52.0319 91.013C52.8706 88.3801 54.2501 85.9503 56.0824 83.8785C57.9148 81.8067 60.1598 80.1385 62.6744 78.9799C65.189 77.8213 67.9181 77.1977 70.6876 77.1492Z" fill="white"/>
<path d="M78.2451 188.479C84.058 188.009 89.4571 185.294 93.2927 180.913C97.1283 176.532 99.0972 170.83 98.7802 165.022C98.2933 148.131 90.9684 142.811 77.9699 142.642C65.7759 142.494 55.2119 157.126 56.0376 169.266C56.1166 172.021 56.7684 174.73 57.9516 177.221C59.1347 179.711 60.8235 181.93 62.9111 183.736C64.9986 185.542 67.4394 186.896 70.0789 187.713C72.7184 188.529 75.4992 188.79 78.2451 188.479Z" fill="white"/>
<path d="M75.5823 171.111C82.8963 170.616 88.5408 166.028 88.1895 160.862C87.8382 155.697 81.6242 151.91 74.3102 152.405C66.9961 152.9 61.3517 157.488 61.7029 162.654C62.0542 167.819 68.2682 171.606 75.5823 171.111Z" fill="#2D2A33"/>
<path d="M71.6638 113.529C78.9779 113.034 84.6224 108.446 84.2711 103.28C83.9198 98.1146 77.7058 94.3282 70.3917 94.823C63.0776 95.3177 57.4332 99.9062 57.7845 105.072C58.1358 110.237 64.3497 114.023 71.6638 113.529Z" fill="#2D2A33"/>
<path d="M103.692 123.957C104.77 126.528 106.667 128.672 109.09 130.059C106.696 131.131 104.776 133.038 103.692 135.422" stroke="white" stroke-miterlimit="10" stroke-linecap="round"/>
</g>
<defs>
<clipPath id="clip0_199_481">
<rect width="525" height="237" fill="white"/>
</clipPath>
</defs>
</svg>
