<svg width="455" height="259" viewBox="0 0 455 259" fill="none" xmlns="http://www.w3.org/2000/svg">
<g clip-path="url(#clip0_154_1244)">
<path d="M26.3859 134.525C11.1214 115.39 5.55049 111.893 5.55049 89.8039C5.66788 72.8132 11.7217 56.3975 22.6653 43.3945C22.6653 30.5109 21.7804 28.2397 24.9178 15.7178C26.225 10.5321 33.1232 0.582956 34.6718 0.120671C38.131 -0.904395 48.9911 5.52738 52.0279 7.45692C55.0648 9.38645 58.8457 13.2254 62.2848 15.4966C74.9868 10.6856 88.4613 8.23346 102.045 8.26088C113.547 8.24326 124.983 9.99225 135.953 13.4465C141.662 9.8895 147.78 7.03478 154.174 4.9445C158.479 3.24214 163.182 2.80285 167.729 3.67823C169.458 4.07099 171.032 4.9661 172.254 6.25094C173.163 7.45754 173.845 8.81979 174.265 10.2708C177.606 19.466 179.874 29.0162 181.022 38.7315C181.163 39.9374 182.511 50.7911 182.631 52.6804C192.405 69.2222 191.983 105.039 188.423 111.672C252.176 115.873 314.823 128.857 338.414 162.744L340.646 162.202C366.011 157.341 392.272 161.068 415.28 172.794C443.315 187.266 450.455 214.52 452.265 219.646C458.016 235.725 453.833 250.197 441.606 255.603C435.009 258.518 416.366 265.995 401.966 240.931C388.753 217.937 361.18 208.169 351.064 204.752C351.064 205.395 265.571 239.906 170.062 239.906C74.5527 239.906 50.5196 241.916 5.40976 201.717C-9.65367 188.311 9.3918 152.795 26.3859 134.525Z" fill="black"/>
<path d="M80.3248 191.627C71.1741 193.316 62.2245 197.235 55.9699 204.209C53.0375 207.728 50.5641 211.605 48.6091 215.746C47.5205 218.056 46.58 220.433 45.7935 222.862C44.8885 225.374 44.9689 234.117 46.8393 237.212C52.1085 245.976 56.4123 249.533 66.3272 252.026C76.2422 254.518 86.7403 249.172 94.2419 241.514C95.7904 239.946 100.657 232.509 102.065 232.107C111.618 229.394 112.121 230.258 115.52 226.339C118.919 222.419 122.036 217.415 121.07 212.269C119.824 205.858 113.026 202.34 108.682 197.476C104.338 192.612 108.521 190.461 99.9535 190.321C93.3832 190.092 86.8067 190.529 80.3248 191.627Z" fill="black"/>
<path d="M50.5599 229.394C47.0404 232.569 40.2026 236.991 35.4764 237.434C25.4207 238.559 13.4947 233.414 10.6791 223.565C7.66238 213.033 9.4925 204.008 14.0578 197.255C17.1236 192.847 21.2976 189.324 26.1593 187.041C31.021 184.758 36.3988 183.795 41.7511 184.251C62.1843 186.14 63.1497 217.977 50.5599 229.394Z" fill="black"/>
<path d="M3.53955 87.7937C3.53955 125.259 46.2964 155.629 99.0686 155.629C151.841 155.629 194.598 125.259 194.598 87.7937C194.598 50.3285 151.821 9.88867 99.0686 9.88867C46.3165 9.88867 3.53955 50.3486 3.53955 87.7937Z" fill="black"/>
<path d="M45.6329 233.112C50.4597 224.349 52.0283 214.581 50.2585 207.465C47.644 196.853 37.0856 188.552 24.6165 187.265C24.3527 187.237 24.0884 187.314 23.8812 187.48C23.674 187.646 23.5407 187.886 23.5104 188.15C23.4936 188.281 23.5034 188.414 23.5391 188.541C23.5749 188.668 23.6358 188.787 23.7183 188.89C23.8009 188.993 23.9034 189.079 24.0197 189.141C24.136 189.204 24.2637 189.243 24.3953 189.255C36.0599 190.461 45.8944 198.139 48.3077 207.948C50.3189 216.309 48.0463 224.128 46.1558 230.419C45.8907 231.297 45.7156 232.199 45.6329 233.112Z" fill="white"/>
<path d="M47.4428 230.459C51.4651 223.002 52.893 215.927 67.5542 207.746C78.6356 201.556 96.8162 202.46 109.949 206.098C110.074 206.135 110.206 206.146 110.336 206.132C110.466 206.117 110.591 206.077 110.706 206.013C110.82 205.95 110.92 205.864 111.001 205.761C111.082 205.658 111.141 205.541 111.176 205.415C111.213 205.288 111.224 205.155 111.21 205.024C111.196 204.893 111.156 204.766 111.092 204.65C111.029 204.534 110.943 204.432 110.84 204.35C110.737 204.267 110.619 204.206 110.492 204.169C96.9571 200.43 78.1529 199.526 66.5687 205.978C51.1433 214.58 46.9199 224.931 45.6328 233.112C45.5524 233.674 47.1613 230.961 47.4428 230.459Z" fill="white"/>
<path d="M346.74 181.196C347.004 181.196 347.256 181.093 347.444 180.908C347.632 180.724 347.741 180.474 347.746 180.211C347.804 177.898 347.527 175.59 346.921 173.357C346.183 169.8 344.262 166.598 341.471 164.272C340.58 163.661 339.613 163.168 338.595 162.805C341.621 165.9 343.814 169.709 344.971 173.879C345.536 175.927 345.793 178.047 345.735 180.17C345.732 180.302 345.755 180.434 345.804 180.557C345.852 180.68 345.923 180.792 346.015 180.887C346.107 180.982 346.216 181.058 346.337 181.111C346.458 181.164 346.588 181.193 346.72 181.196H346.74Z" fill="white"/>
<path d="M92.0699 101.683C89.6223 102.717 87.5808 104.525 86.2577 106.828C85.2372 104.549 83.4213 102.72 81.1494 101.683" stroke="white" stroke-miterlimit="10" stroke-linecap="round"/>
<path d="M107.294 61.8863C114.298 57.7908 122.23 55.5429 130.342 55.354C134.517 54.9596 138.726 55.5516 142.63 57.0825C144.568 57.8703 146.273 59.1378 147.585 60.7658C148.898 62.3938 149.774 64.3287 150.132 66.3885C150.259 68.0276 150.123 69.6765 149.729 71.2727C148.146 79.3198 143.895 86.5988 137.663 91.9348C131.388 97.0802 126.541 99.0298 117.25 98.3264C113.915 97.8967 110.641 97.0806 107.496 95.8944C104.068 94.6287 100.905 92.7412 98.1639 90.3269C88.0881 80.7395 98.0432 67.6548 107.294 61.8863Z" fill="white"/>
<path d="M120.35 71.2747C120.897 61.088 117.392 52.6184 112.523 52.3575C107.654 52.0965 103.264 60.1429 102.717 70.3296C102.171 80.5164 105.675 88.986 110.544 89.247C115.413 89.508 119.803 81.4615 120.35 71.2747Z" fill="black"/>
<path d="M67.9766 66.0866C62.3236 61.9104 55.7002 59.2405 48.73 58.3282C45.1724 57.6047 41.4949 57.7217 37.9905 58.6699C36.2557 59.1784 34.678 60.118 33.4049 61.4009C32.1318 62.6838 31.2047 64.2682 30.7102 66.0062C30.4557 67.4059 30.4218 68.8368 30.6097 70.2471C31.2285 77.3264 34.2187 83.9901 39.0967 89.1606C41.1942 91.5867 43.8102 93.511 46.7516 94.7912C49.6931 96.0715 52.8847 96.675 56.0908 96.5572C59.0035 96.504 61.8996 96.1058 64.7186 95.3712C67.7917 94.5705 70.6898 93.2076 73.2659 91.3514C82.7585 84.1156 75.3977 71.9154 67.9766 66.0866Z" fill="white"/>
<path d="M62.1562 69.7819C62.5982 60.9459 59.2829 53.5993 54.7511 53.3729C50.2194 53.1464 46.1873 60.1258 45.7453 68.9619C45.3032 77.7979 48.6185 85.1445 53.1502 85.371C57.682 85.5974 61.7141 78.618 62.1562 69.7819Z" fill="black"/>
<path d="M189.168 112.737C179.716 127.932 173.079 136.515 146.21 146.786" stroke="white" stroke-miterlimit="10" stroke-linecap="round"/>
</g>
<defs>
<clipPath id="clip0_154_1244">
<rect width="455" height="259" fill="white"/>
</clipPath>
</defs>
</svg>
