<svg width="55" height="55" viewBox="0 0 55 55" fill="none" xmlns="http://www.w3.org/2000/svg">
<path d="M27.5 55C42.6878 55 55 42.6878 55 27.5C55 12.3122 42.6878 0 27.5 0C12.3122 0 0 12.3122 0 27.5C0 42.6878 12.3122 55 27.5 55Z" fill="white"/>
<path d="M30.5468 45.0181V29.6814H35.6475L36.6284 23.3459H30.5468V19.2146C30.4972 18.7386 30.5562 18.2576 30.7194 17.8078C30.8826 17.358 31.1458 16.951 31.4892 16.6177C31.8325 16.2844 32.247 16.0333 32.7015 15.8834C33.1559 15.7336 33.6384 15.6888 34.1127 15.7525H36.8823V10.3518C35.26 10.0908 33.6208 9.94814 31.9778 9.9248C26.9579 9.9248 23.692 12.9598 23.692 18.4529V23.2882H18.1182V29.6237H23.692V44.9605L30.5468 45.0181Z" fill="#2D2A33"/>
</svg>
