<svg width="55" height="55" viewBox="0 0 55 55" fill="none" xmlns="http://www.w3.org/2000/svg">
<path d="M27.5 55C42.6878 55 55 42.6878 55 27.5C55 12.3122 42.6878 0 27.5 0C12.3122 0 0 12.3122 0 27.5C0 42.6878 12.3122 55 27.5 55Z" fill="white"/>
<path d="M27.6164 20.4497C26.2219 20.4497 24.8586 20.8632 23.6991 21.638C22.5396 22.4128 21.6358 23.514 21.1022 24.8024C20.5685 26.0908 20.4289 27.5085 20.7009 28.8763C20.973 30.244 21.6445 31.5004 22.6306 32.4865C23.6167 33.4726 24.8731 34.1441 26.2408 34.4162C27.6086 34.6883 29.0263 34.5486 30.3147 34.0149C31.6031 33.4813 32.7043 32.5775 33.4791 31.418C34.2539 30.2585 34.6674 28.8952 34.6674 27.5007C34.6643 25.6316 33.9205 23.8399 32.5989 22.5182C31.2772 21.1966 29.4855 20.4528 27.6164 20.4497ZM27.6164 31.9898C26.7207 31.9921 25.8445 31.7284 25.0988 31.2322C24.3532 30.736 23.7716 30.0296 23.4277 29.2026C23.0839 28.3755 22.9934 27.4649 23.1676 26.5864C23.3417 25.7078 23.7728 24.9007 24.4062 24.2673C25.0395 23.634 25.8466 23.2029 26.7252 23.0287C27.6038 22.8545 28.5143 22.9451 29.3414 23.2889C30.1684 23.6327 30.8748 24.2144 31.371 24.96C31.8672 25.7057 32.1309 26.5819 32.1286 27.4776C32.1316 28.0721 32.0172 28.6613 31.7918 29.2114C31.5664 29.7615 31.2345 30.2617 30.8152 30.6831C30.3959 31.1045 29.8974 31.439 29.3485 31.6672C28.7995 31.8954 28.2109 32.0129 27.6164 32.0128V31.9898Z" fill="#2D2A33"/>
<path d="M33.2115 41.8098H21.7868C19.5076 41.8067 17.3226 40.9 15.7109 39.2883C14.0993 37.6767 13.1925 35.4917 13.1895 33.2125V21.7878C13.1925 19.5086 14.0993 17.3236 15.7109 15.7119C17.3226 14.1002 19.5076 13.1935 21.7868 13.1904H33.2115C35.4907 13.1935 37.6757 14.1002 39.2874 15.7119C40.899 17.3236 41.8058 19.5086 41.8088 21.7878V33.2125C41.8058 35.4917 40.899 37.6767 39.2874 39.2883C37.6757 40.9 35.4907 41.8067 33.2115 41.8098ZM21.7868 15.8793C20.2198 15.8793 18.7169 16.5018 17.6088 17.6098C16.5008 18.7179 15.8783 20.2208 15.8783 21.7878V33.2125C15.8813 34.7786 16.5048 36.2796 17.6122 37.387C18.7196 38.4944 20.2207 39.1179 21.7868 39.121H33.2115C34.7776 39.1179 36.2787 38.4944 37.3861 37.387C38.4935 36.2796 39.117 34.7786 39.12 33.2125V21.7878C39.12 20.2208 38.4975 18.7179 37.3894 17.6098C36.2814 16.5018 34.7785 15.8793 33.2115 15.8793H21.7868Z" fill="#2D2A33"/>
</svg>
