<svg width="25" height="21" viewBox="0 0 25 21" fill="none" xmlns="http://www.w3.org/2000/svg">
<path d="M1.53154 9.00531C1.53154 9.00531 12.5705 4.47674 16.3953 2.88387C17.8677 2.24487 22.8779 0.198217 22.8779 0.198217C22.8779 0.198217 25.1746 -0.727868 24.9894 1.47622C24.9245 2.40231 24.4152 5.49545 23.9059 8.88494C23.1372 13.6728 22.3037 18.9052 22.3037 18.9052C22.3037 18.9052 22.1833 20.3777 21.0905 20.6277C19.9978 20.8778 18.2197 19.7017 17.9048 19.4794C17.5899 19.2571 13.1169 16.4233 11.4222 15.0156C11.2533 14.9018 11.1161 14.747 11.0233 14.5657C10.9305 14.3845 10.8853 14.1826 10.8917 13.979C10.8982 13.7755 10.9562 13.5769 11.0603 13.4019C11.1644 13.2269 11.3112 13.0811 11.487 12.9782C13.7837 10.8668 16.5249 8.25519 18.1826 6.58823C18.9513 5.82883 19.7199 4.04148 16.5249 6.20853C11.9964 9.33871 7.52334 12.2744 7.52334 12.2744C7.06426 12.4848 6.56704 12.599 6.06219 12.6101C5.55735 12.6213 5.05554 12.5291 4.58762 12.3392C2.67988 11.7651 0.448002 10.9964 0.448002 10.9964C0.448002 10.9964 -1.08929 10.0703 1.53154 9.01458V9.00531Z" fill="#2D2A33"/>
</svg>
