<svg width="178" height="140" viewBox="0 0 178 140" fill="none" xmlns="http://www.w3.org/2000/svg">
<g clip-path="url(#clip0_102_602)">
<path d="M83.399 69.6452L88.2494 26.7255C88.283 26.4148 88.3988 26.1187 88.5849 25.8679C88.771 25.617 89.0206 25.4205 89.308 25.2987C89.2387 25.049 89.2288 24.7866 89.2791 24.5324C89.3294 24.2782 89.4384 24.0394 89.5975 23.8351C89.7565 23.6307 89.9612 23.4665 90.1951 23.3558C90.4289 23.245 90.6854 23.1906 90.944 23.1971H91.252C91.5215 21.9539 92.0033 20.7668 92.6763 19.6879C94.5148 16.9908 97.3429 15.1308 100.544 14.5133C103.746 13.8957 107.061 14.5706 109.768 16.3908C115.1 11.6863 124.338 11.7634 129.112 17.085C135.56 12.1297 145.703 13.4601 149.437 20.9412C151.204 18.8451 153.557 17.3273 156.193 16.5837C167.742 13.383 179.29 25.2987 174.363 36.7903C173.997 37.6194 172.573 37.1951 172.63 36.3275C173.304 27.4196 168.184 17.2971 157.675 19.6879C156.006 19.9861 154.437 20.698 153.112 21.7588C151.788 22.8196 150.749 24.1957 150.092 25.7615C154.519 26.2049 158.965 26.6869 163.372 27.3039C164.392 27.4389 164.354 28.8271 163.623 29.232C176.903 34.7464 176.749 51.8681 177.192 64.1887C177.654 77.5505 177.596 90.9508 176.961 104.313C176.576 112.025 176.287 120.123 173.112 127.219C165.413 143.955 147.435 140.041 132.499 138.016C114.965 135.625 88.4996 136.724 80.3001 117.385C80.1496 117.059 80.1133 116.691 80.1971 116.341C80.2809 115.991 80.4799 115.68 80.7621 115.457C79.8036 113.581 79.2836 111.51 79.2415 109.403C78.6063 96.6195 81.9746 82.5443 83.399 69.6452ZM95.3132 21.2497C94.9337 21.8501 94.6359 22.4985 94.4278 23.1778C98.2773 23.1778 102.031 23.1778 105.822 23.3513C106.217 21.4478 107.018 19.6523 108.17 18.0876C103.782 16.1595 98.0271 16.7379 95.3132 21.2497ZM111.212 19.6301C110.295 20.7584 109.638 22.075 109.287 23.4863C114.33 23.602 119.373 23.7691 124.415 23.9876C124.874 22.432 125.604 20.9698 126.571 19.6686C126.879 19.283 127.187 18.9167 127.514 18.5696C122.548 15.234 115.35 14.6556 111.212 19.6301ZM130.459 20.3242C129.358 21.422 128.493 22.7344 127.918 24.1804C134.193 24.5082 140.468 24.8938 146.723 25.453C147.082 24.542 147.52 23.6645 148.032 22.8307C143.855 17.2585 136.176 14.6363 130.498 20.2664L130.459 20.3242ZM127.63 134.488C145.549 136.917 166.933 142.47 172.457 119.468C176.018 104.64 174.805 87.4417 174.594 72.306C174.401 59.0599 176.172 39.2968 163.315 31.1602C160.851 57.421 164.662 83.7204 162.391 109.943C161.871 116.036 160.812 122.437 154.903 125.58C146.608 129.976 133.731 127.508 124.993 126.968C113.519 126.387 102.119 124.793 90.9247 122.205C88.8576 121.72 86.864 120.962 84.9965 119.95C93.8119 132.714 113.541 132.559 127.668 134.488H127.63ZM91.8101 118.966C101.434 122.938 114.676 122.919 124.993 123.652C135.309 124.384 154.326 128.337 158.522 115.052C161.178 106.607 159.696 95.3083 159.561 86.6511C159.253 67.4857 158.041 48.3975 161.294 29.4249C157.309 29.3285 153.325 29.1742 149.341 29.02C149.266 31.0391 149.672 33.047 150.526 34.8776C151.379 36.7083 152.655 38.309 154.249 39.5474C155.77 40.7622 153.826 43.0566 152.228 42.1696C149.91 40.9067 148.045 38.948 146.895 36.5687C145.746 34.1894 145.369 31.5091 145.819 28.9043L127.226 28.0945C127.244 28.8683 127.347 29.6377 127.534 30.3889C127.918 31.9314 130.613 37.253 133.134 37.9278C133.346 37.7263 133.606 37.5816 133.888 37.5075C134.171 37.4333 134.468 37.432 134.751 37.5037C135.156 37.5789 135.53 37.773 135.825 38.0614C136.119 38.3498 136.322 38.7194 136.407 39.1233C136.489 39.4869 136.458 39.8672 136.316 40.2123C136.175 40.5574 135.931 40.8504 135.617 41.0514C131.98 43.4037 126.975 37.5808 125.416 34.7079C124.279 32.6151 123.695 30.2652 123.722 27.8824C118.795 27.651 113.861 27.4389 108.921 27.2461C109.176 29.1461 109.84 30.968 110.867 32.5859C111.894 34.2037 113.259 35.579 114.869 36.6167C115.262 36.8469 115.547 37.2239 115.663 37.6651C115.778 38.1062 115.714 38.5753 115.485 38.969C115.255 39.3628 114.878 39.649 114.438 39.7647C113.998 39.8804 113.529 39.8161 113.136 39.586C110.827 38.4233 108.885 36.6418 107.525 34.4395C106.166 32.2372 105.443 29.7003 105.437 27.1111L94.1198 26.7641C94.4285 28.4264 95.1081 29.9974 96.108 31.3596C97.1079 32.7218 98.4022 33.84 99.8941 34.6308C101.549 35.4984 100.414 38.3713 98.6045 37.6965C96.7859 36.9631 95.1683 35.8055 93.8862 34.3199C92.604 32.8343 91.6943 31.0635 91.2327 29.1549C88.9615 49.1558 86.6839 69.1375 84.3999 89.0999C83.3412 100.032 78.6449 113.568 91.8486 118.966H91.8101Z" fill="#2D2A33"/>
<path d="M92.3103 104.718C110.566 104.784 128.787 106.312 146.8 109.287C147.57 109.403 147.397 110.714 146.608 110.656C128.553 109.306 110.326 108.458 92.3103 106.588C92.0858 106.555 91.8805 106.443 91.7319 106.271C91.5834 106.1 91.5016 105.88 91.5016 105.653C91.5016 105.425 91.5834 105.206 91.7319 105.034C91.8805 104.862 92.0858 104.75 92.3103 104.718Z" fill="#2D2A33"/>
<path d="M95.4477 88.5022C112.251 90.8159 129.073 92.4548 145.934 94.0937C147.012 94.2094 147.05 95.829 145.934 95.7904C128.795 95.2547 111.707 93.6254 94.7741 90.9123C93.1765 90.6617 93.8694 88.2901 95.4477 88.5022Z" fill="#2D2A33"/>
<path d="M95.7943 70.4936C113.233 71.8819 130.883 73.5786 148.167 76.278C148.917 76.3936 148.744 77.6662 147.974 77.6277C130.652 76.8178 113.059 74.9476 95.7943 72.7881C94.3507 72.6338 94.2737 70.3972 95.7943 70.4936Z" fill="#2D2A33"/>
<path d="M95.4478 52.5237L95.6788 52.1187C95.8592 51.8191 96.1487 51.6015 96.4862 51.5115C96.8237 51.4216 97.1829 51.4665 97.4881 51.6367L97.8153 51.791C97.9821 51.8802 98.1258 52.0073 98.2349 52.162C98.3439 52.3168 98.4153 52.495 98.4434 52.6823C98.4714 52.8697 98.4553 53.061 98.3964 53.241C98.3375 53.421 98.2373 53.5848 98.104 53.7191C100.395 52.5498 103.046 52.3015 105.514 53.0249L113.502 53.7962L125.455 55.0495C133.519 55.9171 141.565 56.7655 149.572 58.038C150.419 58.173 150.226 59.5805 149.36 59.542C138.716 58.9635 128.188 57.8067 117.486 56.8426C111.135 56.2642 101.684 57.2668 95.929 54.4132C95.617 54.2248 95.3915 53.921 95.3014 53.5673C95.2114 53.2137 95.264 52.8388 95.4478 52.5237Z" fill="#2D2A33"/>
<path d="M130.093 131.268C137.6 129.918 146.184 131.615 153.19 128.491C164.739 123.401 166.298 110.213 166.664 99.0489C167.299 81.8501 165.336 64.4586 165.124 47.2406C165.136 47.2066 165.158 47.1771 165.187 47.1562C165.216 47.1353 165.251 47.1241 165.287 47.1241C165.323 47.1241 165.358 47.1353 165.388 47.1562C165.417 47.1771 165.439 47.2066 165.451 47.2406C166.356 59.2334 166.933 71.2263 167.376 83.2384C167.761 93.7852 168.473 104.91 165.451 115.149C160.139 132.887 145.376 130.111 130.17 131.75C129.882 131.788 129.805 131.325 130.093 131.268Z" fill="#2D2A33"/>
<path d="M108.921 127.72C112.097 128.26 115.311 128.684 118.545 129.127C115.331 128.78 112.116 128.433 108.921 128.183C108.883 128.199 108.842 128.205 108.801 128.201C108.76 128.197 108.72 128.183 108.686 128.16C108.652 128.137 108.624 128.106 108.604 128.07C108.585 128.033 108.575 127.993 108.575 127.951C108.575 127.91 108.585 127.869 108.604 127.833C108.624 127.797 108.652 127.766 108.686 127.743C108.72 127.72 108.76 127.706 108.801 127.702C108.842 127.698 108.883 127.704 108.921 127.72Z" fill="#2D2A33"/>
<path d="M159.619 126.929C173.401 117.829 170.513 99.3189 170.513 84.8966C170.513 72.1132 170.263 59.2913 170.687 46.5079C170.709 46.399 170.768 46.3011 170.854 46.2307C170.94 46.1603 171.047 46.1219 171.158 46.1219C171.269 46.1219 171.377 46.1603 171.463 46.2307C171.549 46.3011 171.608 46.399 171.63 46.5079C172.361 64.2273 172.573 82.178 172.092 99.8973C171.784 110.888 170.051 121.511 160.043 127.662C159.581 127.951 159.157 127.219 159.619 126.929Z" fill="#2D2A33"/>
<path d="M143.393 118.793C145.062 119.322 146.843 119.379 148.542 118.957C150.24 118.535 151.789 117.651 153.017 116.402C153.633 115.766 154.518 116.71 153.96 117.366C152.619 118.982 150.809 120.14 148.781 120.679C146.753 121.218 144.607 121.112 142.643 120.374C141.796 119.988 142.469 118.6 143.393 118.793Z" fill="#2D2A33"/>
<path d="M139.044 114.744C142.563 114.58 146.089 114.872 149.534 115.611C150.303 115.727 150.092 116.903 149.36 116.922C145.843 117.143 142.312 116.916 138.851 116.248C138.68 116.192 138.534 116.079 138.438 115.927C138.341 115.775 138.301 115.594 138.324 115.416C138.347 115.237 138.431 115.072 138.563 114.95C138.694 114.827 138.864 114.754 139.044 114.744Z" fill="#2D2A33"/>
<path d="M0.557747 29.02C1.21216 25.6844 5.75455 25.1638 8.35296 24.5468C13.553 23.3584 18.8811 22.8272 24.2129 22.9657C23.8213 16.8009 23.8535 10.6163 24.3092 4.45588C24.6556 1.62156 26.2339 -0.692175 29.4482 0.175474C33.2977 1.23593 36.3388 5.34285 38.5138 8.3507C41.3624 12.2069 43.7491 16.5066 46.694 20.3628C51.7899 19.6093 56.9478 19.3639 62.092 19.6301C64.6327 19.7266 69.4445 19.3409 70.6186 22.4259C71.7927 25.5108 68.4052 29.0779 66.9039 31.1988C64.1867 35.0998 60.8208 38.5042 56.9529 41.2635C59.5128 46.1802 61.5338 51.3475 63.5933 56.4956C64.5557 58.8672 66.4804 62.9162 63.0544 64.3622C60.1288 65.5962 56.491 62.4342 54.2583 61.0652C49.5426 58.2502 44.0378 55.7436 39.9188 52.0802C39.9133 52.0418 39.9133 52.0029 39.9188 51.9645C35.8746 55.8007 31.5583 59.3383 27.0038 62.5498C24.6941 64.3237 20.7099 68.4498 17.38 66.1168C14.8009 64.3044 15.0318 59.0214 15.0703 56.3413C15.0708 51.5001 16.1631 46.7216 18.2654 42.3625C13.9987 40.3546 9.86483 38.0748 5.88928 35.537C3.65657 34.1681 -0.0774231 32.2785 0.557747 29.02ZM12.8376 35.6913C15.8595 37.3494 18.9968 38.8341 21.9802 40.5501C22.2556 40.7365 22.4702 41 22.5972 41.3078C22.7242 41.6155 22.758 41.9539 22.6944 42.2807C22.6308 42.6076 22.4726 42.9084 22.2395 43.1458C22.0064 43.3832 21.7087 43.5466 21.3835 43.6158C20.1901 47.1635 15.7247 63.9573 21.2103 62.627C23.6355 62.0485 27.408 58.0573 29.4482 56.5727C32.4149 54.254 35.5408 52.1472 38.8025 50.2678C38.9538 50.1674 39.1311 50.114 39.3125 50.114C39.494 50.114 39.6714 50.1674 39.8226 50.2678C39.9685 50.0084 40.2006 49.8085 40.4784 49.7028C40.7562 49.5971 41.0622 49.5924 41.3432 49.6894C47.6756 51.9838 52.6607 57.2861 58.8776 59.7348C61.2066 60.6603 61.1296 60.6796 60.6099 58.2502C60.0991 56.5691 59.4555 54.9315 58.6852 53.3528C57.2223 49.4965 55.8173 45.6403 54.7202 41.7841C54.6666 41.5822 54.6727 41.3691 54.7376 41.1706C54.8025 40.9721 54.9235 40.7968 55.0859 40.6658C55.0601 40.5176 55.0693 40.3655 55.1128 40.2215C55.1562 40.0776 55.2327 39.9458 55.3361 39.8367C57.4533 37.5615 59.6091 35.3442 61.5338 32.9341C62.6502 31.5266 67.7123 25.5494 66.9616 23.8141C66.3842 22.503 58.5697 23.0043 57.1646 23.0236C53.5846 23.0236 50.0238 23.4285 46.463 23.6984C46.2329 23.7013 46.005 23.6538 45.7951 23.5592C45.5853 23.4646 45.3986 23.3251 45.2483 23.1506C45.0979 22.976 44.9874 22.7707 44.9246 22.549C44.8618 22.3272 44.8482 22.0943 44.8847 21.8667C40.3231 17.7984 37.7439 12.1105 33.6249 7.57946C32.5288 6.08105 31.0986 4.85963 29.4482 4.01245C26.8498 3.29905 27.6775 6.80818 27.6775 8.67844C27.6775 13.6144 27.6775 18.5504 27.6775 23.4671C27.6728 23.74 27.6017 24.0076 27.4704 24.2467C27.3391 24.4859 27.1515 24.6893 26.924 24.8394C26.6964 24.9894 26.4357 25.0816 26.1645 25.1079C25.8933 25.1342 25.6198 25.0939 25.3677 24.9903C22.2689 25.4338 19.1508 25.8194 16.0712 26.3207C14.3582 26.5906 12.6644 26.8798 10.9706 27.2461C9.24263 27.4213 7.5463 27.8299 5.92776 28.4609C2.92515 31.488 10.9128 34.573 12.8376 35.6913Z" fill="#2D2A33"/>
<path d="M15.2246 28.9236C18.1679 27.6735 21.3808 27.1957 24.5597 27.5353C24.7536 27.5353 24.9396 27.6125 25.0768 27.7499C25.214 27.8873 25.291 28.0737 25.291 28.268C25.291 28.4623 25.214 28.6487 25.0768 28.7861C24.9396 28.9235 24.7536 29.0007 24.5597 29.0007C23.0066 28.9912 21.4554 29.1073 19.921 29.3478C18.5352 29.5984 17.1878 30.0997 15.802 30.3118C15.0321 30.4275 14.397 29.367 15.2246 28.9236Z" fill="#2D2A33"/>
<path d="M16.7447 32.105C19.0784 31.5306 21.4529 31.1374 23.847 30.9288C24.6361 30.9288 24.7709 32.0857 24.0395 32.2785C21.7149 32.9069 19.3476 33.3644 16.9564 33.6475C16.071 33.7632 15.917 32.3171 16.7447 32.105Z" fill="#2D2A33"/>
<path d="M50.5628 43.0952C52.0449 45.2932 53.3345 47.6841 54.6241 50.0171C54.6757 50.1381 54.6815 50.2739 54.6402 50.3989C54.599 50.5238 54.5135 50.6293 54.4001 50.6956C54.2866 50.762 54.1528 50.7845 54.0239 50.759C53.8951 50.7334 53.7799 50.6616 53.7002 50.557C52.1989 48.3589 50.6398 46.1416 49.3118 43.8279C49.2442 43.6643 49.238 43.4817 49.2944 43.3139C49.3507 43.1461 49.4659 43.0044 49.6184 42.9151C49.771 42.8257 49.9507 42.7948 50.1243 42.8279C50.2979 42.861 50.4537 42.9559 50.5628 43.0952Z" fill="#2D2A33"/>
<path d="M47.6947 43.4037C49.2613 44.547 50.3891 46.194 50.8898 48.0698C51.1207 48.9181 49.8696 49.5158 49.4462 48.6867C48.7242 47.2608 47.7149 46.0003 46.4821 44.9848C45.6544 44.1364 46.7515 42.671 47.6947 43.4037Z" fill="#2D2A33"/>
</g>
<defs>
<clipPath id="clip0_102_602">
<rect width="177" height="140" fill="white" transform="matrix(-1 0 0 1 177.5 0.00195312)"/>
</clipPath>
</defs>
</svg>
