<svg width="242" height="145" viewBox="0 0 242 145" fill="none" xmlns="http://www.w3.org/2000/svg">
<g clip-path="url(#clip0_102_465)">
<path d="M3.08673 31.4058L4.35963 30.9227C4.48216 30.7319 4.65347 30.5774 4.85588 30.4751C5.05829 30.3729 5.28436 30.3267 5.51066 30.3413L5.85281 30.3428C40.4666 16.7869 78.3296 9.08446 114.724 1.88868C114.914 1.41412 115.261 1.01862 115.706 0.767376C116.152 0.516134 116.669 0.42415 117.174 0.506683L120.569 0.985664C120.927 1.08518 121.255 1.2732 121.523 1.53239C121.79 1.79158 121.988 2.11365 122.098 2.46915C122.208 2.82464 122.228 3.20211 122.154 3.567C122.081 3.93189 121.917 4.27249 121.677 4.55756C118.252 12.9693 116.208 21.879 115.624 30.9424C115.638 30.9986 115.638 31.0574 115.623 31.1134C115.726 31.1471 115.818 31.2064 115.891 31.2856C116.087 31.3431 116.256 31.4685 116.367 31.6392C116.478 31.8099 116.525 32.0147 116.498 32.2167C120.186 38.841 123.517 45.6573 126.478 52.6365C126.585 52.8749 126.64 53.1333 126.639 53.3946C126.637 53.6558 126.58 53.9138 126.471 54.1513C126.547 54.2345 126.599 54.3363 126.622 54.4461C126.645 54.556 126.639 54.6701 126.603 54.7767C126.568 54.8833 126.505 54.9787 126.421 55.0532C126.337 55.1276 126.235 55.1783 126.125 55.2003C123.215 55.9428 120.244 56.4206 117.248 56.6276C117.004 56.6067 116.776 56.5037 116.599 56.3355C116.422 56.1674 116.308 55.944 116.275 55.7023C116.241 55.4605 116.292 55.2147 116.417 55.0052C116.542 54.7958 116.735 54.6351 116.963 54.5497C118.963 54.1714 120.992 53.9678 123.026 53.9408C120.737 52.2939 118.397 50.8422 116.033 49.366C116.542 60.6781 116.354 72.0109 115.47 83.2999C116.542 83.9886 115.46 85.4987 114.387 85.0053C76.995 68.7175 40.3669 50.9426 2.53061 35.6546C0.0176235 34.7152 0.962173 31.0545 3.08673 31.4058ZM114.219 44.9359C116.614 45.8692 118.89 47.0848 120.997 48.5569C118.63 43.585 116.539 38.4863 114.734 33.284C89.2785 35.4286 63.7183 36.068 38.1871 35.1988C63.2256 37.5311 88.3821 40.8167 112.825 45.2963C112.984 45.0898 113.208 44.9422 113.46 44.8769C113.713 44.8116 113.98 44.8324 114.219 44.9359ZM113.324 82.24C112.539 70.7469 112.499 59.215 113.205 47.7168C81.4475 45.1355 49.5483 41.3563 17.9435 37.3341C50.3877 50.6442 82.8522 64.9072 113.324 82.24ZM113.546 31.251C112.714 22.5781 114.176 13.8389 117.786 5.9089C84.0561 12.8475 51.0956 22.7213 17.6549 30.6385C49.6161 31.3883 81.4569 31.7222 113.521 31.2509L113.546 31.251Z" fill="white"/>
<path d="M91.9355 66.7058C96.7507 68.5696 101.457 70.7027 106.033 73.0951C106.813 73.4649 106.245 74.8062 105.44 74.5095C100.568 72.7912 95.7885 70.8214 91.1207 68.608C90.914 68.4728 90.7615 68.2691 90.69 68.0327C90.6185 67.7962 90.6327 67.5422 90.7299 67.3152C90.8272 67.0881 91.0013 66.9026 91.2218 66.7912C91.4423 66.6797 91.695 66.6495 91.9355 66.7058Z" fill="white"/>
<path d="M94.5899 63.1746L97.4904 64.9219C98.831 65.7096 100.196 66.4729 101.562 67.2118C102.317 67.6305 101.774 68.9963 100.944 68.6506C99.5539 68.0827 98.2126 67.4416 96.8958 66.7762C96.7402 66.76 96.5902 66.7093 96.4566 66.6277L93.5071 64.9046C93.3077 64.7482 93.1733 64.5236 93.1296 64.2741C93.0859 64.0245 93.1361 63.7676 93.2705 63.5529C93.405 63.3381 93.6141 63.1806 93.8577 63.1108C94.1013 63.041 94.3621 63.0637 94.5899 63.1746Z" fill="white"/>
<path d="M79.3983 16.3211C81.3833 15.4604 83.4605 14.8301 85.5892 14.4423C87.9134 13.8172 90.2626 13.0944 92.6348 12.6894C92.7808 12.6511 92.936 12.6725 93.0663 12.7487C93.1966 12.8248 93.2913 12.9496 93.3295 13.0955C93.3678 13.2415 93.3464 13.3967 93.2702 13.5269C93.1941 13.6572 93.0693 13.7518 92.9233 13.7901C90.6711 14.6843 88.3225 15.2848 85.9977 16.0077C83.9771 16.783 81.8765 17.3311 79.7346 17.6419C79.5805 17.6376 79.4321 17.5832 79.3117 17.4869C79.1914 17.3906 79.1057 17.2577 79.0677 17.1084C79.0296 16.9591 79.0413 16.8015 79.1009 16.6594C79.1606 16.5173 79.265 16.3985 79.3983 16.3211Z" fill="white"/>
<path d="M78.5784 19.3959C82.6588 17.9596 86.8168 16.7541 91.0328 15.7853C91.179 15.7745 91.3244 15.8145 91.4444 15.8987C91.5644 15.9828 91.6517 16.1058 91.6913 16.2469C91.731 16.388 91.7206 16.5384 91.662 16.6727C91.6034 16.8071 91.5002 16.917 91.3698 16.9839C87.371 18.6069 83.2857 20.0083 79.1327 21.1818C78.8958 21.2553 78.6394 21.2318 78.4199 21.1163C78.2004 21.0008 78.0358 20.8028 77.9623 20.5659C77.8888 20.3291 77.9125 20.0728 78.028 19.8533C78.1435 19.6339 78.3415 19.4694 78.5784 19.3959Z" fill="white"/>
<path d="M138.438 50.4652C162.286 45.4382 191.059 60.0516 201.03 82.4992C202.013 84.7288 202.645 87.0968 202.905 89.5194C204.11 89.6339 205.309 89.8104 206.495 90.0481C226.614 94.1914 251.216 123.91 235.589 143.339C234.336 144.922 231.827 142.883 232.837 141.201C240.911 127.652 232.033 112.539 221.664 103.014C216.55 98.0899 210.047 94.8548 203.034 93.7467C202.654 107.989 191.89 121.917 176.239 113.176C176.103 113.081 175.992 112.954 175.916 112.807C175.84 112.66 175.801 112.497 175.801 112.331C175.802 112.165 175.843 112.002 175.92 111.856C175.998 111.71 176.11 111.584 176.246 111.49C171.639 108.709 170.908 102.769 174.718 97.5571C179.315 91.2492 189.906 89.1209 198.703 89.2568C198.706 88.7194 198.488 88.1564 198.344 87.6183C195.935 79.5941 189.83 72.922 183.598 67.4954C177.46 62.2481 170.333 58.2823 162.638 55.8319C154.943 53.3815 146.835 52.496 138.792 53.2276C137.253 53.2209 136.946 50.7763 138.438 50.4652ZM189.345 94.6645C181.962 95.2187 179.103 100.744 180.768 111.241C180.91 111.282 181.039 111.356 181.147 111.456C181.254 111.557 181.336 111.682 181.385 111.821C181.435 111.959 181.451 112.108 181.431 112.254C181.412 112.4 181.359 112.539 181.275 112.66C191.874 114.172 199.226 104.016 199.198 93.6079C195.886 93.5997 192.583 93.9456 189.345 94.64L189.345 94.6645Z" fill="white"/>
</g>
<defs>
<clipPath id="clip0_102_465">
<rect width="240" height="143" fill="white" transform="matrix(-0.999991 -0.00434929 -0.00434929 0.999991 241.12 1.04578)"/>
</clipPath>
</defs>
</svg>
