<svg width="139" height="121" viewBox="0 0 139 121" fill="none" xmlns="http://www.w3.org/2000/svg">
<g clip-path="url(#clip0_102_476)">
<path d="M138.116 92.5035C138.204 78.8762 136.27 65.1087 135.032 51.5513C133.795 37.994 132.785 24.1564 131.112 10.5465C131.076 10.3185 130.986 10.1023 130.851 9.91597C131.058 9.78071 131.227 9.59298 131.339 9.37159C131.452 9.15019 131.505 8.9029 131.493 8.65452C131.48 8.40614 131.403 8.16538 131.269 7.95638C131.135 7.74739 130.949 7.57751 130.729 7.46375C112.154 -2.15249 88.2309 -2.8181 69.7438 7.46375C69.6047 7.35138 69.4448 7.26801 69.2733 7.21853C47.4582 0.299736 20.0847 5.08157 4.90818 23.3857C4.81235 23.4835 4.74235 23.6038 4.70457 23.7357C4.6668 23.8676 4.66243 24.0069 4.69186 24.1409C4.7213 24.275 4.78363 24.3995 4.87314 24.5032C4.96265 24.6068 5.07649 24.6863 5.20436 24.7344C5.18744 24.8153 5.18744 24.8988 5.20436 24.9797C5.30891 26.5036 5.39605 28.0099 5.5006 29.5338C3.78897 30.7121 2.19579 32.0555 0.743759 33.545C0.56706 33.728 0.468262 33.973 0.468262 34.2281C0.468262 34.4831 0.56706 34.7282 0.743759 34.9112C0.848305 49.9574 2.20739 65.0736 3.02633 80.1023C3.77557 93.6596 3.94981 107.375 8.41042 120.389C8.49399 120.566 8.63131 120.712 8.80263 120.806C8.97395 120.9 9.17046 120.937 9.364 120.912C9.55753 120.887 9.73812 120.8 9.87984 120.665C10.0216 120.531 10.1171 120.354 10.1528 120.161C11.0357 119.145 11.9766 118.129 12.9756 117.113C12.9756 117.569 12.9756 118.024 12.9756 118.48C12.9795 118.683 13.0359 118.882 13.1391 119.056C13.2424 119.231 13.389 119.376 13.5647 119.476C13.7403 119.577 13.939 119.63 14.1411 119.63C14.3433 119.631 14.5421 119.578 14.718 119.478C30.364 111.709 47.421 107.227 64.8476 106.306C64.9169 106.316 64.9873 106.316 65.0566 106.306C65.6959 107.89 66.8726 109.196 68.378 109.991C69.8835 110.786 71.6205 111.02 73.2809 110.65C75.1944 110.109 76.8859 108.968 78.1085 107.392C79.331 105.817 80.0205 103.889 80.0763 101.892C80.1504 102.087 80.2816 102.256 80.4527 102.374C80.6238 102.493 80.8267 102.557 81.0347 102.558C97.0157 103.414 113.039 102.981 128.951 101.262C129.15 101.238 129.342 101.172 129.513 101.068C129.685 100.964 129.832 100.824 129.946 100.658C130.059 100.493 130.137 100.305 130.173 100.107C130.208 99.9086 130.202 99.7052 130.154 99.5099L133.482 100.473C133.688 100.523 133.903 100.526 134.111 100.481C134.318 100.436 134.513 100.344 134.681 100.213C134.848 100.081 134.984 99.9138 135.078 99.7224C135.172 99.5309 135.222 99.3206 135.224 99.1071C135.224 97.5832 135.224 96.0593 135.224 94.5354L136.688 94.8157C136.993 95.0061 137.36 95.067 137.71 94.9848C138.06 94.9027 138.363 94.6844 138.552 94.3778C138.742 94.0712 138.802 93.7014 138.72 93.3499C138.639 92.9985 138.421 92.694 138.116 92.5035ZM65.8756 9.56565C67.74 24.3141 69.0817 39.0975 69.7089 53.9335C70.2665 66.7902 69.1688 80.0497 70.7195 92.8188C60.143 87.3714 45.3324 89.2281 34.512 92.9414C26.4271 95.709 15.4847 100.876 10.9021 109.004C12.6445 96.7424 11.2506 83.3427 10.9021 71.2217C10.5014 55.8077 9.76952 40.3937 8.48013 25.0147C8.44518 24.7113 8.3319 24.4224 8.15156 24.1765C7.97123 23.9307 7.73012 23.7366 7.4521 23.6134C24.6324 10.2838 44.4612 3.80291 65.8756 9.56565ZM9.69985 118.077C5.76197 104.677 5.74454 90.5243 4.85591 76.6516C3.96727 62.779 3.58391 48.7488 2.05058 34.9287C3.3236 33.9185 4.51779 32.8118 5.62258 31.6182C6.47637 44.8252 7.20816 58.0322 7.55664 71.2567C7.92255 85.2695 6.23239 100.281 8.74148 113.996C8.76555 114.108 8.82367 114.211 8.90786 114.289C8.99206 114.368 9.09826 114.418 9.21197 114.434C9.34386 114.725 9.56083 114.969 9.83411 115.133C10.1074 115.298 10.424 115.375 10.7418 115.354C11.0596 115.333 11.3635 115.215 11.6131 115.016C11.8627 114.818 12.0463 114.547 12.1392 114.241C15.6241 103.398 30.8703 96.9001 40.9415 94.6055C41.6733 94.4303 42.4051 94.3252 43.1195 94.2026C29.8267 98.565 18.17 106.892 9.69985 118.077ZM81.1392 100.246C80.9209 100.25 80.7091 100.321 80.5318 100.45C80.3545 100.578 80.22 100.757 80.146 100.964C80.0552 100.633 79.8495 100.345 79.5661 100.154C79.2827 99.9623 78.9404 99.879 78.6012 99.9193C78.262 99.9595 77.9484 100.121 77.7172 100.373C77.486 100.626 77.3524 100.953 77.3407 101.297C77.3459 102.671 76.949 104.016 76.1992 105.166C75.4495 106.315 74.3801 107.217 73.1241 107.76C71.8503 108.14 70.4803 108.019 69.2924 107.42C68.1046 106.822 67.1881 105.791 66.7294 104.537C66.6855 104.417 66.6134 104.31 66.5193 104.225C66.4252 104.14 66.312 104.078 66.1892 104.047C66.0816 103.815 65.9044 103.622 65.6826 103.497C65.4607 103.371 65.2053 103.318 64.9521 103.346C55.4409 103.725 46.0073 105.23 36.8468 107.83C33.0222 108.935 29.259 110.245 25.5733 111.754C22.8551 112.857 16.7392 117.499 15.1188 115.257C29.3892 101.437 51.0824 89.5609 70.4582 96.7774L69.7263 97.2153C69.221 97.5481 69.5347 98.459 70.1619 98.2488C89.8862 91.2424 107.903 93.4669 127.174 98.6692C111.823 98.8093 96.4377 99.5274 81.1392 100.211V100.246ZM128.01 95.8141C124.804 95.236 121.651 94.0624 118.462 93.3093C112.534 91.8643 106.495 90.921 100.41 90.4892C90.862 89.9287 80.9998 90.9797 72.5317 95.4813C72.5095 95.1956 72.4067 94.9221 72.2354 94.693C72.3747 94.6541 72.4998 94.5755 72.5956 94.4668C72.6915 94.358 72.754 94.2236 72.7756 94.08H72.8627C81.4877 88.4574 94.0506 89.4558 103.982 89.9112C113.648 90.594 123.251 91.9873 132.715 94.08C132.541 98.1086 131.147 96.3745 128.01 95.779V95.8141ZM98.9817 86.5481C90.2695 86.5481 80.5643 86.2504 73.1415 91.2424C74.5355 78.9812 73.5597 66.072 73.0544 53.8634C72.4445 39.2726 71.1552 24.7344 69.3256 10.2488C69.5194 10.196 69.6994 10.1012 69.8529 9.97108C70.0064 9.84097 70.1297 9.67867 70.2142 9.49557C89.8513 1.91118 109.001 1.21054 128.62 9.79334C128.501 10.0001 128.446 10.2381 128.464 10.4765C129.526 24.787 131.182 39.0625 132.488 53.3379C133.656 66.072 134.144 79.0864 136.252 91.6978C124.149 88.1428 111.59 86.4074 98.9817 86.5481Z" fill="white"/>
<path d="M50.6642 97.3555C46.3498 97.9742 42.2938 99.7945 38.9551 102.61C38.415 103.048 39.1294 103.976 39.687 103.574C43.0896 101.334 46.896 99.787 50.8907 99.0195C51.7968 98.8093 51.64 97.2504 50.6642 97.3555Z" fill="white"/>
<path d="M52.3719 100.123L46.1689 102.05C46.1105 102.066 46.0559 102.093 46.0081 102.131C45.9603 102.168 45.9203 102.214 45.8904 102.267C45.8605 102.32 45.8412 102.378 45.8337 102.439C45.8261 102.499 45.8305 102.56 45.8465 102.619C45.8625 102.678 45.8899 102.733 45.927 102.781C45.9642 102.829 46.0103 102.869 46.0629 102.899C46.1155 102.929 46.1734 102.948 46.2335 102.956C46.2935 102.964 46.3544 102.959 46.4128 102.943L52.6681 101.191C53.3651 101.016 53.0689 99.8953 52.3719 100.123Z" fill="white"/>
<path d="M129.997 73.8842C114.61 69.9817 98.4062 70.886 83.5439 76.4765C83.3868 76.5183 83.2526 76.6212 83.1709 76.7624C83.0892 76.9037 83.0667 77.0717 83.1083 77.2297C83.1499 77.3876 83.2522 77.5225 83.3927 77.6046C83.5332 77.6867 83.7004 77.7094 83.8575 77.6676C99.4348 73.4112 113.636 73.2886 129.474 75.7233C130.659 75.8985 131.199 74.287 129.997 73.8842Z" fill="white"/>
<path d="M124.317 59.7838C110.732 56.6011 96.5146 57.5336 83.4568 62.4637C82.7773 62.7265 83.0212 63.795 83.753 63.5848C96.7694 59.7225 110.528 59.1212 123.829 61.8332C125.118 62.1134 125.658 60.0991 124.317 59.7838Z" fill="white"/>
<path d="M120.518 46.8746C107.612 43.5924 94.0151 44.3626 81.5574 49.0816C80.8604 49.3443 81.1218 50.4303 81.871 50.2201C94.3118 46.4803 107.477 45.8787 120.204 48.4685C120.388 48.4565 120.563 48.3837 120.702 48.2615C120.84 48.1392 120.935 47.9745 120.97 47.7927C121.006 47.6109 120.981 47.4224 120.899 47.2564C120.818 47.0903 120.683 46.9561 120.518 46.8746Z" fill="white"/>
<path d="M123.097 13.2615C115.401 12.4413 107.659 12.137 99.9228 12.3507C94.6955 12.5258 83.6312 11.5099 79.0137 14.5927C73.7865 18.0959 79.0137 30.5847 81.5054 34.8411C81.6032 35.005 81.7389 35.1429 81.9009 35.243C82.0629 35.3431 82.2465 35.4026 82.4362 35.4163C82.6259 35.4301 82.8161 35.3977 82.9907 35.322C83.1653 35.2463 83.3192 35.1294 83.4394 34.9812H83.666C96.6936 33.4641 109.821 32.9955 122.923 33.58C123.098 33.5772 123.271 33.5347 123.428 33.4556C123.585 33.3765 123.722 33.2629 123.829 33.1232C123.936 32.9835 124.01 32.8213 124.047 32.6487C124.083 32.476 124.08 32.2974 124.038 32.1261C122.409 26.4372 122.494 20.3908 124.282 14.7503C124.321 14.5718 124.32 14.3868 124.278 14.2088C124.237 14.0308 124.157 13.8644 124.043 13.7216C123.929 13.5789 123.785 13.4635 123.622 13.3839C123.458 13.3043 123.279 13.2625 123.097 13.2615ZM120.745 28.3252C119.455 32.7917 114.368 31.0927 109.785 31.2153C101.022 31.4613 92.2869 32.3393 83.6486 33.8427C83.6637 33.7735 83.6637 33.7018 83.6486 33.6325C82.2848 31.3138 81.2525 28.8137 80.5819 26.2058C79.5904 23.8422 79.4366 21.2079 80.1463 18.744C79.8849 16.3618 81.0524 15.5035 83.6311 16.1516C87.9001 14.6978 93.8418 15.0306 98.3372 14.8379C103.303 14.6277 108.286 14.6453 113.252 14.8379C114.524 14.8379 118.915 14.5051 119.874 15.2934C121.808 16.9223 120.623 17.7631 120.605 20.1978C120.536 22.2997 121.302 26.3809 120.745 28.3252Z" fill="white"/>
<path d="M92.169 17.4303C89.294 18.1309 86.419 18.8841 83.544 19.6548C83.4416 19.7055 83.3601 19.7906 83.3137 19.8954C83.2673 20.0002 83.2588 20.1181 83.2899 20.2285C83.321 20.3389 83.3896 20.4348 83.4838 20.4996C83.578 20.5644 83.6918 20.594 83.8054 20.5832C86.7152 19.9876 89.6251 19.3746 92.5175 18.709C93.3365 18.5163 93.0054 17.2376 92.169 17.4303Z" fill="white"/>
<path d="M95.497 20.4605C92.7614 20.7583 89.991 20.9685 87.2728 21.3889C86.6281 21.3889 86.8023 22.4924 87.4121 22.4749C90.1129 22.4749 92.8137 22.2121 95.497 22.0545C96.4902 21.9844 96.4554 20.373 95.497 20.4605Z" fill="white"/>
<path d="M63.384 77.3523C62.8117 72.1881 61.8978 67.0679 60.6484 62.0259C60.7427 61.779 60.7392 61.5052 60.6387 61.2608C60.5382 61.0164 60.3484 60.8201 60.1083 60.7122C54.7068 57.752 46.8658 59.416 41.0462 60.2743C33.5004 61.3103 26.18 63.6074 19.3878 67.0705C19.2685 66.8133 19.0675 66.6033 18.8165 66.4736C18.5654 66.3439 18.2786 66.3018 18.0011 66.3539C17.7237 66.4061 17.4714 66.5496 17.2839 66.7618C17.0965 66.9739 16.9846 67.2427 16.9658 67.5259C17.1401 76.0561 16.6348 84.6564 17.0878 93.1692C17.0948 93.2393 17.1192 93.3065 17.1588 93.3647C17.1984 93.4228 17.2519 93.47 17.3143 93.502L17.0007 93.7122C16.4083 94.1325 17.0007 95.0959 17.5757 94.7106C30.7183 86.5098 46.2509 83.0618 61.6067 84.9367C61.695 85.0984 61.8205 85.2365 61.9727 85.3395L62.2689 85.5497C62.4904 85.6744 62.7464 85.723 62.9979 85.6882C63.2495 85.6535 63.4829 85.5372 63.6628 85.3571C65.2484 83.3778 63.6977 79.5418 63.384 77.3523ZM18.081 92.994C19.5353 84.9722 20.0441 76.806 19.5969 68.6644C25.3769 66.5244 31.2907 64.769 37.2999 63.4096C43.0151 62.2886 53.278 60.1341 58.9583 62.7615C59.1078 62.8267 59.2665 62.8681 59.4287 62.8841C59.603 66.4041 59.9637 69.9123 60.5091 73.3937C60.7878 75.4255 60.7007 80.9781 62.2515 82.7997C62.1538 82.7467 62.0476 82.7111 61.9378 82.6946C46.5423 80.5223 30.8939 84.1943 18.0461 92.994H18.081Z" fill="white"/>
<path d="M40.5062 79.3491C37.1565 80.0539 33.8562 80.9783 30.6267 82.1166C30.5206 82.1683 30.4358 82.2556 30.3871 82.3635C30.3383 82.4714 30.3286 82.593 30.3596 82.7073C30.3906 82.8216 30.4604 82.9214 30.5569 82.9895C30.6534 83.0575 30.7706 83.0895 30.8881 83.0799C34.2658 82.4901 37.601 81.6768 40.8721 80.6452C41.0431 80.5965 41.1878 80.4814 41.2744 80.3254C41.361 80.1693 41.3824 79.9851 41.3339 79.8132C41.2854 79.6413 41.1709 79.4959 41.0157 79.4088C40.8605 79.3218 40.6772 79.3003 40.5062 79.3491Z" fill="white"/>
<path d="M41.9521 76.8618C38.973 77.1421 36.0197 77.6515 33.118 78.3857C32.5605 78.4908 32.6824 79.4192 33.24 79.3666C36.2272 79.2113 39.1982 78.8248 42.1263 78.2106C42.2911 78.1727 42.436 78.0746 42.5326 77.9352C42.6293 77.7957 42.6708 77.6251 42.649 77.4566C42.6273 77.2881 42.5438 77.1338 42.4149 77.0238C42.286 76.9138 42.121 76.8561 41.9521 76.8618Z" fill="white"/>
<path d="M57.4771 44.7201C43.7468 45.0354 29.1278 47.5927 16.6869 53.5832C16.2688 53.7934 16.565 54.4415 16.9832 54.3189C30.5567 50.6931 43.3809 47.6453 57.4771 46.787C58.8013 46.6994 58.9059 44.6851 57.4771 44.7201Z" fill="white"/>
<path d="M55.6478 36.2074C40.9768 35.1446 26.2458 37.1485 12.3834 42.0927C12.3033 42.1157 12.2285 42.1544 12.1633 42.2064C12.098 42.2585 12.0436 42.323 12.0032 42.3962C11.9627 42.4694 11.937 42.5498 11.9275 42.633C11.918 42.7162 11.9249 42.8005 11.9477 42.881C11.9706 42.9615 12.0091 43.0366 12.0608 43.1022C12.1126 43.1678 12.1768 43.2225 12.2496 43.2631C12.3224 43.3038 12.4025 43.3296 12.4852 43.3392C12.568 43.3488 12.6518 43.3419 12.7319 43.3189C26.6673 39.288 41.1606 37.5548 55.6478 38.1867C56.9197 38.2217 56.8849 36.3125 55.6478 36.2074Z" fill="white"/>
<path d="M55.6303 20.7758C40.7297 20.4333 25.9887 23.918 12.8015 30.9C12.2265 31.2153 12.6272 32.2488 13.2545 31.986C26.644 26.1873 41.0516 23.1382 55.6303 23.0179C55.926 23.0179 56.2097 22.8997 56.4188 22.6895C56.6279 22.4793 56.7454 22.1942 56.7454 21.8968C56.7454 21.5995 56.6279 21.3144 56.4188 21.1042C56.2097 20.8939 55.926 20.7758 55.6303 20.7758Z" fill="white"/>
<path d="M59.3938 10.6867C55.0402 10.1875 50.6444 10.1875 46.2908 10.6867C45.6287 10.7743 45.5764 11.7727 46.2908 11.7902C50.6817 11.7902 55.0029 12.0004 59.3938 12.1931C60.387 12.2281 60.3347 10.7918 59.3938 10.6867Z" fill="white"/>
<path d="M58.9061 14.873C55.5575 14.1116 52.1648 13.5617 48.7478 13.2265C48.1554 13.2265 48.0334 14.1549 48.6084 14.2775C51.9394 15.1238 55.3208 15.7556 58.7319 16.1692C59.516 16.2393 59.6379 15.0482 58.9061 14.873Z" fill="white"/>
</g>
<defs>
<clipPath id="clip0_102_476">
<rect width="138" height="121" fill="white" transform="translate(0.5 0.00195312)"/>
</clipPath>
</defs>
</svg>
