<svg width="190" height="194" viewBox="0 0 190 194" fill="none" xmlns="http://www.w3.org/2000/svg">
<path d="M150.659 43.033C149.533 36.332 148.215 28.9362 143.603 21.3976C143.006 20.4171 141.65 17.5017 139.957 17.177C138.838 16.7095 136.456 18.3848 134.51 20.3912C130.817 24.2092 129.561 26.5857 125.278 31.6439C115.618 28.915 105.499 27.5313 95.3162 27.5467C88.1785 27.5415 81.0627 28.2167 74.103 29.5596C70.5301 25.0589 66.1696 21.0456 61.1713 17.6575C60.137 16.9757 57.4634 14.781 55.8086 15.1057C54.5599 15.1057 53.2192 17.4432 52.4378 19.9561C50.8213 25.1896 51.0128 27.7999 49.1512 35.2801C48.9444 36.1112 48.6533 37.1372 48.2472 38.293C26.2526 49.4029 11.8193 68.0774 11.8193 89.2388C11.8193 111.283 27.4783 130.627 51.0282 141.535C51.0282 142.094 50.9822 142.62 50.9133 143.055C50.5828 145.186 50.0551 147.292 49.3351 149.353C47.8719 153.411 45.3438 157.288 41.4826 159.989C37.9662 162.443 33.5765 163.787 29.2863 165.08C36.7275 166.324 44.3838 166.324 51.8249 165.08C55.1171 164.615 58.288 163.665 61.1943 162.275C63.4529 161.074 65.4639 159.567 67.1469 157.814C69.7865 155.164 71.8207 152.121 73.1454 148.84C74.5397 149.08 76.0335 149.314 77.6883 149.554C83.499 150.474 89.3974 150.937 95.3085 150.937C141.443 150.937 178.813 123.315 178.813 89.2518C178.882 70.8435 167.942 54.3377 150.659 43.033Z" fill="white" stroke="#2D2A33" stroke-width="3" stroke-miterlimit="10"/>
</svg>
