<svg width="171" height="203" viewBox="0 0 171 203" fill="none" xmlns="http://www.w3.org/2000/svg">
<path d="M168.975 90.2108C168.975 65.1429 154.549 43.0355 132.574 29.871C132.16 28.5023 131.869 27.295 131.663 26.3031C129.802 17.4524 130.001 14.3613 128.378 8.16349C127.612 5.18764 126.265 2.38865 125.016 2.41941C123.332 2.03493 120.652 4.634 119.657 5.43372C114.662 9.45253 110.302 14.2072 106.724 19.5363C89.7692 15.669 72.0851 16.5198 55.5759 21.9969C51.3034 16.0145 50.0477 13.2001 46.3876 8.6787C44.4505 6.30263 42.0692 4.31873 40.9436 4.83393C39.2591 5.19534 37.8808 8.67868 37.2989 9.8398C32.7048 18.7673 31.3802 27.5257 30.2546 35.4613C12.973 48.8411 2.07715 68.3956 2.07715 90.18C2.07715 130.527 39.4505 163.231 85.5374 163.231C91.4458 163.232 97.3415 162.681 103.148 161.585C106.977 167.521 111.196 173.288 111.571 175.18C112.589 179.855 113.753 182.347 107.16 199.633C113.634 197.179 119.25 192.875 123.317 187.253C127.257 181.786 129.539 175.291 129.886 168.552C130.082 163.399 129.092 158.27 126.992 153.565C152.091 140.992 168.975 117.332 168.975 90.2108Z" fill="white" stroke="#2D2A33" stroke-width="3" stroke-miterlimit="10"/>
</svg>
