<svg width="137" height="51" viewBox="0 0 137 51" fill="none" xmlns="http://www.w3.org/2000/svg">
<path d="M0.305176 1.52051C0.264486 1.42285 0.244141 1.31299 0.244141 1.19092C0.244141 1.06071 0.313314 0.914225 0.45166 0.751465C0.598145 0.580566 0.813802 0.495117 1.09863 0.495117H3.77197C4.08936 0.495117 4.38232 0.60498 4.65088 0.824707C4.91943 1.04443 5.11068 1.32113 5.22461 1.65479L8.44727 11.3228L11.4258 1.65479C11.6618 0.881673 12.146 0.495117 12.8784 0.495117H15.1245C15.8569 0.495117 16.3411 0.881673 16.5771 1.65479L19.5557 11.3228L22.7783 1.65479C22.8923 1.32113 23.0835 1.04443 23.3521 0.824707C23.6206 0.60498 23.9136 0.495117 24.231 0.495117H26.9043C27.181 0.495117 27.3885 0.580566 27.5269 0.751465C27.6733 0.914225 27.7466 1.06071 27.7466 1.19092C27.7466 1.31299 27.7303 1.42285 27.6978 1.52051L22.2534 16.7549C21.9523 17.585 21.3664 18 20.4956 18H18.7256C17.8223 18 17.2404 17.585 16.98 16.7549L14.0015 7.35547L11.0229 16.7549C10.7544 17.585 10.1725 18 9.27734 18H7.49512C6.63249 18 6.05062 17.585 5.74951 16.7549L0.305176 1.52051ZM29.7485 16.877V1.65479C29.7485 1.3374 29.8625 1.06478 30.0903 0.836914C30.3182 0.609049 30.5908 0.495117 30.9082 0.495117H33.1787C33.5124 0.495117 33.7891 0.609049 34.0088 0.836914C34.2367 1.06478 34.3506 1.3374 34.3506 1.65479V16.8525C34.3506 17.1699 34.2326 17.4425 33.9966 17.6704C33.7687 17.8901 33.4961 18 33.1787 18H30.9082C30.5908 18 30.3182 17.8942 30.0903 17.6826C29.8625 17.4629 29.7485 17.1943 29.7485 16.877ZM37.854 16.877V1.6792C37.854 1.34554 37.9679 1.06478 38.1958 0.836914C38.4237 0.609049 38.6963 0.495117 39.0137 0.495117H41.3086C41.626 0.495117 41.8945 0.609049 42.1143 0.836914C42.3421 1.06478 42.4561 1.34554 42.4561 1.6792V14.5454H53.0884C53.4058 14.5454 53.6743 14.6593 53.894 14.8872C54.1219 15.1151 54.2358 15.3877 54.2358 15.7051V16.8525C54.2358 17.1699 54.1219 17.4425 53.894 17.6704C53.6743 17.8901 53.4058 18 53.0884 18H39.0137C38.6963 18 38.4237 17.8942 38.1958 17.6826C37.9679 17.4629 37.854 17.1943 37.854 16.877ZM56.2378 16.8525V1.65479C56.2378 1.3374 56.3517 1.06478 56.5796 0.836914C56.8075 0.609049 57.0882 0.495117 57.4219 0.495117H59.6924C60.0098 0.495117 60.2783 0.609049 60.498 0.836914C60.7259 1.06478 60.8398 1.3374 60.8398 1.65479V7.14795H69.2383V1.65479C69.2383 1.3374 69.3522 1.06478 69.5801 0.836914C69.8079 0.609049 70.0806 0.495117 70.3979 0.495117H72.6685C73.0021 0.495117 73.2788 0.609049 73.4985 0.836914C73.7264 1.06478 73.8403 1.3374 73.8403 1.65479V16.8525C73.8403 17.1699 73.7223 17.4425 73.4863 17.6704C73.2585 17.8901 72.9858 18 72.6685 18H70.3979C70.0806 18 69.8079 17.8942 69.5801 17.6826C69.3522 17.4629 69.2383 17.1943 69.2383 16.877V10.6025H60.8398V16.877C60.8398 17.1943 60.7259 17.4629 60.498 17.6826C60.2783 17.8942 60.0098 18 59.6924 18H57.4219C57.1045 18 56.8278 17.8901 56.5918 17.6704C56.3558 17.4425 56.2378 17.1699 56.2378 16.8525ZM77.356 16.8281V1.63037C77.356 1.31299 77.4699 1.04443 77.6978 0.824707C77.9256 0.60498 78.1982 0.495117 78.5156 0.495117H92.5903C92.9077 0.495117 93.1763 0.609049 93.396 0.836914C93.6239 1.06478 93.7378 1.3374 93.7378 1.65479V2.80225C93.7378 3.11963 93.6239 3.39225 93.396 3.62012C93.1763 3.83984 92.9077 3.94971 92.5903 3.94971H81.958V7.50195H91.1133C91.4307 7.50195 91.6992 7.61589 91.9189 7.84375C92.1468 8.06348 92.2607 8.33203 92.2607 8.64941V9.79688C92.2607 10.1143 92.1468 10.3869 91.9189 10.6147C91.6992 10.8345 91.4307 10.9443 91.1133 10.9443H81.958V14.5454H92.5659C92.8752 14.5454 93.1396 14.6553 93.3594 14.875C93.5791 15.0947 93.689 15.3633 93.689 15.6807V16.8525C93.689 17.1699 93.575 17.4425 93.3472 17.6704C93.1193 17.8901 92.8467 18 92.5293 18H78.5156C78.1982 18 77.9256 17.8901 77.6978 17.6704C77.4699 17.4425 77.356 17.1618 77.356 16.8281ZM95.9839 16.877V1.6792C95.9839 1.34554 96.0978 1.06478 96.3257 0.836914C96.5535 0.609049 96.8262 0.495117 97.1436 0.495117H99.4385C99.7559 0.495117 100.024 0.609049 100.244 0.836914C100.472 1.06478 100.586 1.34554 100.586 1.6792V14.5454H111.218C111.536 14.5454 111.804 14.6593 112.024 14.8872C112.252 15.1151 112.366 15.3877 112.366 15.7051V16.8525C112.366 17.1699 112.252 17.4425 112.024 17.6704C111.804 17.8901 111.536 18 111.218 18H97.1436C96.8262 18 96.5535 17.8942 96.3257 17.6826C96.0978 17.4629 95.9839 17.1943 95.9839 16.877ZM114.368 16.8281V1.6792C114.368 1.34554 114.478 1.06478 114.697 0.836914C114.917 0.609049 115.186 0.495117 115.503 0.495117H120.471C120.789 0.495117 121.09 0.609049 121.375 0.836914C121.659 1.06478 121.851 1.3374 121.948 1.65479L125.549 12.0796L129.15 1.65479C129.248 1.3374 129.439 1.06478 129.724 0.836914C130.009 0.609049 130.31 0.495117 130.627 0.495117H135.596C135.913 0.495117 136.178 0.609049 136.389 0.836914C136.609 1.06478 136.719 1.34554 136.719 1.6792V16.8281C136.719 17.1618 136.605 17.4425 136.377 17.6704C136.157 17.8901 135.889 18 135.571 18H133.374C133.057 18 132.784 17.8901 132.556 17.6704C132.336 17.4425 132.227 17.1618 132.227 16.8281V4.90186L127.917 16.9014C127.804 17.2025 127.604 17.4629 127.319 17.6826C127.035 17.8942 126.733 18 126.416 18H124.67C124.353 18 124.052 17.8942 123.767 17.6826C123.49 17.4629 123.291 17.2025 123.169 16.9014L118.872 4.90186V16.8281C118.872 17.1618 118.758 17.4425 118.53 17.6704C118.311 17.8901 118.042 18 117.725 18H115.527C115.21 18 114.937 17.8901 114.709 17.6704C114.482 17.4425 114.368 17.1618 114.368 16.8281ZM0.744629 45.52C0.744629 45.0399 0.887044 44.6981 1.17188 44.4946C1.45671 44.283 1.7334 44.1772 2.00195 44.1772H3.45459C4.18701 44.1772 4.74447 44.576 5.12695 45.3735C5.50944 46.1711 6.368 46.5698 7.70264 46.5698L11.9751 46.6553C13.4074 46.6553 14.1235 46.1873 14.1235 45.2515C14.1235 44.5435 13.2487 43.986 11.499 43.5791C10.7178 43.3919 9.85514 43.2088 8.91113 43.0298C7.96712 42.8426 7.02718 42.6107 6.09131 42.334C5.16357 42.0573 4.30908 41.7318 3.52783 41.3574C2.74658 40.9831 2.11182 40.4704 1.62354 39.8193C1.14339 39.1602 0.90332 38.387 0.90332 37.5C0.90332 35.8643 1.48519 34.6069 2.64893 33.728C3.81266 32.841 5.81462 32.3975 8.65479 32.3975L11.7554 32.4707C13.4237 32.4707 14.9251 32.902 16.2598 33.7646C17.6025 34.6191 18.2739 35.6893 18.2739 36.9751C18.2739 37.4552 18.1315 37.8011 17.8467 38.0127C17.5618 38.2243 17.2892 38.3301 17.0288 38.3301H15.5762C14.8438 38.3301 14.2863 37.9313 13.9038 37.1338C13.5213 36.3281 12.6628 35.9253 11.3281 35.9253L7.65381 35.8521C6.22152 35.8521 5.50537 36.32 5.50537 37.2559C5.50537 37.7686 5.95703 38.1877 6.86035 38.5132C7.77181 38.8387 8.87044 39.1276 10.1562 39.3799C11.4502 39.624 12.7482 39.9211 14.0503 40.271C15.3524 40.6209 16.4551 41.1987 17.3584 42.0044C18.2699 42.8019 18.7256 43.7988 18.7256 44.9951C18.7256 46.6309 18.1396 47.8923 16.9678 48.7793C15.804 49.6582 13.8062 50.0977 10.9741 50.0977L7.27539 50.0244C5.6071 50.0244 4.10156 49.5972 2.75879 48.7427C1.41602 47.88 0.744629 46.8058 0.744629 45.52ZM22.4854 47.937C20.9798 46.4966 20.2271 44.2708 20.2271 41.2598C20.2271 38.2406 20.9798 36.0107 22.4854 34.5703C23.999 33.1217 26.2655 32.3975 29.2847 32.3975H32.0068C33.8542 32.3975 35.4858 32.8776 36.9019 33.8379C38.326 34.7982 39.0381 36.1125 39.0381 37.7808C39.0381 38.2609 38.8957 38.6068 38.6108 38.8184C38.326 39.0218 38.0493 39.1235 37.7808 39.1235H36.3281C35.5794 39.1235 34.9976 38.6759 34.5825 37.7808C33.9803 36.495 32.9793 35.8521 31.5796 35.8521H29.4067C27.6245 35.8521 26.416 36.2345 25.7812 36.9995C25.1465 37.7645 24.8291 39.1805 24.8291 41.2476C24.8291 43.3146 25.1465 44.7347 25.7812 45.5078C26.416 46.2728 27.6245 46.6553 29.4067 46.6553H31.8359C33.2357 46.6553 34.2326 46.0124 34.8267 44.7266C35.2417 43.8232 35.8276 43.3716 36.5845 43.3716H38.0371C38.4196 43.3716 38.7207 43.514 38.9404 43.7988C39.1683 44.0837 39.2822 44.3929 39.2822 44.7266C39.2822 46.3949 38.5742 47.7091 37.1582 48.6694C35.7422 49.6216 34.1105 50.0977 32.2632 50.0977H29.2847C26.2655 50.0977 23.999 49.3774 22.4854 47.937ZM41.6626 48.8525V33.6548C41.6626 33.3374 41.7765 33.0648 42.0044 32.8369C42.2323 32.609 42.513 32.4951 42.8467 32.4951H45.1172C45.4346 32.4951 45.7031 32.609 45.9229 32.8369C46.1507 33.0648 46.2646 33.3374 46.2646 33.6548V39.1479H54.6631V33.6548C54.6631 33.3374 54.777 33.0648 55.0049 32.8369C55.2327 32.609 55.5054 32.4951 55.8228 32.4951H58.0933C58.4269 32.4951 58.7036 32.609 58.9233 32.8369C59.1512 33.0648 59.2651 33.3374 59.2651 33.6548V48.8525C59.2651 49.1699 59.1471 49.4425 58.9111 49.6704C58.6833 49.8901 58.4106 50 58.0933 50H55.8228C55.5054 50 55.2327 49.8942 55.0049 49.6826C54.777 49.4629 54.6631 49.1943 54.6631 48.877V42.6025H46.2646V48.877C46.2646 49.1943 46.1507 49.4629 45.9229 49.6826C45.7031 49.8942 45.4346 50 45.1172 50H42.8467C42.5293 50 42.2526 49.8901 42.0166 49.6704C41.7806 49.4425 41.6626 49.1699 41.6626 48.8525ZM62.5366 43.0786V33.6548C62.5366 33.3374 62.6465 33.0648 62.8662 32.8369C63.0941 32.609 63.3748 32.4951 63.7085 32.4951H65.9912C66.3005 32.4951 66.569 32.609 66.7969 32.8369C67.0247 33.0648 67.1387 33.3374 67.1387 33.6548V43.103C67.1387 44.2993 67.3991 45.1904 67.9199 45.7764C68.4489 46.3623 69.2627 46.6553 70.3613 46.6553H72.3145C73.4131 46.6553 74.2228 46.3623 74.7437 45.7764C75.2726 45.1904 75.5371 44.2993 75.5371 43.103V33.6548C75.5371 33.3374 75.647 33.0648 75.8667 32.8369C76.0946 32.609 76.3672 32.4951 76.6846 32.4951H78.9551C79.2887 32.4951 79.5695 32.609 79.7974 32.8369C80.0252 33.0648 80.1392 33.3374 80.1392 33.6548V43.0786C80.1392 45.3084 79.484 47.0378 78.1738 48.2666C76.8636 49.4873 74.9512 50.0977 72.4365 50.0977H70.2393C67.7165 50.0977 65.8 49.4873 64.4897 48.2666C63.1877 47.0378 62.5366 45.3084 62.5366 43.0786ZM83.3862 48.877V33.6792C83.3862 33.3455 83.5002 33.0648 83.728 32.8369C83.9559 32.609 84.2285 32.4951 84.5459 32.4951H86.8408C87.1582 32.4951 87.4268 32.609 87.6465 32.8369C87.8743 33.0648 87.9883 33.3455 87.9883 33.6792V46.5454H98.6206C98.938 46.5454 99.2065 46.6593 99.4263 46.8872C99.6541 47.1151 99.7681 47.3877 99.7681 47.7051V48.8525C99.7681 49.1699 99.6541 49.4425 99.4263 49.6704C99.2065 49.8901 98.938 50 98.6206 50H84.5459C84.2285 50 83.9559 49.8942 83.728 49.6826C83.5002 49.4629 83.3862 49.1943 83.3862 48.877ZM101.77 48.8281V33.6304C101.77 33.313 101.884 33.0444 102.112 32.8247C102.34 32.605 102.612 32.4951 102.93 32.4951H117.004C117.322 32.4951 117.59 32.609 117.81 32.8369C118.038 33.0648 118.152 33.3374 118.152 33.6548V34.8022C118.152 35.1196 118.038 35.3923 117.81 35.6201C117.59 35.8398 117.322 35.9497 117.004 35.9497H106.372V39.502H115.527C115.845 39.502 116.113 39.6159 116.333 39.8438C116.561 40.0635 116.675 40.332 116.675 40.6494V41.7969C116.675 42.1143 116.561 42.3869 116.333 42.6147C116.113 42.8345 115.845 42.9443 115.527 42.9443H106.372V46.5454H116.98C117.289 46.5454 117.554 46.6553 117.773 46.875C117.993 47.0947 118.103 47.3633 118.103 47.6807V48.8525C118.103 49.1699 117.989 49.4425 117.761 49.6704C117.533 49.8901 117.261 50 116.943 50H102.93C102.612 50 102.34 49.8901 102.112 49.6704C101.884 49.4425 101.77 49.1618 101.77 48.8281Z" fill="#B2E01E"/>
</svg>
