<svg width="106" height="56" viewBox="0 0 106 56" fill="none" xmlns="http://www.w3.org/2000/svg">
<path d="M54.749 16.3168C57.4334 16.3168 59.948 16.8237 62.2926 17.8375C64.6372 18.8514 66.7101 20.2369 68.511 21.9942C70.312 23.7515 71.7052 25.7961 72.6906 28.1279C73.676 30.4597 74.1857 32.9773 74.2197 35.6809C74.2197 38.3506 73.71 40.8514 72.6906 43.1832C71.6712 45.515 70.278 47.5764 68.511 49.3675C66.744 51.1586 64.6882 52.5442 62.3436 53.5242C59.9989 54.5042 57.4674 55.0111 54.749 55.0449C52.948 55.0449 51.198 54.8084 49.499 54.3352C47.8 53.8621 46.2199 53.1862 44.7587 52.3076C43.2976 51.4289 41.9383 50.3475 40.6811 49.0634C39.4238 47.7792 38.3874 46.3429 37.5719 44.7546C36.7224 46.3429 35.686 47.7623 34.4627 49.0127C33.2394 50.263 31.8802 51.3445 30.385 52.2569C28.8899 53.1693 27.2928 53.8621 25.5938 54.3352C23.8948 54.8084 22.1448 55.0449 20.3438 55.0449C17.7273 55.0449 15.2468 54.5549 12.9021 53.5749C10.5575 52.5948 8.48465 51.2262 6.68369 49.4689C4.88273 47.7116 3.47255 45.7008 2.45314 43.4366C1.43372 41.1724 0.907027 38.6885 0.873047 35.985V3.84677C0.873047 2.79915 1.26382 1.9036 2.04537 1.16013C2.82692 0.416658 3.7274 0.0449219 4.74681 0.0449219C5.76622 0.0449219 6.6667 0.416658 7.44825 1.16013C8.2298 1.9036 8.63757 2.79915 8.67155 3.84677V20.1693C10.3706 18.919 12.2055 17.9727 14.1764 17.3306C16.1472 16.6885 18.203 16.3506 20.3438 16.3168C22.1448 16.3168 23.8948 16.5534 25.5938 17.0265C27.2928 17.4996 28.8899 18.1755 30.385 19.0541C31.8802 19.9328 33.2394 21.0142 34.4627 22.2984C35.686 23.5826 36.7224 25.0188 37.5719 26.6071C38.4214 25.0188 39.4578 23.5995 40.6811 22.3491C41.9044 21.0987 43.2466 20.0173 44.7077 19.1048C46.1689 18.1924 47.766 17.4996 49.499 17.0265C51.232 16.5534 52.982 16.3168 54.749 16.3168ZM20.3438 47.2892C21.9409 47.2892 23.453 46.985 24.8802 46.3767C26.3074 45.7684 27.5477 44.9405 28.601 43.8928C29.6544 42.8452 30.487 41.6117 31.0986 40.1924C31.7103 38.773 32.0161 37.2692 32.0161 35.6809C32.0161 34.0587 31.7103 32.5549 31.0986 31.1693C30.487 29.7838 29.6544 28.5503 28.601 27.4689C27.5477 26.3875 26.3244 25.5595 24.9312 24.985C23.538 24.4105 22.0088 24.1064 20.3438 24.0726C18.7127 24.0726 17.2006 24.3767 15.8074 24.985C14.4142 25.5933 13.1739 26.4213 12.0866 27.4689C10.9992 28.5165 10.1667 29.7331 9.58902 31.1187C9.01135 32.5042 8.70553 34.025 8.67155 35.6809C8.67155 37.2692 8.97737 38.773 9.58902 40.1924C10.2007 41.6117 11.0332 42.8452 12.0866 43.8928C13.14 44.9405 14.3803 45.7684 15.8074 46.3767C17.2346 46.985 18.7467 47.2892 20.3438 47.2892ZM54.749 47.2892C56.346 47.2892 57.8582 46.985 59.2853 46.3767C60.7125 45.7684 61.9528 44.9405 63.0062 43.8928C64.0596 42.8452 64.8921 41.6117 65.5037 40.1924C66.1154 38.773 66.4212 37.2692 66.4212 35.6809C66.4212 34.0587 66.1154 32.5549 65.5037 31.1693C64.8921 29.7838 64.0596 28.5503 63.0062 27.4689C61.9528 26.3875 60.7295 25.5595 59.3363 24.985C57.9431 24.4105 56.414 24.1064 54.749 24.0726C53.1519 24.0726 51.6398 24.3767 50.2126 24.985C48.7854 25.5933 47.5451 26.4213 46.4917 27.4689C45.4383 28.5165 44.6058 29.75 43.9942 31.1693C43.3825 32.5887 43.0767 34.0925 43.0767 35.6809C43.0767 37.2692 43.3825 38.773 43.9942 40.1924C44.6058 41.6117 45.4383 42.8452 46.4917 43.8928C47.5451 44.9405 48.7854 45.7684 50.2126 46.3767C51.6398 46.985 53.1519 47.2892 54.749 47.2892ZM104.445 48.5564C104.989 49.1985 105.261 49.9589 105.261 50.8375C105.261 51.9865 104.836 52.9159 103.987 53.6256C103.137 54.3352 102.135 54.6901 100.979 54.6901C100.368 54.6901 99.773 54.5718 99.1953 54.3352C98.6176 54.0987 98.1079 53.7269 97.6662 53.22L88.5934 42.1187L79.4697 53.22C79.0619 53.6932 78.5692 54.048 77.9915 54.2846C77.4139 54.5211 76.8022 54.6563 76.1566 54.6901C75.0352 54.6901 74.0498 54.3352 73.2003 53.6256C72.3508 52.9159 71.909 51.9865 71.8751 50.8375C71.8751 50.0265 72.1469 49.2661 72.6906 48.5564L83.2415 35.6302L72.6906 22.7039C72.1469 21.9942 71.8751 21.2339 71.8751 20.4228C71.8751 19.8483 71.994 19.3245 72.2319 18.8514C72.4697 18.3783 72.7756 17.9727 73.1493 17.6348C73.5231 17.2968 73.9819 17.0434 74.5255 16.8744C75.0692 16.7054 75.5959 16.6041 76.1056 16.5703C76.7173 16.5703 77.3289 16.6885 77.9406 16.9251C78.5522 17.1617 79.0619 17.5334 79.4697 18.0403L88.5934 29.1924L97.6662 18.0403C98.04 17.5672 98.5497 17.2124 99.1953 16.9758C99.8409 16.7392 100.47 16.6041 101.081 16.5703C101.625 16.5703 102.135 16.6548 102.61 16.8237C103.086 16.9927 103.528 17.263 103.936 17.6348C104.343 18.0065 104.666 18.4289 104.904 18.9021C105.142 19.3752 105.261 19.8821 105.261 20.4228C105.261 21.2339 104.989 21.9942 104.445 22.7039L93.8434 35.6302L104.445 48.5564Z" fill="#2D2A33"/>
</svg>
